<?xml version="1.0" encoding="UTF-8"?>
<svg id="Layer_1" xmlns="http://www.w3.org/2000/svg" version="1.1" viewBox="0 0 400.3 344.5">
  <!-- Generator: Adobe Illustrator 29.0.0, SVG Export Plug-In . SVG Version: 2.1.0 Build 186)  -->
  <defs>
    <style>
      .st0 {
        fill: #f6f5f1;
      }
    </style>
  </defs>
  <path class="st0" d="M167,315.6l-1.2-1.7,2.3-1.6c2.3-1.6,4.6-3.1,7-4.5l13.9-8,16.2-10.8,11.7-9.2c2-1.6,3.9-3.6,5.4-5.8l.2-.3c1.7-2.5,2.4-5.7,2-8.7-.3-1.8-1.1-3.6-2.2-5-3.3-3.9-7-7.1-11.4-9.4l-19.5-10.3.9-1.9,18.2,8.5.5-.5c.8-.9,1.7-1.9,2.5-2.9,1.8-2.2,3.7-4.5,5.9-6.3,1.5-1.3,3.6-1.7,5.4-1.1l.2.2,4.4,2.9c2.6,1.7,5.1,3.6,7.5,5.8l3.9,3.5c3.4,3,6.5,6.4,9.3,10l.2.2.7,1.6,6.7-3.3,3.1-3.5c-.2-3.2-.8-6.4-1.7-9.4l-.7-2.5c-1.1-3.9-2.6-7.7-4.4-11.2-2.6-5.3-5.8-10.4-9.3-15.2-3-4.1-6.5-7.8-10.4-10.9l-4.6-3.6c-3.1-2.5-6.8-4.2-10.7-5.2-3.5-.8-7-1-10.5-.5-3.8.5-7.3,1.5-10.7,3.3l-18.2,9.3s-.3.4-.3.5,0,.4.2.5l1.9,1.2-20.4,16.9v.3c.5,0,1.1.4,1.2.8.2.5,0,1.1-.4,1.4l-9.5,7.7,20.9-.5v2.1l-7.9.2-5.1,4.2c-2.3,1.8-3.9,4.5-4.7,7.4-.5,1.9-.7,3.8-.5,5.7l.4,4.8c.5,6.2,3.8,11.8,8.9,14.9,2,1.2,4.1,2,6.4,2.5l.9.2c3.3.7,6.8.2,9.8-1.5l18.7-10.4,1.1,1.7c-7,4.7-13.3,9.1-19.7,13.5-6.4,4.4-12.7,8.8-19.7,13.5l-1.1-1.7c7-4.7,13.3-9.1,19.7-13.5.5-.3.8-.6,1.3-.9-3.3,1.6-6.9,2-10.4,1.3l-.9-.2c-2.5-.5-4.8-1.4-7-2.8-5.6-3.5-9.3-9.7-9.8-16.6l-.4-4.8c-.2-2.1,0-4.3.6-6.4.9-3.3,2.8-6.4,5.4-8.5l3-2.5-13.3.3-.5-1.4.5-.5,10.9-8.8s-.4-.5-.5-.8c-.3-.9,0-1.9.7-2.5l18.3-15.1c-.5-.5-.8-1.3-.8-2,0-1,.6-1.8,1.4-2.3l18.2-9.3c3.6-1.8,7.5-3,11.5-3.5,3.7-.5,7.5-.2,11.2.6,4.2.9,8.1,2.8,11.5,5.5l4.6,3.6c4.1,3.3,7.7,7,10.8,11.3,3.6,4.8,6.7,10,9.5,15.5,1.9,3.7,3.4,7.6,4.5,11.6l.7,2.5c.9,3.3,1.5,6.7,1.7,10.2v.5l-.6.8h.9c1.7,0,3.2,1,4.1,2.4l3.2,5.5,1.8,3.9c.9,2,1.4,4.2,1.3,6.5-.2,2.6-1.5,4.9-3.6,6.2l-.5.3c-1.6,1-3.5,1.4-5.3,1.4-2.6,0-5.1-1.2-7-3.1l-2.6-2.7s-.7-.8-.9-1.1l-1.6-2.3c-1.1-1.4-1.7-3.1-2-4.8l-.3-1.7c-.2-.9,0-1.8.7-2.5l-.5.2-1.4-3.6c-2.7-3.5-5.7-6.7-8.9-9.6l-3.9-3.5c-2.3-2-4.8-3.9-7.3-5.6l-4.2-2.8c-1.1-.3-2.4,0-3.3.7-2,1.7-3.9,3.9-5.6,6-.8,1.1-1.7,2-2.6,3l-.8.8h.2c4.5,2.5,8.6,5.8,11.9,9.9,1.4,1.8,2.3,3.9,2.7,6.1.5,3.6-.3,7.3-2.3,10.2l-.2.3c-1.7,2.3-3.6,4.4-5.8,6.1l-11.7,9.3-16.4,10.8-13.9,8c-2.3,1.4-4.7,2.8-6.9,4.4l-2.3,1.6-.2.2ZM257.8,257l-5.8,7.3s-.3.6-.3.9l.3,1.7c.2,1.4.8,2.8,1.7,3.9l1.6,2.3s.5.6.8.9l2.6,2.7c1.5,1.5,3.5,2.4,5.5,2.5,1.4,0,2.9-.4,4.2-1.1l.5-.3c1.5-.9,2.5-2.7,2.6-4.5,0-1.9-.3-3.8-1.1-5.5l-1.7-3.7-3.1-5.3c-.5-.8-1.4-1.4-2.3-1.4h-5.3v-.2Z"/>
  <path class="st0" d="M200,268.7c1.1-.8,2.2-1.5,3.3-2.3.2,0,.2-.3,0-.5,0-.2-.2-.2-.4-.3-1.1,0-2.2.2-3.2.8-.3.2-.5.4-.8.5-.2.2-.2.5,0,.6.2.2.5.2.6,0h0c0,0,.2-.2.2-.2.2,0,.3-.2.5-.2.2,0,.3-.2.5-.2h.3c.2,0,.3,0,.5-.2h1.4l-.3-.8s-.5.4-.8.6h0c0,0-.2.2-.2.2-.2,0-.2.2-.4.3-.5.4-1.1.8-1.6,1.1-.2.2-.3.4-.2.6.2.2.4.3.6.2v-.2Z"/>
  <path class="st0" d="M199.7,269c1.4-.2,2.8-1,3.8-2,.3-.3.5-.7.8-1,.2-.3-.2-.8-.5-.6-1.4.4-2.7,1-3.9,1.8-.2.2-.3.3-.2.5,0,.2.3.3.5.2.3,0,.6-.2.9-.2.2,0,.4-.3.3-.5,0-.2-.3-.4-.5-.3-.4,0-.8.2-1.2.3-.2,0-.4.3-.3.5,0,.2.3.4.5.3.4,0,.8-.2,1.2-.3l-.2-.8s-.6.2-.9.2l.3.8c.6-.4,1.2-.8,1.8-1.1,0,0,.2,0,.2,0h.2c.2,0,.3-.2.5-.2.3-.2.7-.2,1.1-.3l-.5-.6s0,.2-.2.2h0q0,0,0,.2s-.2.2-.2.2c-.2.2-.5.5-.8.7h0s-.2,0-.2.2c-.2,0-.3.2-.5.3s-.3.2-.5.2h0s-.2,0-.2,0c-.4.2-.8.2-1.1.3-.2,0-.4.3-.3.5,0,.2.3.4.5.3l-.3.2Z"/>
  <path class="st0" d="M203.9,265.3c-.5.9-1.2,1.7-2,2.3-.8.7-1.6,1.2-2.4,1.7-1.7,1-3.6,1.7-5.4,2.5-1.1.5-2.1.9-3.1,1.4-.5.2,0,1,.5.8,3.6-1.8,7.6-3,10.8-5.5.9-.8,1.8-1.6,2.3-2.7.2-.5-.5-.9-.8-.5h0Z"/>
  <path class="st0" d="M200.5,267.9c-.5.2-.9.3-1.3.5,0,0,0,0-.2,0,0,0,0,0,0,.2s0,.2,0,.3c0,0,0,.2.2.2h.3c.5-.2.9-.3,1.3-.5,0,0,.2,0,.2-.2s0-.2,0-.3c0,0,0-.2-.2-.2s-.2,0-.3,0Z"/>
  <path class="st0" d="M200.5,267.9s-.4,0-.5.2c-.2,0-.3.2-.4.2,0,0-.2.2-.3.2,0,0,0,0,0,.2v.3s0,0,0,.2c0,0,.2.2.3.2s.2,0,.3-.2c0,0,.2,0,.2-.2h0s.3-.2.5-.2h0s.3,0,.4,0c0,0,0,0,.2,0,0,0,0,0,0-.2v-.3c0,0,0-.2-.2-.2h-.3,0Z"/>
  <path class="st0" d="M190.8,273l2.9-2.3c.9-.8,1.8-1.5,2.8-2.2.5-.3,1-.6,1.5-.8.5-.2,1.1-.2,1.7-.5.5-.2.9-.5,1.3-.8.4-.3.8-.8,1.3-1,.5-.2,1.2,0,1.7,0s1.1-.2,1.7-.5l-.5-.7c-1,1.1-2,2-3.4,2.6l.6.6c.3-.6.7-1.1,1.1-1.5.2-.2,0-.6-.2-.8-.5-.2-1.1-.2-1.6,0-.5.2-.3,1.1.2.8.4-.2.8-.2,1.1,0l-.2-.8c-.5.5-1,1.1-1.3,1.7-.2.4.2.8.6.6,1.4-.7,2.6-1.6,3.6-2.7.3-.4,0-.9-.5-.7-1,.5-2,.2-3.1.4-.5,0-.9.5-1.3.8-.4.4-.8.8-1.3,1-.5.2-1.1.3-1.6.5-.5.2-1.1.4-1.6.7-1,.6-1.9,1.4-2.8,2.1l-3.3,2.7c-.5.4.2,1,.6.6h0Z"/>
  <path class="st0" d="M173.6,280.5h3.2s0,0,.2,0c0,0,0,0,0,0v.2h0v.3h0v.5s0,.2,0,.2c0,0,0,0,0,.2,0,0-.2.2-.2.2,0,0,0,0-.2,0h0c-.2.2-.3.4-.2.6.2.2.4.3.6.2.4-.3.8-.6,1-1.1.2-.5.3-1,.2-1.5-.2-.5-.5-.9-1-1.1-.5-.2-1.1-.2-1.6-.2h-2s-.5.2-.5.5.2.5.5.5l.2.5Z"/>
  <path class="st0" d="M178.4,282.3c.2-.7,0-1.4-.4-2-.5-.5-1.3-.8-1.9-.5-.5.2-.4.8.2.8,1.1,0,2,0,3,.3l-.2-.6s-.4.2-.5,0v.8c.8-.4,1.8-.8,2.7-1.1.2,0,.4-.2.3-.5,0-.2-.2-.4-.5-.4-.7,0-1.4.2-2,.6-.3.2-.5.5-.8.8-.2.2-.3.5-.5.7l.6.2c-.2-1-1.2-1.3-2-1.4-1-.2-2-.2-3-.2s-.5.8,0,.8c.8,0,1.7,0,2.6.2.5,0,1.4.2,1.6.8,0,.3.4.4.6.2.3-.2.5-.5.7-.8.2-.2.4-.5.6-.7.5-.4,1-.6,1.6-.5l-.2-.8-2.9,1.1s-.5.6,0,.8c.6.4,1.4.2,1.7-.4.2-.2,0-.6-.2-.6-1.1-.2-2.2-.3-3.3-.3l.2.8s.8,0,1.1.3c.2.3.3.8.2,1.1,0,.2,0,.5.3.5.2,0,.5,0,.5-.3h0Z"/>
  <path class="st0" d="M170.4,237.6c-5.4.3-10.5,3.3-13.7,7.7l.8.5c.4-.7,1-1.2,1.7-1.7.7-.5,1.4-1,2.2-1.4,1.5-.9,3-1.7,4.6-2.3,1.6-.6,3.2-1.1,4.8-1.5,1.7-.4,3.4-.3,4.9-1.1.4-.2.2-.8-.2-.8-1.4,0-2.9-.2-4.3-.5-.5,0-.8.8-.2.8,1.5.3,3,.5,4.5.5l-.2-.8c-1.2.6-2.7.6-4,.8-1.4.2-2.7.5-4,1-2.7.9-5.1,2.2-7.4,3.7-1.2.8-2.5,1.5-3.2,2.8-.3.5.5.9.8.5,3-4.2,7.8-7,12.9-7.3.5,0,.5-.9,0-.8h0Z"/>
  <path class="st0" d="M162.8,241.5c2-1.6,4.4-2.6,6.8-2.8,2.4-.2,5.4.8,7.4-1.1.4-.4,0-.9-.5-.7-.8.4-1.7,0-2.5-.3-.9-.3-1.7-.6-2.7-.5-.5,0-.3.9.2.8,1-.2,1.9.4,2.8.7.9.3,1.7.4,2.6,0l-.5-.7c-1,.9-2.3,1-3.6.9-1.3,0-2.6-.2-3.9,0-2.5.4-4.8,1.4-6.7,3-.5.4.2,1,.6.6h0Z"/>
  <path class="st0" d="M172.3,237.6c.7-.2,1.4-.5,1.8-1.1.2-.2.2-.5,0-.7-.7-.4-1.4-.7-2.2-.8-.8-.2-1.6,0-2.3.2-1.7.2-3.3.2-4.9.2h-1.1c-.4,0-.8,0-1.1-.2-.2,0-.5-.3-.5-.5,0-.3,0-.7-.3-1-.2-.2-.5-.5-.5-.8,0-.3.4-.6.6-.8.5-.5,1.1-1.1,1.6-1.6,1.2-1.3,2.3-2.7,3.3-4,.3-.5-.5-.9-.8-.5-1,1.4-2,2.7-3.2,3.8-.5.6-1.1,1.1-1.7,1.7-.5.5-1.1,1.1-.8,1.9.2.3.5.4.5.7.2.4.2.8.3,1.1.4.6,1.1.9,1.7.9.9,0,1.8,0,2.6,0s1.7,0,2.6,0c1,0,2-.2,2.9-.4.9-.2,1.8.2,2.7.7v-.7c-.5.5-1,.8-1.5.9-.5.2-.3,1,.2.8h0Z"/>
  <path class="st0" d="M165.7,227.2c2-1.7,3.9-3.6,6-5.3,1-.9,2-1.7,3.2-2.4,1-.7,2-1.3,3-2,3.9-3,7-7.1,11.1-10.2,2.3-1.7,4.8-3,7.4-4.3.5-.2,0-1-.5-.8-2.3,1.1-4.5,2.3-6.5,3.7-2,1.4-3.8,3.1-5.5,4.8-1.8,1.8-3.7,3.6-5.7,5.3-2,1.7-4.2,2.7-6.1,4.3-2.3,2-4.6,4.1-7,6.1-.5.4.2,1,.6.6h0Z"/>
  <path class="st0" d="M196.1,203c5-3,10.3-6.1,16.3-6.5.5,0,.5-.9,0-.8-6.1.5-11.5,3.6-16.7,6.6-.5.3,0,1.1.5.8h0Z"/>
  <path class="st0" d="M212.2,196.5c3.2-.5,6.4-.2,9.4.9,1.5.5,3,1.3,4.5,2,1.5.7,3,1.4,4.5,2.2.5.2.9-.5.5-.8-1.6-.8-3.3-1.6-4.8-2.3-1.4-.7-3-1.4-4.5-2-3.1-1.1-6.4-1.4-9.7-.9-.5,0-.3.9.2.8h0Z"/>
  <path class="st0" d="M173.6,218.6c1.9-1.2,3.7-2.7,5.3-4.2l-2-1.6c-2,2.7-4.9,4.4-7.6,6.3-3.1,2.1-6.1,4.5-9,6.8-.9.7-.2,2.3.9,2.2.9,0,1.8,0,2.7,0l-1.1-2c-2.9,3.9-6.5,7-10.7,9.5-1.4.8-.4,2.7,1,2.3,2.5-.5,8.9-.5,7.7-4.6-.4-1.5-2.4-1.1-2.6.4-.3,2.8,2.3,4.5,4.8,4.7,3.1.3,6.4,0,9.5-.2,1.7,0,1.7-2.7,0-2.6-2.3,0-4.5,0-6.7.2-1.7,0-5.1.5-4.8-2.1l-2.6.4c.2.5-5.4,1.3-5.9,1.4l1,2.3c4.5-2.7,8.4-6.2,11.6-10.5.6-.8-.2-2-1.1-2s-1.8,0-2.7,0l.9,2.2c3.1-2.5,6.3-4.9,9.5-7.1,2.8-1.8,5.5-3.7,7.5-6.4.9-1.2-1.1-2.6-2-1.6-1.4,1.4-3,2.7-4.8,3.9-1.4.9,0,3.2,1.3,2.3h.2Z"/>
  <path class="st0" d="M159.2,237.4c1.7,0,1.7-2.6,0-2.6s-1.7,2.6,0,2.6Z"/>
  <path class="st0" d="M165.6,226.7l11.4-8.9c1.7-1.3,3.3-2.7,4.8-4.2,1.5-1.5,2.8-3.3,4.1-5,.8-1.1-.8-2.5-1.8-1.8-2.9,2-5.6,4.3-8.3,6.7l2,1.6c1.3-1.8,2.8-3.4,4.5-4.8,1.3-1.1-.6-2.9-1.8-1.8l-3.3,2.8c-1.1.9.4,3,1.6,2,2.3-1.7,4.4-3.6,6.4-5.5.9-.9,0-2.6-1.3-2.2l-5.2,1.8c-1.1.4-1.4,2.3,0,2.5,2.2.3,3.7-1.1,5.5-2.1,2-1.1,4-1.9,6.2-2.6l-1.3-2.2c-2,2.2-4.2,4.2-6.6,6.2-1.3,1.1.5,2.9,1.8,1.8,2.3-2,4.5-4,6.6-6.2.8-.9,0-2.6-1.3-2.2-1.7.5-3.5,1.2-5.2,2-.8.4-1.7.8-2.4,1.3-.6.4-2,1.5-2.7,1.4v2.5l5.2-1.8-1.3-2.2c-1.8,1.8-3.8,3.6-5.8,5.2l1.6,2,3.3-2.8-1.8-1.8c-1.9,1.6-3.5,3.4-4.9,5.4-.9,1.2,1,2.5,2,1.6,2.5-2.2,5.1-4.3,7.7-6.3l-1.8-1.8c-1.3,1.7-2.6,3.5-4.2,5-1.5,1.5-3.1,2.7-4.8,4l-11,8.6c-1.3,1.1.5,2.9,1.8,1.8h.2Z"/>
  <path class="st0" d="M191.1,205.2c1.3-1.1,2.6-2,4-3,1.2-.8.5-2.7-1-2.3-1.9.5-3.7,1.3-5.3,2.4-1.2.8-.5,2.7,1,2.3,4.1-1,7.9-2.7,11.3-5.2,1.1-.8.5-2.8-1-2.3-2.4.7-4.8,1.6-7.1,2.6-1.4.6-.4,2.8,1,2.3,4.4-1.4,8.8-3,12.9-5,1.4-.6.4-2.8-1-2.3-1.7.5-3.5,1-5.2,1.4l1,2.3c3.6-2,8.6-2.5,12.7-2.7,4.1-.2,8.3,1.1,11.9,3.3,1.4.9,2.7-1.4,1.3-2.3-3.9-2.5-8.5-3.9-13.2-3.7-4.7.2-10,.8-14,3-1.3.7-.4,2.8,1,2.3,1.7-.5,3.5-1,5.2-1.4l-1-2.3c-4,1.8-8.2,3.4-12.3,4.7l1,2.3c2.1-.9,4.2-1.7,6.5-2.3l-1-2.3c-3.3,2.3-6.8,3.9-10.6,4.8l1,2.3c1.4-1,3-1.7,4.7-2.1l-1-2.3c-1.6,1.1-3.1,2.2-4.5,3.4-1.3,1.1.6,3,1.8,1.8l-.2.2Z"/>
  <path class="st0" d="M151.3,238.8c3-.2,3.5,3.3,3,5.5-.8,3-2.6,5.7-2.7,8.9,0,1.7,2.6,1.7,2.6,0,.2-3.7,2.8-6.7,3-10.5.2-3.4-2.1-6.8-5.8-6.6-1.7,0-1.7,2.7,0,2.6Z"/>
  <path class="st0" d="M155.3,238.4v2.3c0,.3.2.7.4.9s.6.5.9.4c.4,0,.7-.2,1.1-.3.2,0,.4-.2.5-.4.4-.3.8-.5,1.1-.8.4-.2.8-.5,1.2-.7.2,0,.5-.2.7-.3h.2c.2,0-.2,0,0,0,.2,0,.2,0,.4-.2l-1-2.3-2.9,1.3c-.5.2-1.1.5-1.4,1.1-.2.3-.2.7-.3,1.1v.3c-.2.9.6,2,1.6,1.6,1.2-.5,2.3-.9,3.5-1.5l-1.3-2.3c-.8.5-1.6.8-2.3,1.4-.8.7-1.5,1.4-1.9,2.4-.2.3,0,.8.2,1,.2.2.5.5.8.6.8.2,1.4-.2,1.6-.9,0-.2,0,0,0,0v-.2s0-.2,0-.2c0,0,.2-.2.2-.2v.2-.2c.2-.2.2-.2.4-.4,0,0,.2-.2.2-.2s0,0-.2,0c0,0,0,0,.2,0,.7-.5,1.4-.8,2.1-1.2.6-.4.8-1.2.5-1.8-.4-.6-1.1-.8-1.8-.5-.5.2-1,.5-1.5.8h-.2c0,0,.3-.2,0,0-.2,0-.2,0-.4.2-.3,0-.5.2-.8.3l1.6,1.6s0-.5,0-.8v-.2c0-.2,0,0,0,.2v-.2.2s-.2.2-.4.3h.2c0,0,.2,0,.3-.2l.6-.3,2.7-1.2s.5-.5.6-.8c0-.2,0-.6,0-.8-.2-.5-.9-1-1.5-.8-.9.4-1.8.8-2.6,1.3-.4.2-.8.5-1.1.8-.2.2-.4.2-.5.4,0,0-.2,0-.3.2q.2,0,0,0c-.2,0,0,0,.2,0l1.3,1.3c0-.8,0-1.5,0-2.3,0-.7-.6-1.4-1.3-1.3-.8,0-1.2.6-1.3,1.3Z"/>
  <path class="st0" d="M191.4,240.5c2.3.6,4.5,1.3,6.7,1.8,1.8.5,3.9.7,5.1-1,1.2-1.7.3-3.9-.2-5.6-.3-1.1-.6-2.1-.9-3.2-.3-1.1-1-2.4-1.1-3.6l-.4.9h.2s-.6.2-.9.3c-.4-.2-.4,0,0,0,.2.2.4.2.5.4.2.2.5.5.8.7.5.5,1.1,1.1,1.5,1.7.9,1.2,1.8,2.4,2.8,3.6,1,1.1,2.3,2.3,3.7,2.6.8.2,1.6,0,2.2-.5.2-.2.5-.5.6-.7,0-.2.2-.4.2-.6,0-.4,0-.5,0-.2l-1.1.7s1,.6,1.4.8c.5.2,1.1.4,1.6.3,1.1,0,2.1-.8,2.5-1.9,1-2.5.5-5.8-.2-8.4-.4-1.7-2.9-.9-2.5.7.5,1.8.6,3.7.5,5.6,0,.9,0,1.6-1.1,1.1-.8-.4-1.3-.8-2.1-.8-.5,0-.9.3-1.1.7l-.3.9c0,0-.6-.4-.8-.5-.6-.4-1.1-.9-1.6-1.4-.9-1-1.7-2.1-2.5-3.2-.9-1.2-4.2-5.6-6-3.6-.5.6-.4,1.3-.2,2,.2.9.5,1.8.8,2.7.5,1.8,1.1,3.6,1.6,5.5.2.7.5,1.6-.4,1.9-.8.2-2-.3-2.8-.5l-5.8-1.6c-1.6-.5-2.3,2-.7,2.5l-.2-.2Z"/>
  <path class="st0" d="M202,244.2c2.3,0,4.1-1.9,4.1-4.1s-.7-2.7-1.1-3.9c-.5-1.3-.9-2.7-1.4-3.9l-2.3,1c1.2,2.8,2.7,5.5,5.1,7.4,2.4,1.9,5.5,2.8,8.4,1.8l-1.4-1.9c-1.4,1.8-2.8,3.6-4.2,5.4l1.8-.5c-2.2-1.1-4.4-2.1-6.5-3.3l.2,2s.9-.3,1.2-.4c.6-.2,1.1-.5,1.4-1.1.7-1.1.4-2.3-.6-3-1.1-.8-2.4.7-1.8,1.8.9,1.4,2,2.8,3.2,4,1.1,1.1,2.6-.3,2-1.6-.5-1-.9-2-1.4-2.9l-2,1.6c.7.8,1.5,1.4,2.4,1.8.9.5,2,0,2-1.1s-.2-1.2-.5-1.8c-.7-1.3-2.9-.5-2.3,1,.4,1.1,1.1,3.1,2.6,3,.8,0,1.4-.7,2-1.1.6-.5,1.3-.9,1.9-1.4,1.1-.8.5-2.8-1-2.3-2,.6-3.9,1.3-5.8,2.1l1.3,2.3,9-6.6c1.4-1,.2-3-1.3-2.3-1.8.8-3.6,1.5-5.6,2-.9.2-1.9.5-2.8.5-.5,0-.9,0-1.4,0h-.6c-.2,0-.3,0-.4,0-.2,0-.2,0,.2.2v.7c-1,.3-1.2.5-.7.5.2,0,.3,0,.5,0,.3,0,.5,0,.8.2.6.2,1.2.2,1.7.4,1.4.3,2.3-1.6,1-2.3-1-.6-2-1.2-3-1.8l-1.3,2.3c2.6,1.4,5.5,2.7,8.4,3,1.4.2,2.7-.4,3.7-1.4,1.1-1.2,2.1-2.6,3.1-3.9.5-.5.5-1.3,0-1.8-.5-.5-1.4-.5-1.8,0-.9,1.1-1.7,2.2-2.6,3.3-.8.9-1.3,1.4-2.6,1.1-2.4-.4-4.7-1.5-6.9-2.6-1.5-.8-2.7,1.4-1.3,2.3,1,.6,2,1.2,3,1.8l1-2.3c-1-.2-1.9-.4-2.9-.6-.9-.2-1.8-.2-2.3.6-.5.8-.4,1.7.2,2.4.6.7,1.6.8,2.5.8,1.9.2,3.9-.4,5.7-.8,2-.5,3.9-1.3,5.8-2.1l-1.3-2.3-9,6.6c-1.4,1-.2,3,1.3,2.3,1.7-.8,3.4-1.4,5.1-1.9l-1-2.3c-1.1.8-2,1.6-3.2,2.3l.7-.2h-.2s.5.2.7.2c.2.2.2.3,0,0,0-.2-.2-.3-.2-.4-.2-.3-.2-.5-.4-.8l-2.3,1s.2.2.2.5l2-1.1c-.8-.4-1.4-.8-1.9-1.4-1-1.1-2.8.3-2,1.6.5.9,1.1,1.9,1.4,2.9l2-1.6c-1.1-1.1-2-2.2-2.8-3.5l-1.8,1.8s-.4-.5-.2-.7h-.2s-.7.2-.8.2c-.6.2-1.1.4-1.5.8-.6.5-.5,1.7.2,2,2.1,1.1,4.3,2.2,6.5,3.3.7.3,1.3.2,1.8-.5,1.4-1.8,2.8-3.6,4.2-5.4.7-.9-.5-2.3-1.4-1.9-5.3,1.8-8.9-4-10.6-8.1-.6-1.4-2.9-.4-2.3,1,.7,1.8,1.3,3.7,2,5.5.2.7.6,1.4.3,2.2-.2.6-.8.9-1.4.9-1.7,0-1.7,2.5,0,2.6l-.2-.2Z"/>
  <path class="st0" d="M215.3,239.9c2-2,2.2-5.4,1.7-8.1-.2-1.4-.9-2.5-2-3.5-1.3-1.3-2.4-2.5-3.3-4.1l-.5,1.8c.6-.4,1.7,0,2.4-.2.8-.2,1.2-.8,1.5-1.5.8-1.8.5-4.2,0-6l-2.2,1.3c2.2,2.5,3.3,5.9,5.9,8,1.1.9,2.5,1.2,3.7.2,1.4-1.1,1.5-2.9,1.3-4.5l-2.6.4c4.7,11.2,12.7,20.3,21,29,1.1,1.2,3-.6,1.8-1.8-7.9-8.3-15.8-17.1-20.3-27.9-.5-1.2-2.7-1.3-2.6.4,0,.5.2,1,0,1.5-.2,1.2-.7.8-1.4.4-.8-.6-1.4-1.7-2-2.6-1.1-1.7-2-3.3-3.3-4.8-.9-1-2.5,0-2.2,1.3.2.8.8,3.9-.2,4.4-.3.2-1,0-1.3,0-.5,0-.9.2-1.4.5-.6.4-.8,1.1-.5,1.8.6,1,1.2,2,2,2.9.8.9,1.9,1.6,2.5,2.6,1.1,1.7.9,5.7-.5,7.1-1.2,1.2.7,3,1.8,1.8l.2-.3Z"/>
  <path class="st0" d="M233.5,240.3c-1.3-1.3-2.9-2-4.5-2.9-1.3-.8-2.6-1.9-2.8-3.5l-2,1.1c1.4.8,2.8,1.8,4,3l1.6-2c-1.6-1.1-3-2.7-4.1-4.3-1.1-1.6-2.6-3.4-2.6-5.5l-2.4.7c.6.8,1,1.7,1.4,2.7.3.8.8,1.9.8,2.8s-.6,1.1-1.4,1.3c-1,.2-1.9.5-2.7.9-1.1.6-.7,2.5.7,2.4,1.7-.2,3.5-.2,5.1-.4,1.7-.2,1.7-2.5,0-2.6-2.9-.2-5.8.2-8.6,1l1.4,1.9c2.1-2.8,4.7-5.3,7.4-7.5l-2.2-1.3c-.7,2-1.7,3.9-2.9,5.8l2.3.3c-.4-1-1-1.7-2-1.9-1.1-.2-2,.3-2.5,1.2l2.3,1.3c.8-1.6,1.4-3.3,2-4.9.3-1-.7-1.8-1.6-1.6-2.2.5-3,2.7-3.2,4.7l2.2-.6c-1.1-1.2-1.5-3-2.6-4.3-.3-.4-.5-.7-.9-1-.2,0-.2-.2-.4-.3,0,0-.2-.2-.3-.2-.2-.2,0-.2,0,0,0,.3.3-.3.4-.4.2-.2.2-.5.3-.8.2-.5.3-1.1.4-1.7l-2.4.7c1.5,2.3,3.4,4.2,5.7,5.8l-.2-2c-.5.5-1.1-.8-1.3-1.1-.5-.8-.9-1.6-1.6-2.2-.6-.5-1.6-.5-2,.2-.3.5-.4,1.1-.2,1.7.3,1.7,2.8,1,2.5-.7v.3c-.7,0-1.4.2-2,.2,1.1.9,1.4,2.5,2.6,3.4s2.9.9,3.9-.2c.6-.7.5-1.6-.2-2-1.9-1.3-3.5-3-4.8-4.8-.8-1.1-2.3-.6-2.4.7-.2,1.1-1.1,2-1,3.2.2,1.1,1.1,1.6,1.8,2.3,1.4,1.4,1.7,3.6,3.1,5,.6.7,2,.4,2.2-.6.2-1,.2-2.7,1.4-2.9l-1.6-1.6c-.5,1.4-1.1,2.9-1.7,4.3-.7,1.5,1.4,2.7,2.3,1.3-.2.2-.3,0-.2,0,.5,1.1,1.7,1.3,2.3.3,1.4-2,2.3-4.2,3.2-6.4.5-1.4-1.3-2-2.2-1.3-3,2.3-5.6,5-7.9,8-.7.9.5,2.2,1.4,1.9,2.6-.8,5.1-1.1,7.8-.9v-2.6c-1.7.2-3.5.2-5.1.4l.7,2.4c1-.6,2.3-.6,3.3-1.1,1.1-.5,1.9-1.5,2-2.8.2-1.3-.3-2.4-.7-3.6-.5-1.3-1-2.6-1.7-3.7-.7-1-2.4-.8-2.4.7,0,2.6,1.5,4.8,3,6.8,1.4,2,3,3.8,5,5.3,1.2.9,2.6-1.1,1.6-2-1.4-1.3-2.9-2.4-4.5-3.3-.8-.5-2,0-2,1.1.2,2,1.3,3.7,2.9,4.9,1.6,1.2,3.6,1.9,5.1,3.3,1.2,1.1,3-.7,1.8-1.8v.2Z"/>
  <path class="st0" d="M165.3,237.2c-4.5,2.7-8.7,5.6-10.7,10.7-2.2,5.5-1.5,11.7,0,17.3,1.4,5.2,4.1,9.4,8.8,12.1,5,3,10.9,3.6,16.6,4,1.7.2,1.7-2.5,0-2.6-5-.4-10.2-.9-14.8-3.3-4.5-2.4-6.8-6.1-8.1-10.9s-2-10.1-.3-14.9c1.7-4.8,5.7-7.6,9.8-10.1,1.4-.8.2-3.1-1.3-2.3Z"/>
  <path class="st0" d="M156.3,246.7s0-.4,0-.2,0-.2,0-.2c0-.2.2-.4.2-.6.2-.5.2-1.1,0-1.6-.2-.9-.9-1.4-1.4-2,0,0-.2-.2,0,0,0,.2,0-.2,0-.2,0,0,0-.4,0-.2,0,.2,0-.2,0-.2v-.3c0,0,0-.2,0-.3,0,0,0-.2,0-.2,0,0,0-.2.2-.2,0,0,0-.2.2-.2.2-.4,0,0,0-.2.2-.3.6-.6.9-.9.5-.5.5-1.4,0-1.8-.5-.5-1.3-.5-1.8,0-1.5,1.3-2.7,3.3-2,5.4.2.5.5.9.8,1.4.2.2.3.3.4.5,0,0,.2.2.2.2,0,0,.2.3,0,.2,0-.2,0,.3,0,0,0,.2,0,.3,0,.4-.2.5-.3,1-.2,1.5,0,.7.5,1.4,1.3,1.3.7,0,1.4-.6,1.3-1.3v-.2Z"/>
  <path class="st0" d="M155.3,239.7c-.6-.3-1.1-.5-1.7-.8-.3-.2-.5-.3-.8-.5-.2-.2-.5-.2-.8-.5l.2.2.2.2s0,.2.2.3v.6s0,.2-.2.2c0,0-.2.2-.2.2h0c0,0-.2.2-.2.2.8-.6,1.7-1.1,2.6-1.5.3-.2.5-.5.6-.8,0-.3,0-.8-.2-1-.2-.2-.5-.5-.8-.6h-.4s-.5,0-.7.2c-.6.2-1.1.5-1.7.9-.3.2-.5.4-.8.5-.3.2-.5.4-.7.7-.2.5-.3,1,0,1.4.3.5.7.7,1.1.9.3.2.6.3.9.5.6.3,1.2.6,1.9.9.3.2.7.2,1,.2.3,0,.6-.3.8-.6.2-.3.2-.7.2-1,0-.3-.3-.6-.6-.8v-.2Z"/>
  <path class="st0" d="M150.1,237.6c-.7.2-1.3.5-2,.8-.3.2-.6.3-.8.5s-.5.8-.3,1.2c.3.8,1.1,1,1.8.9.4,0,.7-.2.9-.2h.2c-.2,0,.2,0,0,0h.2c0,0,0,0,0,0,0-.2,0,0,0,0,0,.4,0,.8.2,1.1.3.5.9.8,1.4.9.2,0,.4,0,.6.2-.2,0,.2.2,0,0h.2l.2.2s0,0,0,.2c0,0,.2.2.2.3v.2c0,.2,0,.3,0,.5,0-.2,0,.2,0,.2v.8c0,.4,0,.8-.2,1.1,0,.8-.2,1.6,0,2.4,0,.5.7.8,1.1.6.5-.2.7-.6.6-1.1,0,0,0,0,0-.2v-.6c0-.3,0-.7,0-1,0-.6.2-1.2.2-1.8,0-1.2-.5-2.4-1.4-3.2-.4-.3-.9-.4-1.4-.5h-.4q0,0,0,0c0,.2,0-.2,0-.2,0,.2,0,0,0,0,0-.7-.2-1.3-.8-1.7-.5-.4-1.2-.3-1.8-.2h-.2s-.3,0-.2,0h-.5q0,0,0,0c.2.2.2.4,0,.6v.2s-.2,0,0,0,.2,0,.2-.2c.6-.3,1.2-.5,1.8-.8.5-.2.8-.6.6-1.1-.2-.4-.6-.8-1.1-.6l.5.3Z"/>
  <path class="st0" d="M151.5,240.6s0,.2,0,.2h0c0,0,0,.2.2.3h0c0,0,.2.2.2.2,0,0,.2,0,.2,0,0,0,.2,0,.2,0l.5-1.6h-.4.2-.5l-.2,1.7h.6c0,0,.2,0,.3-.2,0,0,.2-.2.2-.3s0-.2,0-.3v-.2s-.2-.3-.2-.4l-.2-.2s-.3-.2-.5-.2h-.6c0,0-.2,0-.3.2l-.2.2s0,.2,0,.3v.2c0,.2,0,.2,0,.3l.2.2s.2.2.4.2c.2,0,.3,0,.5,0h.9s.2,0,.3-.2c0,0,.2,0,.2-.2,0,0,.2-.2.2-.3v-.5c0,0,0-.2-.2-.3,0,0-.2-.2-.2-.2-.2,0-.3-.2-.5-.3l.2.2s-.2-.2-.2-.2l.2.2s0,0,0-.2v.2c0,0,0-.2-.2-.3,0,0-.2-.2-.2-.2,0,0-.2,0-.3,0h-.6s-.2.3-.3.4v.2s-.2.3,0,.5l.3.3Z"/>
  <path class="st0" d="M158.7,229.6v-.2.2-.8.2s0-.5.2-.8v.2s.2-.5.4-.8l-.2.2s.5-.5.8-.8l-.2.2c.5-.4,1.1-.7,1.7-.9l-1.3-1v.2-.2s-.2.4-.3.6c-.2.2-.3.4-.5.6l.2-.2c-.5.8-1.1,1.4-1.7,2.1-.2.2-.2.4-.2.6s0,.5.2.6.4.2.6.2.5,0,.6-.2c.5-.5,1-1.1,1.4-1.7.3-.3.5-.7.8-1.1.3-.4.5-.7.6-1.1,0-.4,0-.7-.3-.9-.2,0-.2-.2-.4-.2h-.2c-.2,0-.2,0-.3,0-.8.3-1.5.8-2.1,1.3-.6.5-1.1,1.4-1.3,2.2-.2.6-.2,1.1,0,1.7,0,.2.2.5.4.5.2,0,.5.2.7,0,.2,0,.4-.2.5-.4.2-.2.2-.5,0-.7h-.2Z"/>
  <path class="st0" d="M157.1,232.7l-.2.2.5-.5c.2-.2.5-.5.6-.7.3-.5.5-1,.7-1.5v.2s.2-.5.3-.8l-.2.2s.2-.2.3-.3l-.2.2s0,0,.2,0c.2,0,.3-.3.4-.5,0-.2,0-.5,0-.7,0-.2-.3-.4-.5-.4s-.5,0-.7,0c-.5.3-.8.7-1,1.1-.2.5-.4.9-.5,1.3v-.2s-.2.5-.3.7l.2-.2s-.3.3-.5.5c-.2.2-.4.4-.6.6-.2.2-.2.5,0,.7,0,.2.2.5.4.5.2,0,.5.2.7,0h.2s.2-.3.3-.4Z"/>
  <path class="st0" d="M177.9,212.3v.2-.2.2-.2l-.2.2s.4-.4.6-.6c.2-.3.5-.6.6-.9.2-.3.3-.7.4-1.1,0-.4.2-.8.2-1.1v-.2s0-.2-.2-.3c0-.2-.3-.3-.5-.3h-.5c-.2,0-.5.2-.5.4,0,.2-.2.5-.2.7,0,.2,0,.3,0,.5,0,.3,0,.7-.2,1v-.2s0,.4-.2.5l.2-.2s-.5.6-.8.8l1.4.8v-.2.2s.2-.5.3-.7l-.2.2s.4-.5.5-.8c.2-.4.3-.8.4-1.2v-1.9s-.2-.5-.3-.6c-.2-.2-.4-.2-.6-.2s-.5,0-.6.2c-.2.2-.3.4-.2.6v1.1s0,.7,0,1v-.2s0,.3,0,.5v-.2s-.2.5-.4.7l.2-.2c-.3.4-.6.8-.8,1.3v.5c0,.2.2.3.4.4.4.2.8.2,1.1-.2.5-.5,1-.9,1.3-1.6,0-.2.2-.4.2-.6,0-.2,0-.3,0-.5,0-.3,0-.7.2-1v.2l-1.6-.5v.4-.2c0,.5-.2.9-.3,1.4v-.2s-.2.5-.3.7l.2-.2s-.4.4-.5.5c-.2.2-.2.3-.3.5-.2.2-.2.5-.2.8,0,.2.2.5.2.6.2.2.4.2.6.2s.5,0,.6-.2l.2-.2s.2-.3.2-.5h-.2Z"/>
  <path class="st0" d="M257.7,265.6c.4.3.8.7,1.1,1.1.2.2.4.4.5.6,0,0,.2.2.2.3,0,0,0,0,.2.2h0c.6.9,1.1,1.8,1.6,2.8h0c0,0,0,.2,0,.3,0,.2,0,.3.2.4,0,.3.2.6.3.9.2.5.6.8,1.1.6.5-.2.8-.6.6-1.1-.6-2.2-1.7-4.2-3.3-6-.4-.5-.8-.8-1.4-1.3-.2-.2-.4-.2-.6-.2s-.5,0-.6.2c-.3.3-.4.9,0,1.2h0Z"/>
  <path class="st0" d="M262,263.4c.5.4.8.8,1.1,1.2,0,0,0,.2.2.2,0,.2.2.2.2.4.2.2.3.5.5.7.2.2.3.5.4.8,0,0,0,.2,0,.2h0c0,0,0,.2,0,0,0,.2,0,.3.2.4.2.5.4,1.1.5,1.7.2.6.3,1.3.4,2,0,.5.7.8,1.1.6.5-.2.7-.6.6-1.1-.4-2.3-1.1-4.8-2.6-6.7-.5-.5-.9-1.1-1.4-1.5-.4-.3-.9-.4-1.2,0-.3.3-.4.9,0,1.2h0Z"/>
  <path class="st0" d="M249.7,261.9v1.7c0,0,0,.2.2.3,0,0,.2.2.3.2s.2,0,.3,0h.2s.3-.2.4-.2l.2-.2s.2-.3.2-.5v-1.7c0,0,0-.2-.2-.3,0,0-.2-.2-.3-.2s-.2,0-.3,0h-.2s-.3.2-.4.2l-.2.2s-.2.3-.2.5Z"/>
  <path class="st0" d="M248.4,259.2c.5.7,1.2,1.2,2,1.5.5.2,1,.3,1.5.4h1.4c.5,0,1.1-.3,1.5-.5.4-.2.5-.8.3-1.2-.2-.4-.8-.5-1.2-.3,0,0-.2,0-.3.2h.2s-.7.2-1.1.2h.2-1.1.2s-.7,0-1.1-.2h.2s-.7-.2-1-.5l.2.2s-.6-.5-.8-.8c-.2-.2-.5-.2-.6-.2-.2,0-.5,0-.6.2-.2.2-.2.4-.2.6v.2s.2.3.2.4h0Z"/>
  <path class="st0" d="M253.1,261.5c1.4-.8,2.7-1.9,3.8-3,.3-.3.7-.6,1-.9.3-.3.3-.9,0-1.2-.4-.3-.8-.3-1.2,0-.9.8-1.9,1.7-2.9,2.5l.2-.2c-.5.5-1.1.8-1.7,1.2-.4.2-.5.8-.3,1.2.2.5.8.5,1.2.3Z"/>
  <path class="st0" d="M259,257c1-.5,1.7-1.4,2.3-2.3.6-1.1.8-2.3.9-3.6v-2.1c0-.5-.4-.9-.8-.8-.5,0-.9.4-.8.8,0,.6,0,1.1,0,1.7v1.1h0c0,.2,0,.4,0,.5,0,.2-.2.5-.2.8,0,.2,0,.2-.2.3h0c0,0,0,0,0,0,0,0,0,.2,0,.2,0,.2-.2.5-.4.6,0,0-.2.2-.2.3,0,.2,0-.2,0,0,0,0,0,0-.2.2-.2.2-.4.4-.5.5h0s-.2,0-.2.2c0,0-.2.2-.4.2-.4.2-.5.8-.3,1.2.3.5.8.5,1.2.3h-.2Z"/>
  <path class="st0" d="M258.9,257.1c.4,0,.8-.2,1.2-.2h-.2c1.1,0,2.1-.2,3.2-.2s.9-.4.8-.8c0-.5-.4-.8-.8-.8-1.5,0-3.1,0-4.6.4-.2,0-.5.2-.5.4,0,.2-.2.5,0,.7,0,.2.2.4.4.5.2.2.5.2.7,0Z"/>
  <path class="st0" d="M160.8,316.2c.6,4.3,0,8.8-1.8,12.7-.8,1.8-1.8,3.6-3,5.2-.5.8-1.1,1.6-1.8,2.3-.5.5-1.4,2-2.1,2.1h.7c-.8-.3-1.4-1.7-1.7-2.5-.5-.9-1-1.8-1.4-2.7-.9-1.9-1.6-3.9-2.3-5.9s-1.4-4.2-1.9-6.4c-.4-2-.9-4.6.3-6.4.9-1.4,2.6-2.6,2.8-4.4.2-1.5-.8-2.8-2.2-3.3-.4-.2-.8-.2-1.1-.3-.6-.2-.5-.2-.6-.9-.2-1.1-.3-2.2-.4-3.3,0-2.3.2-4.5.8-6.7.3-1,.5-2.3,1.7-2.2s2.5.4,3.7.6c2.5.6,4.8,1.4,7.1,2.6,1,.5,1.9-1,.9-1.5-3.1-1.5-6.4-2.7-9.8-3.2-1.2-.2-2.6-.6-3.8.2-1.1.8-1.4,2.4-1.7,3.6-.8,3.3-.8,6.7-.3,9.9.2,1.4.4,2.3,1.9,2.5.7.2,1.6.3,2,1,.5,1-.5,2-1.1,2.8-.8.9-1.6,1.9-2,3-.5,1.6-.3,3.3,0,4.9.5,3.5,1.7,6.9,3,10.2,1.1,3,2.4,6,4.2,8.6.7,1,1.4,1.9,2.6,1.1,1.3-.8,2.3-2.5,3.3-3.6,4.5-5.8,7-13.1,5.9-20.5-.2-1.1-1.8-.6-1.7.5h0Z"/>
  <path class="st0" d="M159.6,300.5c0-2,0-4.3-1.5-5.8-.8-.8-1.8-1-2.9-1.3-1.1-.3-2.1-.6-3.2-.8l-.5,1.7c3.9.8,8.5,2.1,11.8-.7l-1.2-1.2c-2.4,2.9-3.8,6.4-3.9,10.2h1.7c-.2-1.4-.3-2.7-.4-4.1,0-.6-.2-1.2,0-1.7,0-.2,0-.4.2-.6,0-.2.2-.2.3-.2l-1.1-1.1c0,.5-.2.9-.2,1.3s0,.8.5,1.1c.4.2.8,0,1.1-.4.3-.6.7-1.1,1.2-1.5l-1.4-1.1-1.6,2.5c-.5.8.7,1.7,1.4,1.1.5-.5,1.1-1,1.8-1.3.3-.2.7-.2,1-.3.4,0,.8-.2,1.2-.4.8-.5,1.1-1.5,1.6-2.3.5-.8.9-1.7,1.4-2.4.5-.8-.7-1.8-1.4-1.1-1.1,1.2-2.2,2.5-3.3,3.7-.3.4-.4.9,0,1.2.3.3.9.4,1.2,0,1.1-1.2,2.2-2.5,3.3-3.7l-1.4-1.1c-.5.8-.9,1.6-1.4,2.4-.2.4-.5.8-.7,1.1-.2.2-.2.5-.5.6-.8.2-1.5.4-2.2.8-.7.4-1.4.8-2,1.4l1.4,1.1,1.6-2.5c.5-.8-.7-1.7-1.4-1.1-.5.5-1.1,1.2-1.4,1.9l1.6.7c0-.5.2-.9.2-1.3,0-.6-.4-1.3-1.1-1.1-1.5.5-1.9,2.1-1.8,3.6.2,1.6.3,3.2.5,4.8,0,.5.4.8.8.8s.8-.4.8-.8c.2-3.3,1.4-6.4,3.5-8.9.8-.8-.4-2-1.2-1.2-1.3,1.1-2.9,1.2-4.5,1.1-1.9,0-3.8-.5-5.7-.9-.5,0-.9.2-1.1.6-.2.5.2,1,.6,1.1,1,.2,1.9.5,2.9.8.8.2,1.7.4,2.3.8,1.3,1.1,1.1,3.1,1.1,4.6,0,.5.4.8.8.8s.8-.4.8-.8h0Z"/>
  <path class="st0" d="M147.4,307.5c-1.3-1.4-1.9-3.5-2-5.4,0-2.3.5-4.6,1.4-6.7.2-.5-.2-1-.6-1.1-.5-.2-.9.2-1.1.6-.9,2.3-1.6,4.9-1.4,7.4.2,2.3.9,4.6,2.5,6.4.3.4.9.3,1.2,0,.4-.4.3-.9,0-1.2h0Z"/>
  <path class="st0" d="M146,296.8c.2-1,.7-1.8,1.4-2.3l-1.1-1.4c-1,1.2-1.7,2.6-2.2,4l1.7.5c.2-.9.8-1.6,1.6-2.1.9-.5,2-.7,3.2-.5,1.3,0,2.6.5,3.9.8,1.1.3,1.9.8,2.5,1.7.6.8,1.1,2,1.1,3s1.7,1.1,1.7,0c0-2.7-1.7-5.2-4.2-6.2-.8-.3-1.5-.5-2.3-.6-.8-.2-1.6-.3-2.3-.5-1.4-.2-3,0-4.2.6-1.3.6-2.3,1.8-2.7,3.3-.2,1.1,1.4,1.5,1.7.5.4-1.2.9-2.3,1.7-3.3.3-.3.4-.8,0-1.1-.2-.3-.8-.5-1.1-.2-1.1.8-2,2-2.3,3.4,0,.5.2.9.6,1.1.5.2,1-.2,1.1-.6h.2Z"/>
  <path class="st0" d="M146.1,293.5l8.3.4c.6,0,1.2,0,1.7,0,.3,0,.9.2,1.2.3.5.2.7.5.9.8s.3,1.1.4,1.6c0,.5.7.8,1.1.6.5-.2.7-.6.6-1.1-.2-1-.5-2-1.1-2.8-.7-.7-1.6-1-2.5-1.1-1.1-.2-2.1-.2-3.2-.2l-3.4-.2-3.9-.2c-.5,0-.8.4-.8.8s.4.8.8.8h0Z"/>
  <path class="st0" d="M158,294.9c.8.2,1.5.3,2.3.3s.8,0,1.2,0c.4,0,.8-.2,1.1-.4.2,0,.4-.3.4-.5s0-.5,0-.7c0-.2-.3-.4-.5-.4s-.5,0-.7,0h-.2.2s-.7.2-1,.2h.2-1.8.2s-.7,0-1.1-.2c-.2,0-.5,0-.7,0-.2,0-.4.3-.4.5s0,.5,0,.7c.2.2.3.4.5.4h0Z"/>
  <path class="st0" d="M168.1,312.4l-3,1.6s-.5.2-.7.5c-.3.3-.3.7-.3,1.1v1.7c0,.6.5.9,1.1.8.5,0,.8-.4,1.1-.7.2-.2.5-.5.8-.7.5-.5,1-1,1.4-1.4,1-1,1.9-2,3-2.8.2-.2.3-.2.5-.4-.2.2,0,0,0,0,0,0,.2-.2.2-.2.3-.2.6-.5,1-.6.4-.2.5-.8.3-1.2-.2-.5-.8-.5-1.2-.3-2.4,1.4-4.2,3.6-6.1,5.5-.3.2-.5.5-.8.8-.2.2-.3.3-.5.4h0c0,0,0,0-.2,0l1.1.8v-2l-.2.2c.2,0,.5-.2.7-.4l2.7-1.4c.4-.2.5-.8.3-1.2-.2-.4-.8-.5-1.2-.3v.2Z"/>
  <path class="st0" d="M203.1,266.6c1-.3,2-.8,2.6-1.6l-1.4-1.1h0c0,0,.2,0,0,0,0,0,.2,0,0,0,0,0,0,0-.2,0h-.2c-.5,0-.8.2-1.3.4-.9.4-1.7.8-2.6,1.4-.5.3-.9.6-1.4.9-.2.2-.3.3-.4.5,0,.2,0,.5,0,.7.2.4.8.6,1.2.3.8-.6,1.6-1.1,2.4-1.6.2-.2.4-.2.6-.3,0,0,.2,0,.3-.2h.2c0,0,0,0,0,0h.2c.5-.2.8-.3,1.3-.4.6-.2,1.1-.5,1.4-1,.2-.4.2-.8-.2-1.1-.3-.2-.8-.2-1.1,0-.2.2-.3.3-.5.5,0,0,0,0-.2,0,0,0-.2.2-.3.2-.2,0-.4.2-.5.3-.2,0,.2,0,0,0h-.2c0,0-.2,0-.3,0-.5.2-.8.6-.6,1.1.2.5.6.8,1.1.6v.2Z"/>
  <path class="st0" d="M214.9,192.6c-2-4-3.1-8.5-3.3-13,0-.5-.4-.8-.8-.8s-.9.4-.8.8c.2,4.8,1.4,9.5,3.5,13.9.2.5.8.5,1.2.3.5-.2.5-.8.3-1.2h0Z"/>
  <path class="st0" d="M252.3,169.8c3.4,1.4,5.5,4.7,6.6,8.1,1.4,4.3,1,8.9.5,13.4,0,.5,0,1-.2,1.5-.2.8-.3.9-1.1.9-1.1,0-2.3.2-3.5.2-2.4,0-4.8,0-7.3,0-4.8,0-9.5-.4-14.2-.9-4.4-.5-9.2-1.7-13.2.7-1,.6,0,2,.9,1.5,2-1.2,4.2-1.4,6.4-1.1,2.4.2,4.8.6,7.1.8,5.2.5,10.4.8,15.6.8s5.2,0,7.8-.2c.8,0,1.8,0,2.5-.6.8-.7.8-1.8.8-2.8.5-4.8.9-9.8-.5-14.5-1.2-4.1-3.8-7.8-7.8-9.5-1.1-.5-1.5,1.3-.5,1.7h0Z"/>
  <path class="st0" d="M211.3,180.1c2.7-2,5.5-3.9,8.5-5.6,2.7-1.7,5.5-3.7,8.7-4,3.3-.3,6.3-.9,9.5-1.4,3.2-.5,6.6-.8,9.8,0,1.1.3,1.5-1.4.5-1.7-3.2-.9-6.5-.7-9.8-.2-3.5.5-6.8,1.2-10.4,1.5-3.3.3-6.1,2.3-8.8,3.9-3,1.8-6,3.8-8.9,5.8-.9.6,0,2.1.9,1.5h0Z"/>
  <path class="st0" d="M255.1,142.3c.8-2.7,2.8-5,5.4-6.1,1.2-.5,3.1-1.1,4.3-.3,1.2.8,1.7,2.6,2,3.9,1.7,6.5,1.2,13.7-1.6,19.8-1.7,3.6-4,6.7-6.3,9.9-.7.9.8,1.7,1.5.9,2.3-3.3,4.8-6.5,6.4-10.2,1.7-3.6,2.5-7.3,2.6-11.1.2-3.8-.2-7.7-1.4-11.1-.5-1.4-1.2-3-2.6-3.7-1.5-.8-3.4-.5-4.9,0-3.4,1.3-6,4.2-7,7.6-.3,1.1,1.4,1.5,1.7.5h0Z"/>
  <path class="st0" d="M221.6,169.4c-1.3-4.9-2-9.9-2.1-15,0-2.6,0-5.2.2-7.7.2-2.3.5-4.7,1.2-7s2-4.3,4-5.6c.9-.6,2.1-1.2,3.3-.8,1.1.4,2,1.4,2.7,2.1,3,3.1,4.6,7.3,5.5,11.5,1.1,5.8.8,11.7.3,17.4,0,1.1,1.7,1.1,1.7,0,.7-10.1,1.2-21.9-6.1-29.9-1.6-1.7-3.6-3.5-6.1-2.8-2.3.6-4.3,2.3-5.5,4.3-1.4,2.1-2,4.7-2.3,7.1-.4,2.7-.6,5.5-.7,8.2-.2,6.3.6,12.6,2.1,18.6.3,1.1,2,.6,1.7-.5h0Z"/>
  <path class="st0" d="M236.2,140.4c.8-1.7,1.8-3.3,3-4.8,1.2-1.4,2.7-2.7,4.4-3.6,1.8-1,3.9-1,5.8-.6.9.2,1.7.5,2.3,1.1.5.5,1,1.3,1.2,2,.8,2.3.5,4.7.2,7,0,.5,0,.9.6,1.1.4,0,1-.2,1.1-.6.3-2.3.7-4.8,0-7.2-.5-2-1.8-3.9-3.8-4.7-1.1-.5-2.3-.6-3.5-.7-1.1,0-2.4,0-3.5.5-2,.8-3.9,2.1-5.5,3.6-1.7,1.7-3.2,3.7-4.2,5.9-.2.5-.2.9.3,1.2.4.2,1,.2,1.2-.3h.2Z"/>
  <path class="st0" d="M216.8,170.7c-4.4-3.5-7-8.6-8.3-13.9-.7-2.7-1.2-5.5-1.3-8.3,0-2.8.7-5.5,3.6-6.3,3-.8,7,.8,7,4.3s1.7,1.1,1.7,0c0-3.6-3-5.8-6.4-6.2-3.3-.4-6.2,1.2-7.3,4.4-1.1,3.2-.4,6.5.2,9.6.5,3.1,1.5,6.3,3,9.2,1.5,3.2,3.7,6.1,6.5,8.3.8.7,2.1-.5,1.2-1.2Z"/>
  <path class="st0" d="M210.9,178.7c-3.9-3.8-7.6-7.7-10.4-12.3-1.4-2.3-2.5-4.8-3.3-7.4-.4-1.4-.7-3-.7-4.5s.2-2.7.9-3.6c.9-1.1,2.7-1.2,4-1.1,1.5.2,3,.8,4.2,1.7.9.7,1.7-.8.9-1.5-2.3-1.7-5.7-2.5-8.5-1.5-3,1.1-3.5,4.5-3.3,7.4.5,6.2,3.9,11.9,7.8,16.7,2.1,2.7,4.5,5.2,7,7.5.8.8,2-.5,1.2-1.2h0Z"/>
  <path class="st0" d="M226.5,138.2c-4,7-5.2,15.7-2,23.3.8,2,2,3.9,3.3,5.5.8.8,2-.4,1.2-1.2-6.4-7.5-5.7-18.5-1.1-26.7.5-1-.9-1.8-1.5-.9h0Z"/>
  <path class="st0" d="M244.5,138.5c.5,4.5.9,9.1,1,13.6,0,4.2-.3,8.4-2,12.3-.5,1,1.1,1.9,1.5.9,1.8-3.9,2.3-8.3,2.3-12.7s-.5-9.5-1-14.2c-.2-1.1-1.8-1.1-1.7,0Z"/>
  <path class="st0" d="M255.4,146c-2.5,4.5-3.8,9.6-3.9,14.8,0,1.1,1.7,1.1,1.7,0,0-4.8,1.3-9.7,3.6-13.9.5-1-1-1.9-1.5-.9h0Z"/>
  <path class="st0" d="M259.7,150.8c-1.6,4.4-3.2,8.9-3.1,13.6,0,1.1,1.7,1.1,1.7,0,0-4.5,1.5-8.9,3-13.1.2-.5-.2-1-.6-1.1-.5-.2-.9.2-1.1.6Z"/>
  <path class="st0" d="M230.2,190.6c-2.3-.5-4.8-.9-6.8-2.3-1.7-1.3-2.7-3.3-2.9-5.5-.2-2.2.4-4.5,1.8-6.2.8-.8,1.7-1.6,2.9-1.7,1.1-.2,2,.5,2.7,1.3.8,1,1.4,2.3,1.8,3.5.5,1.6,1,3.2,1.3,4.8l1.7-.5c-.6-2.7-1.1-5.5-1.2-8.2,0-.8,0-2,.5-2.6.8-.8,2,0,2.6.6.8.8,1.4,1.8,2,2.8.7,1.1,1.4,2.2,2,3.3,1.3,2.3,2.3,4.6,3,7.2.2.9,1.7.8,1.7-.2,0-2.4-.8-4.7-1.4-7-.6-2.1-1.5-4.6-1.1-6.9.4-2,2.1-2.9,4-2.9s3.9,1.1,5-.7c.2-.4,0-1-.3-1.2-.5-.2-1.1-.5-1.6-.8-1-.5-1.9,1-.9,1.5.5.2,1.1.5,1.6.8l-.3-1.2c-.4.6-1.7,0-2.3,0-1-.2-2-.2-2.9,0-2,.5-3.6,2-3.9,4-.5,2.3.2,4.8.9,7.1.7,2.4,1.5,4.8,1.6,7.3l1.7-.2c-.6-2.3-1.5-4.5-2.6-6.7-1.1-2.1-2.3-4.1-3.6-6-1.1-1.6-3-3.6-5.2-2.8-1.8.7-2.1,2.8-2,4.5,0,2.9.6,5.8,1.3,8.6.2,1.1,1.9.6,1.7-.5-.3-1.7-.8-3.4-1.4-5.1-.5-1.3-1.1-2.6-1.9-3.7-.8-1.1-1.9-1.9-3.2-2-1.4-.2-2.8.2-3.9,1.1-4.3,3.2-4.8,10.2-1.4,14.2,2.2,2.5,5.6,3.3,8.8,3.9,1.1.2,1.6-1.4.5-1.7h-.2Z"/>
  <path class="st0" d="M244.3,175.2l.8,7.5c.2,1.9.6,4,.2,6-.2.8-.6,1.6-1.3,2-.8.5-1.7.6-2.6.7-2.4.2-4.9.2-7.3,0-2.8,0-5.7-.2-8.5-.5-.5,0-.8.5-.8.8s.4.8.8.8c5.2.5,10.6.8,15.8.4,2.1-.2,4.3-.8,5.3-2.9.9-1.9.7-4.1.5-6.1l-.9-8.9c0-.5-.4-.8-.8-.8s-.9.4-.8.8h-.2Z"/>
  <path class="st0" d="M245.7,174.7s0,.3.2.5l-.5.5s.2,0,.2.2c0,0,.2.2.3.2.2.2.3.2.5.4.4.4.7.8.9,1.1.5.9.9,1.9,1.2,2.9.8,2.5,1.3,5.1,1.7,7.7.2,1.1.3,2.4,1.1,3.3.7.8,1.8,1.1,2.9.9,2.3-.5,3.2-2.9,3.1-5,0-1.4-.5-2.8-1-4.2-.5-1.4-.8-2.7-.6-4.1l-1.6.2c.6.9,1.3,2,2.3,2.4.9.4,2.1.3,2.9-.4.9-.8.8-2.2.7-3.3-.2-1.3-.6-2.6-1.3-3.6-.5-.9-1.7-.3-1.6.7.4,2,.9,4.7-.8,6.4l1.2,1.2c1.4-1.6,2-3.9,1.8-6-.3-2.3-1.4-4.4-2.9-6.1-.8-.8-2,.4-1.2,1.2,2.2,2.5,3.6,6.7,1.1,9.6-.8.8.4,2,1.2,1.2,2.2-2,1.8-5.4,1.3-8l-1.6.7c.5.8.8,1.6,1,2.5,0,.4.2.8.2,1.1s0,.8-.2,1.1c-.2.3-.8.2-1.1.2-.7-.3-1.1-1.1-1.5-1.7-.4-.6-1.4-.6-1.6.2-.5,2.7.8,5.2,1.4,7.8.2,1.1.2,2.2-.3,3.2-.4.7-1.1,1.3-2,1.1-1-.2-1.1-1.6-1.2-2.4-.2-1.4-.5-2.8-.8-4.2-.5-2.3-1-4.8-2.2-7-.6-1.1-1.4-2-2.3-2.7-.6-.4-1.3-.7-2-.3-.7.4-.8,1.4-.2,1.9.8.8,2-.5,1.2-1.2v-.2Z"/>
  <path class="st0" d="M255.2,181.7l1.4,2.8c.3.6,1.1.5,1.5,0,.8-1.2,1.2-2.6,1.7-3.9l-1.7-.2c.2,2.5.3,5,.5,7.5,0,.5.4.8.8.8s.8-.4.8-.8c0-2.1-.2-4.2-.5-6.3,0-.5-.6-.7-1-.6-.5,0-.8.4-.8.8v10.7c0,.5.4.8.8.8s.9-.4.8-.8v-10.7l-1.7.2c.3,2,.4,3.9.4,5.8h1.7c-.2-2.5-.3-5-.5-7.5,0-1-1.4-1.1-1.7-.2-.5,1.2-.8,2.4-1.5,3.5h1.5l-1.4-2.8c-.2-.5-.8-.5-1.2-.3-.5.2-.5.8-.3,1.2h.2Z"/>
  <path class="st0" d="M254.4,195.3c.3,5.7-1.5,11.5-5.1,15.9-1,1.2-2.1,2.3-3.3,3.3-.4.3-.6.8-.3,1.2.2.4.8.6,1.2.3,4.8-3.7,8.1-9.4,9-15.4.3-1.7.4-3.6.3-5.3,0-1.1-1.8-1.1-1.7,0Z"/>
  <path class="st0" d="M247.5,198.2c-1.3.8-1.8,2.2-2.1,3.6,0,.4-.2.7-.2,1.1v.5c0,.2.2.3.3.5.3.2.7.2,1,0,.8-.4,1.5-1,2-1.7.6-.8,1.1-1.6,1.3-2.6,0-.2,0-.5,0-.7,0-.3-.3-.5-.5-.7-.3-.2-.6-.2-.9-.2-.5,0-.9,0-1.4.2-.5.2-.8.3-1.2.6-.5.3-.8.7-1.1,1.1-.2.4-.5.8-.6,1.2,0,.5-.2,1,0,1.4,0,.3.2.5.5.8.2.2.5.4.8.5.3,0,.7,0,1,0,.3,0,.5-.2.8-.4.5-.3.8-.7,1.1-1.1.3-.5.7-.8,1.1-1.3.2-.2.3-.4.5-.6.2-.2.4-.5.5-.8,0-.5,0-.9-.3-1.2-.2-.2-.5-.4-.8-.5-.9-.2-1.9,0-2.7.5-.8.5-1.4,1.3-1.8,2.2,0,.2-.2.4-.2.5,0,.2,0,.5,0,.7,0,.2.3.4.5.4s.5,0,.7,0c.2-.2.4-.3.4-.5s0-.5.2-.7v.2s.2-.5.4-.8l-.2.2s.4-.5.7-.6l-.2.2s.5-.3.8-.5h-.2s.5,0,.8-.2h-.2.7-.2.3-.2.2l-.2-.2h0c0,0-.2,0-.2,0h0c0,0,0-.2,0-.2h0c0,0,0-.2,0-.2v.2-.2.2-.2s-.2.5-.4.7c-.2.2-.3.5-.5.7l.2-.2s-.5.7-.8,1c-.3.3-.5.6-.8.8l.2-.2s-.3.2-.5.3h.2-.3.2-.2.2-.2.2-.2l.2.2s0,0-.2-.2l.2.2s0-.2-.2-.2v.2-.3.2-.5.2s0-.4.2-.6v.2s.2-.5.4-.8l-.2.2s.4-.5.6-.6l-.2.2s.5-.3.8-.5h-.2s.5,0,.8-.2h-.2.8-.2.2-.2l-.2-.2-.2-.2s0,0,0-.2v-.2h0c0,0,0-.2,0-.2,0,0-.2.6-.2.8v-.2c-.2.5-.4.9-.7,1.4l.2-.2c-.3.4-.7.8-1.1,1.1l.2-.2s-.5.4-.8.5l1.3,1c.2-.8.3-1.7.6-2.5v.2s.2-.7.5-.9l-.2.2s.3-.4.5-.5l-.2.2s.2-.2.2-.2c.2-.2.3-.3.4-.5,0-.2,0-.5,0-.7-.2-.4-.8-.5-1.2-.3l.2.3Z"/>
  <path class="st0" d="M224.4,190c-1.4,0-2.9-.2-4-1.1-1.1-.9-1.5-2.3-1.7-3.6-.5-2.7-1.4-7.1,1.4-8.9l-1.9-1.4c-.9,3.2-1.7,6.6-1.1,9.9.3,1.4.8,2.8,1.7,3.9.4.5.8.9,1.3,1.3.7.5,1.4.6.4,1.1-1.1.5-3.3.3-4.3-.3-1-.5-1.2-3.2-1.4-4.3-.2-.8-.4-1.7-.6-2.5-.2-.8-.6-1.9-.6-2.8s0-.9.6-1.4c.3-.3.8-.5,1.1-.8.8-.5,1.4-1.1,2.2-1.6l-1.8-1.8c-3,5.5-.9,11.7,2.6,16.4l.8-1.9c-2.4.6-3.3-3.6-3.6-5.2-.2-1-.3-2-.3-3,0-1.5.8-2.1,1.9-3,1.7-1.5,3.6-2.8,5.7-4,1.1-.6,2.1-1.2,3.2-1.7.6-.2.9-.5,1.5-.2.5.3.7,1.1.9,1.5l2-1.6c-.9-1.1-2.1-1.9-3.6-2.2-1.7-.4-2.3,1.9-.7,2.5,1.1.4,1.7,1.1,2.3,2,.5.9,2.2.8,2.3-.3.2-1.7.2-3.3-.4-4.8l-1.3,1.7,4.8-.4-.7-2.4c-1.8.8-3.7,1.3-5.7,1.4l.7,2.4c4.5-2.4,9.8-1.1,14.5-2.7l-.7-2.5c-4.2,1.7-5.8,6.4-3.7,10.5l2-1.6c-1.7-1.7-3.3-3.6-4.7-5.5l-.5,1.8s.8,0,.9.4c.4,1.1,2.2,1.4,2.5,0l.2-1.1c.4-1.7-2.2-2.3-2.5-.7l-.2,1.1h2.5c-.8-2-2.7-3-4.7-2-.6.3-.8,1.2-.5,1.8,1.5,2.1,3.3,4.2,5.1,6.1,1.1,1.1,2.7-.3,2-1.6-1.2-2.3-.5-5.5,2.1-6.6,1.5-.6.9-3.1-.7-2.5-4.9,1.7-10.4.5-15.1,3-1.1.6-.6,2.5.7,2.4,2.5,0,4.8-.7,7-1.7,1.1-.5.6-2.5-.7-2.4l-4.8.4c-.8,0-1.5.8-1.3,1.7.4,1.1.5,2.3.4,3.5l2.3-.3c-.9-1.6-2.2-2.6-3.9-3.3l-.7,2.5c1.1.2,1.7.7,2.4,1.5,1,1.2,2.6-.3,2-1.6-.6-1.3-1.4-2.6-2.9-3-1.5-.4-3.2.7-4.5,1.4-3.3,1.7-6.5,3.8-9.1,6.4-2.3,2.3-1.7,6.5-.8,9.5s3.1,5.9,6.4,5.1c.8-.2,1.3-1.2.8-1.9-3-3.9-5.1-9.1-2.6-13.8.5-1.1-.7-2.6-1.8-1.8-1,.8-2,1.5-3,2.3-.7.5-1.6,1-2,1.7-.8,1.7.3,4.5.7,6.1.3,1.3.6,2.6.9,3.9.2.9.4,2,.8,2.8.8,1.5,3.2,1.8,4.7,2,1.7.2,3.6-.2,4.8-1.5s.5-3-.8-3.9c-4.1-3.3-2.9-8.5-1.7-12.9.3-1.1-1-2.1-1.9-1.4-3.9,2.6-3.3,7.8-2.5,11.8.4,1.8,1.1,3.7,2.6,4.9,1.6,1.3,3.7,1.5,5.8,1.7,1.7.2,1.7-2.5,0-2.6l.2-.2Z"/>
  <path class="st0" d="M245.3,177c.9,3,1.4,6,1.6,9v4.3c-.2.3-1,.5-1.4.6-.8.2-1.4.4-2.2.5-1.7.2-1.7,2.7,0,2.6,3.4-.2,6-3,6.3-6.4.2-1.1-1.5-1.8-2.2-.9-1,1.2-1.8,2.5-2.6,3.9l2.3,1c.5-2.7,1.3-5.3,2.1-8l-2.3.3c.9,1.4,1,3.2,1.2,4.8.2,1.7.7,3.4,1.8,4.8l.6-2.2c-1.5.3-3.1.5-4.7.4v2.6l6.3-.4c2-.2,4.2-.4,6.2,0l-.4-2.6c-1,.2-1.9.3-2.9.2-1.4-.2-1.7,2.2-.4,2.6,1,.2,2,.2,3,0,.7-.2,1.1-.9.9-1.6-.5-2.3-1.3-5-.3-7.3l-2.3-.3c.2,1.4.3,2.8.3,4.2s2.6,1.7,2.6,0-.2-3.3-.4-4.8c-.2-1.1-2-1.3-2.3-.3-1.3,3-.8,6.2,0,9.3l.9-1.6c-.5.2-1.1.2-1.6,0l-.4,2.6c1.2,0,2.3,0,3.6-.3,1.5-.4,1.1-2.4-.4-2.6-2-.2-4.2,0-6.2,0l-6.3.4c-1.7,0-1.7,2.6,0,2.6s3.6,0,5.4-.5c1.1-.2,1.1-1.5.6-2.2-1-1.1-1.1-2.8-1.3-4.2-.2-1.7-.5-3.4-1.4-4.8-.6-1-2-.8-2.3.3-.8,2.6-1.6,5.2-2.1,8-.3,1.4,1.7,2.3,2.3,1,.6-1.2,1.4-2.3,2.2-3.4l-2.2-.9c-.2,1.9-1.8,3.6-3.7,3.8v2.6c1.7-.2,3.7-.5,5.1-1.5,1.4-1,1.1-3.3,1.1-4.8,0-3.8-.6-7.7-1.7-11.3-.5-1.6-3-.9-2.5.7h.2Z"/>
  <path class="st0" d="M242.2,194.4c1.7,0,1.7-2.6,0-2.6s-1.7,2.6,0,2.6Z"/>
  <path class="st0" d="M240.2,194.5c1.7,0,1.7-2.6,0-2.6s-1.7,2.6,0,2.6Z"/>
  <path class="st0" d="M238.5,194.5c1.7,0,1.7-2.6,0-2.6s-1.7,2.6,0,2.6Z"/>
  <path class="st0" d="M230.5,193.5c1.7,0,1.7-2.6,0-2.6s-1.7,2.6,0,2.6Z"/>
  <path class="st0" d="M212.6,177.3c-1.6.2-2.8-.4-3.6-1.7-.7-1.2-1.2-2.5-2-3.6-1.7-2.3-4-4.1-5.9-6.3-2.1-2.3-3.2-5.2-3.6-8.3-.2-1.4-.6-3.3.3-4.5.9-1.2,2.7-1.2,4.1-.8,1.7.5,2.7,2.3,3.6,3.8,1,1.6,1.8,3.3,2.4,5,.4,1.1,2,.6,1.7-.5-.7-1.8-1.4-3.5-2.4-5.2-.5-.8-1-1.6-1.6-2.3-.6-.8-1.1-1.5-2-2-1.4-.9-3.6-1.1-5.3-.5-1.7.6-2.6,2.1-2.7,3.9,0,1.7.2,3.8.6,5.5.4,1.7,1.1,3.4,2,4.9,1.8,2.8,4.5,4.8,6.7,7.4.6.7,1.1,1.4,1.5,2.2.5.8.8,1.8,1.4,2.6,1.1,1.7,2.9,2.5,4.9,2.3,1.1,0,1.1-1.8,0-1.7h.2Z"/>
  <path class="st0" d="M206.4,173.4c-1-1.1-2-2.3-3.1-3.3-.3-.3-.6-.6-.9-.9-.2-.2-.4-.2-.6-.2s-.5,0-.6.2c-.2.2-.2.4-.2.6s0,.5.2.6c1.1,1.1,2.2,2.1,3.2,3.3.3.3.6.7.8,1,.2.2.4.2.6.2s.5,0,.6-.2c.2-.2.2-.4.2-.6s0-.5-.2-.6Z"/>
  <path class="st0" d="M205.8,172.6v-1.2c0-.2,0-.2-.2-.4,0,0,0,0,0-.2,0,0-.2-.2-.2-.3s-.2-.2-.3-.2c0,0,0,0-.2,0,0,0-.2,0-.3,0h-.4c0,0-.2,0-.3.2,0,0-.2.2-.2.2v.2s-.2.3,0,.5v.2s.3.2.4.3c0,0,.2,0,.2,0l-.2-.2s.2.2.2.2l-.2-.2s.2.2.2.3v-.2.4-.2.4-.2.5c0,.2,0,.2,0,.3,0,0,.2.2.2.2,0,0,.2.2.3.2h.2s.3,0,.5,0l.2-.2s.2-.2.2-.4v-.2Z"/>
  <path class="st0" d="M198,150.9c.8,0,1.5,0,2.3,0h.3s.4,0,.2,0c.2,0,.3,0,.5,0,.3,0,.7.2,1,.2.2,0,.3,0,.5.2h.2c-.2,0,0,0,0,0,0,0,.2,0,.2,0,.3.2.5.3.8.5,0,0,.2,0,.2.2,0,0,.2.2.3.3.2.2.5.5.8.8.5.5,1.4.2,1.5-.6,0-.5-.2-1-.4-1.4-.2-.4-.8-.6-1.2-.3-.4.2-.6.8-.3,1.2,0,0,0,0,0,.2q0,0,0,0h0c0,0,0,.3,0,.2s0,.2,0,.2l1.5-.6c-.4-.4-.7-.8-1.1-1.1-.5-.3-.9-.7-1.4-.9-1.1-.5-2.3-.8-3.6-.8-.7,0-1.4,0-2,0-.5,0-.9.4-.8.8,0,.5.4.8.8.8l-.2.2Z"/>
  <path class="st0" d="M219.5,150.8c0-2-.3-4.1-1.7-5.7-1.4-1.6-3.4-2.3-5.4-2-1.1.2-2.1.6-2.9,1.4-.7.8-1.3,1.7-1.7,2.6-.9,2.1-1.1,4.4-1,6.7,0,2.5.2,5,1.2,7.3.2.5.8.5,1.2.3.5-.2.5-.8.3-1.2-.8-1.7-.8-3.6-.9-5.4,0-1.9-.2-3.9.3-5.8.2-.8.6-1.7,1.1-2.4.5-.6,1-1.4,1.7-1.7,1.4-.6,3.3,0,4.4.9,1.4,1.2,1.7,3.2,1.6,4.9,0,1.1,1.7,1.1,1.7,0h0Z"/>
  <path class="st0" d="M217.9,143.7c-.9-.6-1.9-1.1-2.9-1.4-1-.4-2.3-.6-3.3-.4-1.1.2-2,1-2.6,1.7-.7.8-1.3,1.5-1.7,2.4-.6,1.1-.9,2.2-1.1,3.3h1.7v-.8c0-.2,0,0,0,0v-.4c0-.5.2-.9.4-1.3,0-.2.2-.5.2-.6,0,0,0-.2.2-.3v-.2c.2-.5.4-.8.6-1.2q.2-.2.3-.4c.2-.2.2-.3.4-.4,0,0,.2-.2,0,0,0,0,.2,0,.2-.2.2,0,.3-.2.5-.3,0,0,.2-.2.2,0,0,0,.2,0,.2,0,.2,0,.3,0,.5-.2.2,0,.3,0,.5,0-.2,0,0,0,0,0h1.2s0,0,0,0c.4,0,.8.2,1.1.3.5.2,1-.2,1.1-.6,0-.5-.2-.9-.6-1.1-1.6-.6-3.4-.6-4.9,0-.8.3-1.4.8-1.9,1.4-.7.8-1.1,1.8-1.4,2.7-.5,1.1-.8,2.3-.8,3.5,0,.5.4.9.8.8.5,0,.8-.4.8-.8,0,.2,0-.2,0-.2v-.3c0-.2,0-.5.2-.7,0-.2.2-.4.2-.6v-.2c0-.2,0-.2.2-.4.2-.4.4-.8.7-1.1,0,0,.2-.2.2-.3,0,0,0,0,0-.2h0q0,0,0-.2c0,0,.2-.2.2-.3.3-.3.6-.7.9-1l.2-.2h0s0,0,.2,0c0,0,.2,0,.2-.2h1.2s.3,0,.2,0c.5,0,.9.2,1.3.3.2,0,.5.2.8.2h.2s.2,0,0,0c0,0,.2,0,.3.2.5.2,1,.5,1.4.8.4.2,1,0,1.2-.3.2-.5,0-.9-.3-1.2h.6Z"/>
  <path class="st0" d="M209,162.1c1.1,0,1.1-1.7,0-1.7s-1.1,1.7,0,1.7Z"/>
  <path class="st0" d="M209,162c1.1,0,1.1-1.7,0-1.7s-1.1,1.7,0,1.7Z"/>
  <path class="st0" d="M238.8,160.9c-.2-4.7-.8-9.4-2.1-13.9-.6-2.3-1.4-4.5-2.3-6.7-.8-1.8-1.7-3.6-3.4-4.6-1.7-1.1-3.8-1.1-5.5.2-1.7,1.3-2.7,3.1-3.6,4.8-2,4-2.8,8.6-3.2,13-.4,5.3-.8,11.1,1.3,16.1.4,1.1,2.1.6,1.7-.5-1.6-4.1-1.6-8.6-1.4-12.8s.6-8.3,2-12.4c.6-1.8,1.4-3.6,2.6-5.2,1.1-1.5,2.4-3.1,4.4-2.3,1.8.7,2.8,2.5,3.5,4.2.8,1.9,1.4,3.9,2,5.8,1.3,4.5,2,9.3,2.2,14,0,1.1,1.7,1.1,1.7,0h0Z"/>
  <path class="st0" d="M221,146v-1.7c0,0,0-.2-.2-.3,0,0-.2-.2-.3-.2s-.2,0-.3,0h-.2s-.3.2-.4.2l-.2.2s-.2.3-.2.5v1.7c0,0,0,.2.2.3,0,0,.2.2.3.2s.2,0,.3,0h.2s.3-.2.4-.2l.2-.2s.2-.3.2-.5Z"/>
  <path class="st0" d="M220.8,146.6c0-4,1.6-8,4.3-10.9l-1.2-1.2c-1.9,2.1-3.3,4.6-4.1,7.3-.3.9,1.1,1.5,1.6.7.8-1.4,1.4-2.8,2.4-3.9,1-1.1,2.3-2.1,3.6-3,.7-.5.5-1.7-.5-1.6-1,0-2,.2-2.9.5l1,1.3c.5-1.1,1.9-.8,2.8-.7l.2-1.7c-.4,0-.8,0-1.1-.2l.5,1.3c.2-.5,1-.5,1.4-.3.7.2,1.2.7,1.6,1.2l.8-1.3c-1.1,0-2.3,0-3.5-.2l.2,1.7c2.3-.6,4.2,1.7,5.2,3.3,1.4,2,2.2,4.4,2.6,6.8,0,.5.7.8,1.1.6.5-.2.7-.6.6-1.1-.5-2.7-1.4-5.5-3-7.7-1.6-2.3-3.9-4.5-6.9-3.7-1,.2-.8,1.7.2,1.7,1.1,0,2.3,0,3.5.2.7,0,1.1-.8.8-1.3-.7-1.1-1.7-1.8-2.9-2.1-1.2-.3-2.6,0-3.2,1.1-.2.5,0,1.1.5,1.3.5.2,1.1.2,1.6.2s.8-.3.8-.8-.2-.9-.6-1c-1-.2-2-.3-2.9,0-.8.2-1.5.8-1.9,1.5-.3.6.2,1.6,1,1.3.8-.3,1.6-.5,2.4-.5l-.5-1.6c-1.4,1-2.9,2-3.9,3.3s-1.9,2.8-2.7,4.3l1.6.7c.8-2.4,2-4.7,3.7-6.6.8-.8-.5-2-1.2-1.2-3,3.3-4.8,7.7-4.8,12.1,0,1.1,1.7,1.1,1.7,0h0Z"/>
  <path class="st0" d="M237.1,143.5c-.4-1.9.4-3.8,1.4-5.3.5-.8,1.2-1.4,2-2.1.8-.7,1.4-1.3,2.3-1.8,1.6-1.1,3.7-1.1,5.5-.8,1.7.2,3.3,1.1,4.3,2.5,1.1,1.8,1,4.1.8,6.1,0,.5.5.8.8.8s.8-.4.8-.8c.2-2.2.2-4.5-.8-6.5-1-1.9-2.9-3.2-4.9-3.6-1.1-.3-2.3-.4-3.5-.3-1.2,0-2.4.2-3.5.8-1,.5-1.8,1.3-2.6,2-.8.7-1.7,1.5-2.3,2.3-1.7,2-2.6,4.6-2.1,7.2,0,.5.6.8,1.1.6.5-.2.7-.6.6-1.1h.2Z"/>
  <path class="st0" d="M253,132.8c-3-1.4-6.4-3.1-9.8-1.9-.5.2-.8.6-.6,1.1.2.5.6.8,1.1.6.4-.2.8-.2,1.1-.3q0,0,0,0h1.8q0,0,0,0h.2c.4,0,.8.2,1.1.2.3,0,.8.2,1.1.4.2,0,.4.2.5.2h.2q0,0,0,0h.2c.8.3,1.4.7,2.2,1,.4.2,1,.2,1.2-.3.2-.4.2-1-.3-1.2l.2.2Z"/>
  <path class="st0" d="M254.6,142.9c1.7-2.1,3.6-4.5,6.3-5.3,1.5-.5,3,0,3.9,1.4.9,1.3,1,3,1.1,4.5.2,3.1.6,6.7-.2,9.7-.8,2.8-2.8,5.1-4.3,7.6-1.7,2.8-2.9,6-3,9.2,0,1.1,1.7,1.1,1.7,0,0-3.4,1.5-6.6,3.3-9.4,1.7-2.8,3.7-5.2,4.2-8.5.5-3.5.2-7.3-.2-10.8-.2-1.6-.7-3-1.8-4.2-1.1-1.1-2.5-1.7-4-1.5-3.5.4-6.1,3.4-8.2,6-.7.8.5,2.1,1.2,1.2h.2Z"/>
  <path class="st0" d="M261,169.1c.5-2.1,1.1-4.2,2.1-6.1.9-1.7,2.3-3.2,3.3-4.8.6-1,1.1-2,1.4-3.1.3-1-1.1-1.5-1.6-.7-2.1,3.3-4.2,6.6-5.3,10.3-.2.4,0,.8.5,1.1.5.2.8,0,1.1-.4,1.3-1.7,2.3-3.6,3.1-5.5.2-.5-.2-1-.6-1.1-.5-.2-.9.2-1.1.6-.8,1.8-1.7,3.6-3,5.1l1.6.7c1.1-3.6,3.1-6.8,5.1-9.9l-1.6-.7c-.5,1.9-1.7,3.4-2.9,4.9-.6.8-1.1,1.6-1.6,2.4-.5,1-1,2-1.4,3.1-.4,1.2-.8,2.4-1.1,3.6-.3,1.1,1.4,1.5,1.7.5h0Z"/>
  <path class="st0" d="M268.6,149.6v-5.8c0-.5-.4-.9-.8-.8-.5,0-.9.4-.8.8v5.8c0,.5.4.9.8.8.5,0,.8-.4.8-.8Z"/>
  <path class="st0" d="M267.3,138.8c0-1-.6-1.8-1.2-2.5-.6-.7-1.4-1.3-2.3-1.5-.5,0-1.1,0-1.6,0-.2,0-.5,0-.6.2-.2.2-.2.4-.2.6s0,.5.2.6c.2.2.4.3.6.2h1.2-.2s.5,0,.7.2h-.2s.4,0,.5.2l-.2-.2c.5.3.8.8,1.1,1.2l-.2-.2s.3.5.5.8v-.2.5-.2.2c0,.2,0,.5.2.6.2.2.4.2.6.2.5,0,.9-.4.8-.8h.2Z"/>
  <path class="st0" d="M262.4,255.8c.4-.5.6-1,.8-1.6,0-.6,0-1.2,0-1.9-.2-1.1-.7-2.2-1.1-3.2,0-.2-.2-.4-.4-.5-.2,0-.5-.2-.7,0-.2,0-.4.2-.5.4-.2.2-.2.5,0,.7.5,1.1,1,2.2,1.1,3.4v-.2,1.1-.2s0,.5-.2.8v-.2.5c-.2.2-.2.4-.2.6s0,.5.2.6.4.2.6.2.5,0,.6-.2h-.2Z"/>
  <path class="st0" d="M241.6,250.5c.8.8,1.4,1.6,2.2,2.3.8.7,1.6,1.2,2.3,2,.4.4.8.7,1.1,1.1s.7.8.8,1c.3.5.5.8.6,1.2.2.5.4.9.6,1.4.6.9,1.5,1.6,2.6,1.9.5.2,1-.2,1.1-.6,0-.5-.2-.9-.6-1.1,0,0-.2,0-.3,0,.2,0,0,0,0,0s-.2,0-.2-.2c0,0,0,0-.2,0,0,0-.2-.2,0,0h0c0,0-.2-.2-.2-.3,0,0-.2-.2-.2-.2,0,0,0,0,0,0,0,0,0,0-.2-.2-.2-.4-.3-.6-.5-1.1-.2-.5-.4-1-.7-1.4-.6-.8-1.3-1.6-2-2.3-.8-.7-1.6-1.3-2.3-1.9-.9-.8-1.7-1.7-2.5-2.5-.3-.3-.9-.3-1.2,0s-.3.9,0,1.2v-.2Z"/>
  <path class="st0" d="M262.5,280.7c.7.3,1.4.5,2.1.4.7,0,1.3-.3,1.9-.7.5-.3.9-.7,1.4-1.1,0,0,.2-.2.3-.2h0l.2-.2c.2-.2.5-.3.7-.4h0c0,0,.2,0,.2,0h.3s.2,0,0,0h1.1c.5,0,.9-.4.8-.8,0-.5-.4-.9-.8-.8-.7,0-1.4,0-2,.2-.5.2-1,.5-1.4.8-.5.4-.9.8-1.4,1.1-.2,0,.2,0,0,0,0,0,0,0-.2,0,0,0-.2.2-.3.2,0,0-.2.2-.3.2,0,0-.2,0,0,0h-1.4s-.3-.2,0,0c-.2,0-.5-.2-.7,0-.2,0-.5.2-.5.4-.2.4-.2,1,.3,1.2l-.3-.2Z"/>
  <path class="st0" d="M268.9,278.6s.7-.2,1-.2c.4-.2.7-.3,1.1-.5.7-.5,1.2-1.1,1.6-1.7.2-.4.4-.8.5-1.3,0-.2,0-.5,0-.7,0-.2-.3-.4-.5-.4s-.5,0-.7,0c-.2,0-.3.3-.4.5,0,.2,0,.4-.2.5v-.2s-.3.7-.5,1.1l.2-.2s-.5.6-.8.8l.2-.2s-.6.4-1,.5h.2s-.6.2-1,.2-.5.2-.5.4c0,.2-.2.5,0,.7,0,.2.2.4.4.5h.2s.3.2.5,0Z"/>
  <path class="st0" d="M266.3,278.5c-.4.2-.8.3-1.2.3h.2-1.3.2-.8c-.3,0-.5,0-.8.2h.2-.7.2-.2c-.2,0-.5,0-.7,0-.2,0-.4.3-.4.5s0,.5,0,.7c.2.2.3.4.5.4s.6,0,.9,0,.6,0,.9-.2h-.2.5-.2c.5,0,1.1,0,1.7,0,.6,0,1.1-.2,1.6-.4.2,0,.4-.2.5-.4,0-.2.2-.5,0-.7,0-.2-.2-.4-.4-.5s-.5-.2-.7,0h0Z"/>
  <path class="st0" d="M224.1,143.8c-.5,2-.8,4-.8,6.1s.7,3.9,1.1,5.8c.4,1.9.5,3.9,1,5.8.5,1.9,1.3,3.6,2.3,5.2.6.9,2.1,0,1.5-.9-.9-1.5-1.7-3.1-2.1-4.8-.5-1.8-.6-3.7-1-5.6-.4-1.9-1.1-3.6-1.1-5.4s.4-3.9.8-5.8c.2-1.1-1.4-1.6-1.7-.5v.2Z"/>
  <path class="st0" d="M245,165.1c.7-1.7.5-3.3.5-5s0-3.3.2-5c.2-1.7.5-3.3.7-5,.2-1.8.5-3.6.6-5.4,0-.5-.5-.8-.8-.8s-.8.4-.8.8c-.2,1.7-.4,3.4-.6,5.2-.2,1.7-.5,3.3-.7,5-.2,1.7-.2,3.3-.2,5s0,1.6,0,2.4c0,.8-.2,1.6-.5,2.3-.2.5.2,1,.6,1.1.5.2.9-.2,1.1-.6Z"/>
  <path class="st0" d="M247.2,153.3v-7.5c0-1.3,0-2.5-.3-3.7-.3-1.2-.5-2.3-.8-3.6-.3-1.1-2-.6-1.7.5.3,1.1.6,2.3.8,3.5.2,1.2.2,2.3.2,3.5v7.3c0,1.1,1.7,1.1,1.7,0Z"/>
  <path class="st0" d="M245,143.3v.3s0,.3,0,.2v2.2q0,0,0,0v.2c0,.4-.2.8-.2,1.1-.2,1.5-.3,3-.4,4.5,0,.5.4.9.8.8.5,0,.8-.4.8-.8,0-.8,0-1.5,0-2.3,0-.4,0-.8,0-1.1v-.2c0,.2,0,0,0,0,0-.2,0-.4,0-.6.2-1.6.5-3.1.2-4.7,0-.5-.6-.8-1.1-.6-.5.2-.7.6-.6,1.1l.2.2Z"/>
  <path class="st0" d="M246.3,150.4s-.3-.9-.3-1.2v-4.1c0-1.9,0-3.8.2-5.8,0-.5-.4-.9-.8-.8-.5,0-.8.4-.8.8,0,2-.2,3.9-.2,5.8v2.8c0,.5,0,.9,0,1.4,0,.5.2,1,.3,1.4.2.5.6.8,1.1.6.5-.2.8-.6.6-1.1Z"/>
  <path class="st0" d="M244.4,147.4c-.2,2.8-.2,5.5-.2,8.3,0,.5.4.9.8.8.5,0,.9-.4.8-.8,0-2.8,0-5.5.2-8.3,0-.5-.5-.9-.8-.8-.5,0-.8.4-.8.8Z"/>
  <path class="st0" d="M150.3,236.1c-.6.2-1.2.5-1.7.8-.3.2-.6.5-.9.8-.3.3-.5.6-.8.9-.2.2-.2.4-.2.7v.7c0,.2.2.5.3.6s.3.3.5.5c.4.2.9.3,1.4.2l.4-.2s.5-.4.6-.6c0,0,0,0,0-.2l-.3.4s.5-.6.8-.8l-.4.3s.7-.5,1-.6l-.4.2s.2,0,.3,0c.5-.2.8-.4,1.1-.8.2-.2.2-.4.2-.7v-.7c-.2-.5-.4-.8-.8-1.1-.5-.2-.9-.3-1.4-.2h.2Z"/>
  <path class="st0" d="M164.5,235.6c-.4,0-.8-.2-1.2-.3-.2,0,0,0,0,0,0,0-.2,0-.2-.2,0,0-.4-.2-.2,0,.2,0,0,0,0,0-.2-.2-.2-.2,0,0,0,0,0-.2-.2-.2,0,.2,0,.2,0,0,0,0,0-.5,0-.2,0,.2,0,0,0-.2v-1.1c0-.5,0-.9,0-1.3,0,0,0-.5,0-.2s0-.2,0-.2c0-.2,0-.5.2-.7,0-.2,0-.5.2-.7,0,0,0-.2,0-.3,0,0,.2-.3,0-.2,0,.2,0-.2,0-.2,0,0,0-.2.2-.2,0,0,.2-.2.2-.3.6-.7.8-1.7,0-2.4-.6-.6-1.8-.8-2.4,0-1.7,2-2,4.5-2.1,7.1,0,1.4.2,2.8,1.2,3.9.8.9,2,1.3,3.2,1.5.9.2,1.9-.2,2.1-1.2.2-.8-.2-2-1.2-2.1l.2-.2Z"/>
  <path class="st0" d="M165.2,222.8c-1.4,1.5-2.7,3.3-3.7,5.2-1,1.9-2.1,4.4-1.7,6.7.4,2.3,2.6,3.3,4.8,3.5,2.3.2,4.8.2,7.1.2s1.7-.8,1.7-1.7-.8-1.7-1.7-1.7c-2.1,0-4.2,0-6.3-.2h-.6s-.5,0-.2,0c-.3,0-.7-.2-1-.2.3,0-.2,0-.2,0-.2-.2-.2,0,0,0l-.2-.2c0-.2,0-.3,0-.5,0-1.4.8-3.1,1.5-4.4.8-1.5,1.7-2.8,3-4.1.7-.7.7-1.8,0-2.4-.7-.6-1.8-.7-2.4,0Z"/>
  <path class="st0" d="M155.5,248.8l-9.8-.4h-.8c-2.9-.3-5.7-1.1-8.3-2.6l-1.5-.8c-.5-.2-.9-.5-1.3-.8l-3.6-2.3c-2.4-1.6-4.8-3-7.3-4.5l-2.1-1.2c-4-1.5-8.3-2.4-12.5-2.7h-.4l-43.5-1c-1.8,0-3.6.5-5.1,1.4-1.1.8-1.9,2-1.9,3.5s.5,1.9,1.2,2.4c1.4.9,3,1.4,4.7,1.4l36.5,1.3,1.4,1.3-1.1,1.6-38.5-.5c-.7,0-1.4.2-2,.6-1.3.8-2.1,2.3-2.1,3.9v.8c0,1.4.7,2.7,1.9,3.3,1.1.5,2.3.8,3.6.9l37,.3,1.1,1.3-1.4,1.4-36.8-.3c-1.3,0-2.5.3-3.6,1-.9.5-1.5,1.6-1.5,2.7v2.6c0,.8.4,1.6,1.1,2,1.1.5,2.2.8,3.3.8l36.3.3c.7,0,1.3.3,1.7.8.4.5.4,1.1,0,1.5-.2.3-.6.5-1,.5l-37.8-.2c-.8,0-1.5.2-2.1.8-.9.8-1.5,1.9-1.5,3.1v.9c0,1.2.5,2.3,1.5,3,1.3.8,2.7,1.3,4.2,1.4l44.4,1.5h2c3-.2,6-.6,8.9-1.3l4.4-1.1,2.6-.8c3-.8,5.8-2.1,8.5-3.7,1.4-.9,3.1-1.5,4.8-1.9,1.4-.2,2.6-.4,4-.4h14.9c-2.7-7-3.3-14.2-2.4-21.7h-.2Z"/>
  <path class="st0" d="M107.9,279.9l-44.4-1.5c-1.5,0-3-.5-4.4-1.4-1.1-.7-1.7-2-1.7-3.3v-.9c0-1.4.6-2.6,1.7-3.3.7-.5,1.5-.8,2.3-.8l37.8.2s.5-.2.7-.3c.2-.3.2-.8,0-1.1-.4-.5-.9-.8-1.4-.8l-36.3-.3c-1.2,0-2.3-.3-3.5-.8-.8-.4-1.4-1.3-1.4-2.3v-2.6c0-1.3.8-2.4,1.7-3,1.1-.7,2.4-1,3.7-1l36.6.3,1-1.1-.8-.9-36.9-.3c-1.3,0-2.6-.3-3.7-.9-1.3-.7-2.1-2-2-3.6v-.8c0-1.7.9-3.3,2.3-4.1.7-.5,1.5-.6,2.2-.6l38.2.5.8-1.1-1.1-1-36.3-1.3c-1.7,0-3.4-.6-4.8-1.5-.9-.5-1.4-1.6-1.4-2.7,0-1.6.8-3,2-3.8,1.5-1,3.3-1.5,5.1-1.5h.2l43.9,1c4.3.3,8.6,1.2,12.6,2.7l2.2,1.2c2.5,1.4,5,3,7.4,4.5l3.6,2.3c.5.3.8.5,1.3.8l1.5.8c2.6,1.4,5.3,2.2,8.2,2.5h.8l10.1.5v.4c-.9,8-.2,14.9,2.3,21.6l.2.5h-15.4c-1.4,0-2.6,0-3.9.3-1.7.3-3.2.9-4.6,1.8-2.6,1.7-5.6,3-8.6,3.8l-2.6.8-4.4,1.1c-3,.7-6,1.1-8.9,1.2h-2l.2-.2ZM61.5,269.2c-.7,0-1.4.2-1.9.7-.8.7-1.4,1.7-1.4,2.8v.9c0,1.1.5,2.1,1.4,2.7,1.2.8,2.6,1.2,4,1.3l44.4,1.5h1.9c3-.2,5.9-.6,8.9-1.3l4.4-1.1,2.6-.8c3-.8,5.8-2.1,8.4-3.7,1.5-.9,3.2-1.6,4.8-1.9,1.4-.2,2.7-.4,4.1-.4h14.4c-2.4-6.4-3.1-13.2-2.3-21l-10.3-.5c-3-.2-5.8-1.1-8.4-2.6l-1.5-.8c-.5-.2-.9-.5-1.4-.8l-3.6-2.3c-2.3-1.5-4.8-3-7.3-4.5l-2.1-1.2c-3.9-1.4-8.1-2.3-12.3-2.7h-.4l-43.5-1c-1.7,0-3.4.5-4.9,1.4-1.1.7-1.7,1.9-1.7,3.2,0,.8.4,1.7,1.1,2.1,1.4.8,3,1.4,4.5,1.4l36.6,1.3,1.8,1.5-1.3,2h-.2l-38.5-.5c-.7,0-1.3.2-1.8.5-1.2.8-1.9,2.1-2,3.6v.8c0,1.2.6,2.4,1.7,3,1.1.5,2.2.8,3.4.8l37.2.3,1.4,1.6-1.7,1.7h-.2l-36.8-.3c-1.1,0-2.3.3-3.3.9-.8.5-1.4,1.4-1.4,2.4v2.6c0,.7.3,1.4.9,1.7,1,.5,2,.7,3.2.7l36.3.3c.8,0,1.5.4,2,1,.5.5.5,1.4,0,2-.3.4-.8.6-1.2.6l-37.8-.2h0Z"/>
  <path class="st0" d="M341,268.4c-.5-3.3-1.2-6.4-2.3-9.5v-.2c-1.3-3.5-3.2-6.6-5.6-9.3l-.9-1s-.5-.5-.8-.8c-2-1.6-4.4-2.3-6.8-2.2l-23.8,1.7-17.3,2-11.1,1.2-5.7.5c-1.9.2-3.7.2-5.6.3v1.4c.2.6.4,1.2.6,1.8,2.8.7,4.8,2.7,6.3,5.2,2.6,2.8,4.2,6.6,4,10.5,0,.3.2.6.2.9h4.8c5.1,0,10.1.4,15.2,1l1.6.2c3.9.5,7.6,1.2,11.4,2.1l6.9,1.7,2.1.5c2,.5,4.2,1,6.3,1.3l.9.2c2.8.4,5.7.6,8.6.6s4.3-.6,6.3-1.6c1.4-.8,2.5-1.8,3.4-3.1,1.1-1.6,1.5-3.6,1.2-5.5h0ZM306.3,253.7c-.2.8-.8,1.2-1.5,1.3-1.1.6-2.3.9-3.6,1-1,0-2,0-3-.2-1.1-.2-2.1-.4-3-.5-.8-.2-1.2-1-1.2-1.7s.5-1.6,1.2-1.7c2.4-.4,4.8-.9,7.3-.9h.4c.5,0,1.1,0,1.5.2.2,0,.5.2.7.4h0c.9.2,1.4,1.3,1.2,2.2h0ZM335.9,266.8c-1.7,1.7-3.7,0-5-1.3-.2-.2-.3-.3-.5-.5-3-2.3-6.4-3.9-9.9-5.2-4.2-1.4-8.6-2.3-12.8-3.7-1.1-.4-1.4-1.6-1-2.7,1.1-2.7,3.7-3.4,6.3-3.3,2.9-.5,5.9-.2,8.6.2,4.2.7,8.6,2.2,11.8,5.2,1.4,1.4,2.7,3.1,3.2,5.1.5,1.7.8,4.6-.6,6.1v.2Z"/>
  <path class="st0" d="M329.4,279c-2.7,0-5.4-.2-8-.6l-.9-.2c-2.1-.3-4.2-.8-6.3-1.3l-2.1-.5-6.9-1.7c-3.7-.9-7.6-1.6-11.4-2.1l-1.6-.2c-5-.6-10.1-1-15.1-1h-5.1v-.3c0-.3-.2-.6-.2-.9.2-3.7-1.3-7.4-3.9-10.3-1.5-2.8-3.6-4.5-6.1-5.1h-.2v-.2c-.2-.6-.4-1.2-.5-1.8v-1.8h.4c2,0,3.8-.2,5.5-.3l5.7-.5,28.4-3.2,23.8-1.7c2.5-.2,5.1.6,7,2.3.3.2.5.5.8.8l.9,1c2.4,2.7,4.3,5.9,5.6,9.4v.2c1.1,3.1,2,6.3,2.3,9.6.3,2-.2,4-1.3,5.7-.9,1.4-2.1,2.5-3.6,3.3-2,1.1-4.2,1.7-6.4,1.7h-.7ZM272.4,270.8h4.6c5.1,0,10.2.4,15.2,1l1.6.2c3.9.5,7.7,1.2,11.4,2.1l6.9,1.7,2.1.5c2,.5,4.2,1,6.2,1.3l.9.2c2.8.4,5.7.6,8.5.5,2.1,0,4.2-.5,6.1-1.6,1.3-.7,2.4-1.7,3.3-3,1-1.5,1.4-3.4,1.2-5.2-.5-3.3-1.2-6.4-2.3-9.5v-.2c-1.3-3.4-3.1-6.5-5.5-9.2l-.9-1-.7-.7c-1.9-1.5-4.2-2.3-6.6-2.1l-23.8,1.7-28.4,3.2-5.8.5c-1.7.2-3.4.2-5.3.3v1c.2.5.3,1.1.5,1.6,2.6.7,4.8,2.6,6.3,5.3,2.7,3,4.2,6.9,4.1,10.7,0,.2,0,.4.2.5h0ZM334.3,267.9c-1.6,0-3.1-1.4-3.7-2,0,0-.2-.2-.3-.3l-.2-.2c-3-2.2-6.3-3.9-9.8-5-2.1-.7-4.3-1.3-6.4-1.9-2.1-.5-4.2-1.1-6.4-1.8-.5-.2-1-.6-1.2-1.1,0-.2-.2-.5-.2-.7-.3.3-.8.5-1.2.6-1.1.6-2.3.9-3.8,1-1,0-2,0-3-.2-1.1-.2-2.1-.4-3-.5-.9-.2-1.4-1.2-1.5-2,0-.8.6-2,1.5-2.1.6,0,1.2-.2,1.8-.3,1.8-.3,3.7-.6,5.6-.7h.5c.5,0,1,0,1.5.2.3,0,.5.2.8.4.8.2,1.3.8,1.4,1.6,1.1-2,3.3-3,6.3-3,2.3-.4,5.2-.3,8.6.2,5.1.8,9.1,2.6,12,5.2,1.6,1.5,2.7,3.3,3.3,5.3.5,2,.7,4.9-.7,6.4-.6.6-1.2.8-1.8.8l-.2.2ZM312.6,250.6c-2.9,0-4.7,1.1-5.6,3.2-.2.5-.2,1,0,1.4.2.4.5.6.8.8,2,.7,4.2,1.3,6.3,1.8,2.1.6,4.3,1.1,6.5,1.9,3.6,1.2,7,3,10.1,5.2l.2.2s.2.2.3.3c2,2,3.5,2.3,4.5,1.3,1.3-1.3.9-4.2.5-5.7-.5-1.8-1.6-3.6-3.1-4.9-2.8-2.6-6.7-4.3-11.7-5.1-3.3-.5-6.1-.6-8.5-.2h-.4v-.2ZM302.4,251.3c-1.8,0-3.7.3-5.5.6-.6,0-1.2.2-1.8.3-.5,0-1,.8-.9,1.4,0,.6.4,1.3,1,1.4,1,.2,2,.4,3,.5,1,.2,1.9.2,2.9.2,1.4,0,2.5-.4,3.6-1h.2c.5,0,1.1-.4,1.2-1.1.2-.7-.2-1.6-.9-1.8l-.2-.2s-.3-.2-.5-.3c-.5,0-1-.2-1.5-.2h-.5Z"/>
  <path class="st0" d="M252.6,271c-2-2.8-3.3-6-2.3-9.9,0-.2-.2-.4-.3-.6-1.2-3.2-4-7.2-7-9.3h-25.6l-3-.2c3.6,1.9,7,5.5,8.9,8.6,2,3.6,2,7.4,1.1,11.2l28.2.2Z"/>
  <path class="st0" d="M253.3,271.4h-.7l-28.7-.2v-.5c1.1-4.3.8-7.8-1-10.9-1.9-3.3-5.4-6.7-8.7-8.5l-1.4-.7,4.5.2h25.7v.2c3.3,2.2,6.1,6.4,7.3,9.5,0,.2.2.4.3.5v.3c-.8,3.3,0,6.3,2.3,9.5l.4.5ZM224.8,270.5l27.2.2c-2.1-3.2-2.7-6.2-2-9.5,0-.2-.2-.4-.2-.5-1.1-3-3.8-7-6.8-9.1h-25.5l-1.7-.2c3,2,6.1,5.1,7.8,8,1.7,3.1,2.2,6.7,1.3,11h0Z"/>
  <path class="st0" d="M160.8,316.2c.5,7.6-2.5,15.2-8.5,20-.4.3-.8.6-.8,1.2s.4,1,1,1.1c.6.1,1-.2,1.5-.6.4-.4,1-.8,1.4-1.3.8-.7-.4-1.9-1.2-1.2-.3.3-.6.5-1,.8-.2.1-.4.5-.7.6h.4s.2.1.3.3h0c0-.1,0,.1,0,.3h0c0-.1,0,.1,0,.3.1-.2.5-.4.7-.5.3-.3.6-.5.9-.8.5-.5,1.1-1,1.5-1.6,1-1.2,1.9-2.4,2.7-3.7,1.6-2.8,2.7-5.9,3.2-9.1.3-1.9.4-3.8.2-5.7,0-1.1-1.8-1.1-1.7,0h0Z"/>
  <path class="st0" d="M153,334.9c-1.1-.2-1.5-1.3-1.9-2.2-.5-1-1-1.9-1.4-2.9-1-2.1-1.7-4.2-2.4-6.4-.6-2.1-1.5-4.3-1.3-6.4,0-1,.7-1.9,1.2-2.7.6-.8,1-1.9,1.3-2.9.3-1-1.2-1.4-1.5-.4-.3,1.1-.9,2.1-1.5,3-.6,1-1,2-1.1,3.2-.1,2.4.8,4.8,1.5,7.1.8,2.4,1.6,4.7,2.6,7,.5,1.1,1,2.2,1.6,3.3.5,1,1.2,1.7,2.3,1.9,1,.1,1.5-1.4.4-1.5h0Z"/>
  <path class="st0" d="M155.4,333s-.4.4-.6.6c0,0-.2.2-.3.2,0,0-.1,0-.2.1-.1,0-.2.1-.4.2,0,0-.1,0-.1,0h-.7c-.1,0-.3,0-.4-.1h-.1s-.1,0-.2,0c-.2-.1-.4-.2-.7-.4,0,0-.2-.1-.3-.2,0,0,0,0-.1-.1,0,0,0,0-.1-.1h0c0-.2-.1-.3-.2-.4-.1-.2-.2-.5-.4-.7-.1-.3-.3-.6-.6-.8-.3-.4-.9-.3-1.2,0-.3.4-.3.8,0,1.2h0c0,0,0,0,0,0,0,0,0,0,0,.1,0,.1.1.2.2.4.1.2.2.5.4.7.3.6.8,1,1.4,1.4.2.1.5.3.7.4.4.1.6.3,1,.4.4,0,.8.1,1.2,0,.4,0,.6-.2.9-.4.6-.4,1.2-.9,1.7-1.4.3-.4.4-.9,0-1.2-.3-.3-.9-.4-1.2,0h.3Z"/>
  <path class="st0" d="M156,331.3s-.6.6-.9.9c0,0-.1.1-.2.2,0,0-.3.2-.1.1-.1.1-.3.3-.6.3,0,0-.2.1-.1,0,0,0-.2,0-.3,0,0,0-.2,0-.3,0h-.7c-.1,0-.2,0-.3,0,0,0-.2,0-.1,0h-.1c-.2,0-.3-.2-.5-.3.1,0,0,0-.1,0,0,0-.1-.1-.2-.2,0,0-.1-.1-.2-.2,0,0-.1-.1,0,0h0c-.6-.9-1-1.8-1.4-2.7-.6-1-1.1-2-1.6-3-.2-.4-.8-.5-1.1-.3-.3.2-.5.7-.3,1.1.5,1,1,1.9,1.5,2.9.5.9,1,1.9,1.5,2.7.6.8,1.3,1.5,2.3,1.8.8.4,1.8.4,2.7,0,1-.4,1.9-1.3,2.7-2.1.3-.3.4-.8,0-1.1-.3-.3-.8-.4-1.1,0h-.2Z"/>
  <path class="st0" d="M156.2,334.6c1.2-1.1,1.7-2.8,2.3-4.2.7-1.7,1.3-3.3,1.9-5.1,1.1-3.4,2-6.9,2.2-10.5,0-1.2-1.8-1.2-1.9,0-.2,3.3-1.1,6.7-2.1,9.9-.5,1.5-1.1,3.2-1.7,4.7-.5,1.4-1,2.9-2,3.9-.9.8.5,2.2,1.3,1.3h0Z"/>
  <path class="st0" d="M161.5,316.4c1.3,0,1.3-2.1,0-2.1s-1.3,2.1,0,2.1Z"/>
  <path class="st0" d="M161.5,316.4c1.3,0,1.3-2.1,0-2.1s-1.3,2.1,0,2.1Z"/>
  <path class="st0" d="M160.5,315v.6c0,0,0,.2,0,.3,0,0,0,.2.2.3,0,0,.2.2.3.2s.3,0,.3,0h.3c0,0,.3,0,.4-.2l.2-.2s.2-.3.2-.5v-.3s-.2-.3-.3-.4c0,0,0,0,.2.2v.3h0v.5-.4c0-.2,0-.3,0-.3,0,0-.2-.2-.3-.3,0,0-.2-.2-.4-.2h-.3s-.3,0-.5,0l-.2.2s-.2.3-.3.4v-.2Z"/>
  <path class="st0" d="M145.2,307.8l1.1.7s.3.2.5.3h0v.3c0,0,0,0,0,0v.8c0,.2,0,.4-.2.5,0,0,0,.2,0,.2,0-.2,0,0,0,.2,0,.2-.2.3-.3.5-.2.3-.4.6-.6.9-.5.6-.9,1.1-1.3,1.8-.5.8-.8,1.6-.9,2.5,0,.5.5.9.8.8.5,0,.8-.4.8-.8h0v-.3c0,0,0-.2,0-.2h0c0,0,0-.3,0-.2,0,0,0-.2,0-.2,0,0,0-.2.2-.2,0-.2.2-.3.3-.5.4-.6.9-1.2,1.4-1.8,1-1.4,1.8-3.3,1-4.9-.2-.5-.7-.8-1.1-1.1-.4-.3-.9-.5-1.4-.8-.4-.2-1,0-1.2.3-.2.4,0,1,.3,1.2l.4-.2Z"/>
  <path class="st0" d="M148,307.9s-.5-.5-.7-.8c0,0,0-.2-.2-.2,0-.2-.2-.3-.3-.4-.4-.5-.7-1.1-.9-1.7,0,0,0-.2,0-.2,0,.2,0,0,0,0,0-.2-.2-.3-.2-.5-.2-.3-.2-.6-.3-1s-.2-.6-.2-1c0-.2,0-.3,0-.5v-.3c0-.8,0-1.5,0-2.3,0-.5-.5-.9-.8-.8-.5,0-.8.4-.8.8-.2,2.9.5,5.8,2,8.2.5.7,1,1.4,1.5,2,.3.3.9.3,1.2,0,.3-.4.3-.9,0-1.2h-.2Z"/>
  <path class="st0" d="M166.3,315.9c0-.5-.2-1.1,0-1.7.2-.8.7-1,1.3-1.2,1.3-.6,2.6-1.1,3.9-1.7,1.3-.6,2.3-1.3,3.4-2.1s2.1-1.7,3.3-2.6c4.3-3,9.5-4.2,13.9-6.9,1.4-.8,2.6-1.7,3.9-2.6,1.4-.9,2.9-1.7,4.4-2.6,1-.5,0-2-.9-1.5-2.7,1.4-5.1,3.3-7.7,4.8-2.3,1.4-4.8,2.5-7.3,3.6s-5.1,2.2-7.3,3.8c-1.2.8-2.3,1.8-3.4,2.7-1.1.9-2.3,1.5-3.6,2.1-.8.4-1.6.8-2.3,1.1-.7.3-1.4.5-2,1-1.1.9-1.1,2.4-1,3.7.2,1.1,1.9,1.1,1.7,0h0Z"/>
  <path class="st0" d="M174.6,280.3c1.3,0,1.3-2.1,0-2.1s-1.3,2.1,0,2.1Z"/>
  <path class="st0" d="M174.4,280.3c3.2.3,6.6-.2,9.5-1.4.5-.2.8-.6.6-1.1-.2-.4-.6-.8-1.1-.6-1.5.6-3,1-4.6,1.2-.2,0,0,0,0,0h-2c-.8,0-1.6,0-2.4,0-.5,0-.9.5-.9.9,0,.5.4.9.9.9v.2Z"/>
  <path class="st0" d="M202.5,266.5c.6-.2,1.1-.5,1.6-.8.2-.1.4-.3.7-.4.1-.1.3-.2.5-.4h0s.1,0,.2-.1h-.2,0-.2.1-.4s0-.1,0-.1h0v-.3h0c0,.1,0,0,0,0h0c0,.1,0,0,0,0v.2-.2h0c0,.1,0,.2-.1.3l-.4.4c-.1.1-.4.3-.5.4,0,0-.1.1-.2.2,0,0,0,0-.1.1-.7.5-1.4.9-2.1,1.4-.4.2-.9.5-1.3.7-.4.2-.5.8-.3,1.1.2.4.7.5,1.1.3,1.3-.7,2.7-1.5,4-2.5.3-.2.6-.5.9-.8.3-.3.6-.6.8-.9.3-.6.2-1.2-.2-1.6-.2-.2-.6-.4-.9-.4s-.6.2-.9.4c0,0,0,0-.1,0,0,0-.2.1-.3.2-.1.1-.4.2-.5.4-.4.2-.8.4-1.2.6h.2-.3c-.2,0-.4.2-.5.4,0,.1-.1.4,0,.6.1.4.6.7,1,.6l-.3.2Z"/>
  <path class="st0" d="M172.8,237.6c.6.4,1.3.5,2,.5s1.4-.2,2-.4l-1-1.3.2-.2s-.2.2-.3.3l.2-.2s-.2.2-.4.2h.2-.5.2-.2c-.2,0-.5,0-.6.2-.2.2-.2.4-.2.6s0,.5.2.6c.2.2.4.2.6.2.5,0,.8-.2,1.2-.3.4-.2.7-.5.9-.8v-.2s0-.2.2-.2c0-.2,0-.4-.2-.5,0-.2-.2-.2-.4-.3-.2,0-.4,0-.5,0-.4.2-.8.3-1.3.3h.2-1,.2s-.5,0-.8-.2h.2-.3c-.2,0-.5-.2-.7,0-.2,0-.5.2-.5.4,0,.2-.2.5,0,.7,0,.2.2.4.4.5h-.2Z"/>
  <path class="st0" d="M176.7,236.2h-1.4c.2,0,0,0-.2,0-.2,0-.2,0-.4,0,0,0-.2,0-.2,0,0,0,0,0-.2,0-.9-.4-1.7-.7-2.6-.9-1.9-.2-3.7,0-5.5.4-.5,0-.8.7-.6,1.1.2.5.6.7,1.1.6.4,0,.9-.2,1.3-.2h.4s.3,0,.2,0h2.9c-.2,0,.2,0,.2,0,.4,0,.8.2,1.2.3h.2c0,0,.2,0,.3.2.2,0,.5.2.6.3.9.4,1.9.4,2.8.4s.9-.4.9-.9c0-.5-.4-.9-.9-.9v-.2Z"/>
  <path class="st0" d="M221.1,223.1h0c0,0,0-.1,0-.1v.5-.2s0,.3,0,.5v-.2s0,.3-.1.4h.1c0-.1-.2,0-.3.1h.1c0-.1-.2,0-.3,0h.2-.3.2-.5.2s-.5,0-.7-.1h.2c-.4,0-.8-.3-1.1-.6h.1c0,.1-.6-.3-.8-.6-.3-.3-.8-.3-1.1,0-.3.3-.3.8,0,1.1.3.4.8.8,1.3,1,.5.3.9.6,1.4.7.6.1,1.3.1,1.8-.1.4-.2.8-.6,1-1,.3-.6.3-1.2.3-1.7,0-.2-.2-.4-.3-.5-.1,0-.4-.1-.6,0-.2,0-.3.2-.5.3-.1.2-.1.4,0,.6v-.2Z"/>
  <path class="st0" d="M219.7,223.9c-.6-.8-1.2-1.5-2-2.1-.2-.2-.5-.4-.8-.6,0,0-.2,0-.3,0h-.4c-.2,0-.4.2-.5.4,0,.2-.1.4,0,.7v.2s.3.2.4.3c.1.1.4.2.5.4h-.1c.7.4,1.2.9,1.7,1.5h-.1c0-.1.1,0,.2.1,0,0,.1.1.2.2,0,0,.1.1.3.1h.4c.1,0,.2,0,.3,0,.1-.1.4-.3.4-.5s0-.4,0-.7h0Z"/>
  <path class="st0" d="M10.2,271.8c-1.4,0-2.5,0-3.5,0-1,.1-1.7.5-2.3.9-.6.5-1.1,1.1-1.5,2s-.6,2.1-.8,3.6c0,.3-.1.5-.4.7-.2.1-.5.2-.8.1-.2,0-.5,0-.7-.2-.2-.2-.3-.4-.3-.7,0-1.6.2-3.3.5-5.3s.4-3.8.4-5.6c0-1.1,0-2,0-2.9v-5.3c0-.9,0-1.8,0-2.9,0-.3.2-.5.4-.6.2,0,.5-.1.8,0,.2,0,.5.1.8.3.2.2.3.4.3.6,0,1.5.2,2.8.4,3.7.2.9.6,1.7,1.2,2.2.5.5,1.3.9,2.3,1.1.9.2,2.1.3,3.6.4l22.4,1.1h3.5c.9,0,1.7-.3,2.3-.7.7-.4,1.1-.9,1.5-1.5.4-.7.8-1.5,1-2.5.2-.7.3-1.4.4-2.3,0-.8.2-1.7.2-2.6v-3.3c0-1.1-.1-1.8-.3-2.3-.2-1-.5-1.9-.8-2.6-.3-.8-.8-1.4-1.3-1.9-.5-.5-1.2-1-2-1.3-.8-.4-1.9-.7-3.2-.9-.2,0-.5-.2-.5-.5,0-.3,0-.6,0-1s0-.7.2-.9c.2-.2.3-.4.5-.3,1.8.3,3.5.6,5,.9,1.6.3,3.2.4,4.8.4s.3.1.5.3c.2.2.3.7.3,1.4l-1.4,26.5c0,1.9-.2,3.8-.2,5.5v5.2c0,.4-.2.6-.4.8-.2.2-.5.2-.8.2s-.5,0-.8-.3c-.2-.1-.4-.5-.4-.8,0-1.5-.2-2.8-.4-3.7-.2-.9-.4-1.7-.8-2.2-.5-.5-1-.9-1.7-1.1-.8-.2-1.9-.4-3.3-.5l-25.1-1.3.2-.3Z"/>
  <path class="st0" d="M8.7,196.6c0-.4.2-.8.3-1.1.2-.4.5-.5,1.1-.2.5.2,1,.3,1.6.5.6,0,1.2.2,1.8.3,1.9.3,3.7.6,5.4.8.2,0,.3.2.4.4,0,.2,0,.5,0,.8,0,.3,0,.6-.2.8-.2.2-.3.4-.6.4-1.7,0-3.1.2-4.1.3-1,.2-1.8.5-2.4,1.1-.6.5-1.1,1.3-1.4,2.3-.3,1-.6,2.4-1,4.1l-.8,4.4c-.2,1.3-.4,2.3-.5,3,0,.8,0,1.4.2,1.9.2.5.6.8,1.1,1.1.5.3,1.4.5,2.4.7l11.2,2c.6,0,1,0,1.2-.2.2-.2.3-.5.4-.7.4-2.2.6-4,.7-5.3,0-1.3,0-2.4-.4-3.1-.3-.8-.8-1.3-1.5-1.6-.7-.4-1.6-.7-2.7-1.1-.2,0-.4-.3-.5-.5-.2-.2,0-.5,0-.8,0-.3.2-.5.3-.8.2-.2.4-.3.6-.2.7.2,1.3.2,1.8.4.5.2,1.1.3,1.6.5.5.2,1.1.3,1.7.5.5.2,1.2.3,2,.5,1.3.2,2.4.4,3.6.4s2.4.2,3.9.5c.2,0,.4.2.4.5v.8c0,.3-.2.5-.3.8-.2.2-.4.3-.6.3h-3.1c-.8,0-1.4.4-2,1-.5.6-1,1.5-1.4,2.7-.4,1.2-.8,3-1.1,5.2,0,.2,0,.5,0,.8,0,.3.4.5.8.5l8.4,1.5c1.4.2,2.6.3,3.6.3s1.8-.2,2.6-.5c.7-.3,1.3-.8,1.7-1.4.5-.5.9-1.3,1.2-2.1.2-.7.5-1.4.7-2.3.2-.8.4-1.7.5-2.7.2-1.1.4-2.3.5-3.3,0-1.1,0-1.8,0-2.4-.2-1-.3-1.9-.5-2.7-.2-.8-.5-1.4-1.1-2.1-.5-.6-1.1-1.1-1.9-1.6-.8-.5-1.8-.9-3-1.3-.2,0-.4-.3-.5-.6,0-.3,0-.6,0-1s.2-.6.4-.9c.2-.2.4-.3.6-.2,1.7.5,3.4,1.1,4.9,1.5,1.5.5,3.1.8,4.7,1.1.2,0,.3.2.5.4.2.2.2.7,0,1.4l-4.6,26.5c-.3,1.8-.6,3.6-.8,5.5-.2,1.8-.5,3.4-.6,4.8,0,.4-.2.7-.5.8-.2.2-.5.2-.8.2s-.5-.2-.8-.4-.3-.6-.2-1c0-1.2,0-2.2,0-3.1,0-.8-.3-1.6-.7-2.2-.4-.6-.8-1.1-1.5-1.5s-1.5-.7-2.6-.8l-24.7-4.3c-.9-.2-1.9-.3-2.8-.4-.9,0-1.7,0-2.6,0-.8,0-1.5.4-2.2.8-.6.4-1.1,1.1-1.5,1.9-.2.5-.5,1.1-.6,1.6-.2.5-.4,1.1-.5,1.7,0,.3-.2.5-.5.6-.2,0-.5.2-.8,0-.3,0-.5-.2-.7-.4-.2-.2-.2-.5-.2-.7.3-1.7.6-3.1.9-4.4.3-1.3.6-2.8.9-4.6l4.6-26.2h.2Z"/>
  <path class="st0" d="M25.6,141c.8-2,1.8-3.8,2.9-5.4,1.1-1.6,2.4-3,3.8-4.4.4-.5.8-.8,1.1-1.2.4-.4.6-.7.8-1.1.3-.8,0-1.4-.6-1.9-.2,0-.2-.3-.2-.6,0-.3,0-.5.2-.8.2-.2.2-.5.4-.6.2-.1.3-.1.5,0,.6.5,1.2.8,1.8,1.1.7.3,1.4.7,2,.9,1.1.5,2.3.8,3.5,1.1,1.2.3,2.4.5,3.7.8.2,0,.2.2.3.5,0,.2,0,.5-.2.8,0,.3-.2.6-.5.8-.2.2-.4.4-.6.3-4.1-.3-7.5.5-10.2,2.3-2.7,1.8-4.8,4.7-6.4,8.6-1.2,3-1.6,5.7-1.3,8.1.3,2.3,1.2,4.5,2.5,6.4,1.4,1.9,2.9,3.5,4.9,4.7,2,1.3,4,2.3,6,3.2,2.3.9,4.6,1.5,7,1.9,2.4.4,4.8.3,7.1-.2,2.3-.5,4.4-1.5,6.3-3,2-1.5,3.5-3.7,4.6-6.5.9-2.2,1.5-4.2,1.8-6,.4-1.9.3-3.5-.2-5.1-.6-1.9-1.5-3.6-2.8-5.1-1.3-1.5-2.9-2.9-4.7-4-.2-.2-.4-.4-.4-.7s.2-.5.3-.8c.2-.2.4-.5.6-.6.2-.1.5-.1.6,0,.8.5,1.5.8,2.3,1.2.8.4,1.5.7,2.3,1,1.4.5,2.8,1.1,4.2,1.5,1.4.5,3,.9,4.6,1.5.2,0,.4.2.5.5v.8c0,.2-.2.5-.4.7-.2.2-.4.3-.6.2h-1.2c-.5,0-.8.3-1.2.5-.4.2-.7.7-.8,1.1-.2.5-.2,1.1-.2,1.7,0,1.2,0,2.3,0,3.4s-.2,2.1-.3,3.2c-.2,1.1-.5,2.1-.8,3.2-.3,1.1-.8,2.3-1.2,3.5-3.2,8.1-7.3,13.3-12.4,15.7-5.1,2.4-10.9,2.4-17.5-.2-3.5-1.4-6.4-3.2-8.6-5.6-2.2-2.3-3.8-4.9-4.8-7.8-1-2.9-1.4-6-1.1-9.3.2-3.3,1.1-6.8,2.5-10.2v.2Z"/>
  <path class="st0" d="M75.7,92.5c.3-.5.5-.9.5-1.2s-.2-.6-.6-.9l-7.4-5c-1.1-.8-2.1-1.3-3-1.7-.9-.4-1.8-.5-2.5-.5-.8,0-1.6.4-2.4,1-.8.6-1.6,1.4-2.6,2.7-.2.2-.4.4-.7.4s-.5,0-.8-.2c-.2-.2-.4-.3-.5-.6,0-.2,0-.5,0-.8.9-1.3,1.9-2.7,3.2-4.4,1.2-1.6,2.4-3.1,3.4-4.7.6-.8,1.1-1.7,1.6-2.4.5-.8.9-1.5,1.4-2.3.5-.8.9-1.5,1.4-2.3.5-.8,1-1.6,1.5-2.4.2-.2.4-.4.6-.3.2,0,.5,0,.7.3.2.2.4.4.5.6,0,.2,0,.5,0,.7-.8,1.3-1.3,2.4-1.6,3.4-.3.9-.3,1.8-.2,2.5.2.8.7,1.4,1.4,2.1s1.7,1.4,2.9,2.2l21.3,14.3c1.2.8,2.2,1.4,3,1.6.8.3,1.5.3,2.1.2.7-.2,1.4-.6,2.1-1.3.7-.7,1.5-1.6,2.4-2.7.2-.2.5-.3.7-.4.3,0,.5,0,.8.2.2.2.4.4.5.6,0,.2,0,.5-.2.8-1.1,1.7-2.2,3.2-3.4,4.6-1.1,1.4-2.2,2.8-3.2,4.3-1.1,1.5-2.1,3.2-3,5-1,1.8-1.9,3.4-2.8,4.6-.2.2-.4.4-.6.4s-.5,0-.7-.2c-.2-.2-.4-.3-.5-.6,0-.3,0-.5,0-.8.8-1.4,1.3-2.4,1.7-3.4.4-.8.5-1.7.4-2.4,0-.7-.5-1.3-1-1.9-.5-.6-1.4-1.3-2.7-2.1l-9-6c-.9-.6-1.7-.5-2.3.4l-12.3,18.4c-.6.9-.5,1.6.2,2.1l9.3,6.3c1.2.8,2.2,1.4,3,1.6.8.3,1.5.3,2.1.2.7-.2,1.4-.6,2.1-1.3s1.5-1.6,2.4-2.7c.2-.2.5-.4.7-.4s.5,0,.8.2c.2.2.4.4.5.6,0,.2,0,.5-.2.8-1.1,1.7-2.2,3.1-3.4,4.6-1.1,1.4-2.2,2.8-3.2,4.3-1.1,1.5-2.1,3.2-3,5-1,1.8-1.9,3.4-2.8,4.6-.2.2-.4.4-.6.4s-.5,0-.7-.2c-.2-.2-.4-.3-.5-.6,0-.2,0-.5,0-.8.8-1.4,1.3-2.4,1.7-3.4.4-.9.5-1.7.4-2.4,0-.7-.5-1.3-1-1.9-.6-.6-1.4-1.3-2.7-2.1l-21.2-14.3c-1.1-.8-2.1-1.3-3-1.7-.9-.4-1.8-.5-2.5-.5-.8,0-1.6.4-2.4,1-.8.6-1.6,1.4-2.6,2.7-.2.2-.4.4-.7.4s-.5,0-.8-.2c-.2-.2-.4-.3-.5-.6,0-.2,0-.5,0-.8.9-1.3,1.9-2.7,3.2-4.4,1.2-1.6,2.4-3.1,3.4-4.7.6-.8,1.1-1.7,1.6-2.4.5-.8.9-1.5,1.4-2.3s.9-1.5,1.4-2.3c.5-.8,1-1.6,1.5-2.4.2-.2.4-.4.6-.3.2,0,.5,0,.7.3.2.2.4.4.5.6,0,.2,0,.5,0,.7-.8,1.3-1.3,2.4-1.6,3.4-.3.9-.3,1.8-.2,2.5.2.8.7,1.4,1.4,2.1.7.7,1.7,1.4,2.9,2.2l7.4,5c.7.5,1.4.3,2-.6l12.3-18.4v.5Z"/>
  <path class="st0" d="M104.7,34.8s.6-.5.9-.7c.3-.2.7,0,1,.5.2.5.5.8,1,1.3.5.5.8.9,1.2,1.4,1.3,1.5,2.5,2.8,3.8,4,0,.2.2.3,0,.5,0,.2-.2.5-.5.7-.2.2-.5.4-.7.5-.2,0-.5,0-.7,0-1.4-1.1-2.5-1.8-3.5-2.3-.9-.5-1.8-.8-2.5-.7-.8,0-1.6.4-2.5.9-.9.6-2,1.5-3.4,2.6l-3.4,2.9c-1,.8-1.8,1.5-2.3,2.1-.5.5-.9,1.1-1.1,1.6-.2.5,0,1.1.2,1.6.3.5.8,1.2,1.5,2.1l7.6,8.7c.4.5.8.7,1.1.6.3,0,.5-.2.7-.3,1.7-1.5,3-2.8,3.9-3.8.8-1,1.5-1.9,1.6-2.7.2-.8.2-1.5-.2-2.2-.3-.7-.8-1.5-1.5-2.5-.2-.2-.2-.5,0-.8,0-.2.2-.5.5-.7.2-.2.5-.3.8-.4.3,0,.5,0,.7.2.5.5.8,1,1.2,1.5.3.5.6.9,1,1.3.4.4.7.9,1,1.4.4.5.8,1,1.3,1.6.8,1,1.7,1.8,2.5,2.5.8.7,1.8,1.6,2.8,2.8.2.2.2.4,0,.6-.2.2-.3.5-.5.6-.2.2-.5.3-.8.4-.2,0-.5,0-.7-.2-.9-.8-1.8-1.5-2.5-2-.7-.5-1.5-.6-2.2-.5-.8.2-1.7.5-2.8,1.3-1.1.8-2.5,1.9-4.2,3.4-.2.2-.3.4-.4.7,0,.3,0,.6.4,1l5.7,6.5c.9,1.1,1.8,1.9,2.6,2.5.8.5,1.6,1,2.4,1.2.8.2,1.5.2,2.2,0,.8-.2,1.5-.5,2.3-.9.6-.4,1.3-.8,2-1.3.7-.5,1.4-1.1,2.1-1.7.9-.8,1.7-1.5,2.5-2.3.8-.8,1.2-1.4,1.5-1.8.5-.9,1-1.7,1.3-2.5s.5-1.5.5-2.2-.2-1.5-.5-2.5c-.3-.8-.8-1.8-1.5-3-.2-.2-.2-.5,0-.8.2-.3.4-.5.6-.8.2-.2.5-.4.8-.5.3,0,.5,0,.6.2,1,1.5,2,3,2.9,4.3.9,1.3,1.9,2.6,3.1,3.8,0,0,.2.3.2.6s-.3.7-.8,1.2l-20.4,17.8c-1.5,1.2-2.8,2.5-4.1,3.8-1.4,1.2-2.5,2.4-3.5,3.5-.3.2-.6.4-.8.4s-.5-.2-.8-.3c-.2-.2-.3-.5-.4-.8,0-.3.2-.6.5-.9.8-.9,1.5-1.7,1.9-2.5.5-.8.8-1.5.9-2.2.2-.7,0-1.4-.2-2.2-.2-.8-.8-1.5-1.5-2.3l-16.7-19.1c-.6-.7-1.3-1.4-1.9-2.1-.7-.6-1.4-1.2-2.1-1.6-.7-.5-1.5-.7-2.2-.8-.8,0-1.5,0-2.4.5-.5.2-1,.5-1.5.9-.5.3-1,.7-1.5,1-.2.2-.5.2-.7.2s-.5-.2-.6-.4c-.2-.2-.3-.5-.3-.7s0-.5.3-.7c1.3-1.1,2.5-2.1,3.5-2.9,1.1-.8,2.3-1.8,3.6-3l20.2-17.7-.2.2Z"/>
  <path class="st0" d="M150,10.9s.7-.3,1.1-.4c.4,0,.6.2.8.8.4,1.2,1,2.5,1.7,4,.8,1.4,1.4,2.8,2.1,4,0,.2,0,.3-.1.5s-.4.4-.6.5c-.2.2-.5.2-.8.2s-.5,0-.6-.2c-1.1-1.4-1.9-2.4-2.6-3.1-.7-.7-1.4-1.1-2.2-1.4-.8-.2-1.7-.2-2.6.2-1,.3-2.3.8-3.8,1.5l-4,1.9c-1.1.5-2,1-2.7,1.4-.7.4-1.1.8-1.4,1.2-.3.5-.4,1-.2,1.6.1.6.5,1.4.9,2.3l4.8,10.2c.2.5.5.8.8.8s.5,0,.8,0c2-1,3.6-1.8,4.7-2.5,1.1-.7,1.9-1.4,2.3-2.1.4-.7.5-1.4.5-2.2-.1-.8-.4-1.7-.7-2.8,0-.2,0-.5.1-.7.1-.2.4-.4.7-.5.3-.2.5-.2.8-.2s.5.2.6.4c.3.6.5,1.2.8,1.7.2.5.4,1,.5,1.5.2.5.4,1.1.6,1.6.2.5.5,1.2.8,1.9.5,1.1,1.1,2.2,1.7,3.1.6.9,1.2,2,1.8,3.4,0,.2,0,.4-.2.6-.1.2-.4.4-.7.5-.3,0-.5.2-.8.2s-.5,0-.6-.3c-.7-1.1-1.3-1.9-1.8-2.5-.5-.6-1.2-1-2-1.1-.8,0-1.8,0-3,.5-1.2.5-2.9,1.1-4.9,2-.2,0-.4.3-.6.5-.2.2-.2.6,0,1l4.7,9.8c.6,1.4,1.3,2.3,1.9,3,.6.7,1.4,1.1,2.1,1.3.8.2,1.7,0,2.8-.2,1.1-.3,2.3-.7,3.8-1.3.3-.2.6-.2.8,0,.2.2.5.4.5.6,0,.2.2.5,0,.8,0,.3-.2.5-.5.6-2.4,1.1-4.4,2-6.2,2.6-1.8.7-3.5,1.4-5,2.1-1.7.8-3.3,1.7-4.9,2.6-1.6.9-3.1,1.7-4.7,2.5-.3.2-.5.2-.8,0-.2-.2-.4-.3-.5-.5-.1-.2-.1-.5-.1-.8s.2-.5.5-.7c1.2-.7,2.1-1.4,2.9-1.9.7-.6,1.2-1.2,1.4-1.8.2-.6.3-1.4,0-2.1-.1-.8-.5-1.7-1.1-2.9l-10.4-21.9c-.4-.8-.8-1.7-1.3-2.5-.5-.8-1-1.5-1.5-2.1-.5-.6-1.2-1.1-1.9-1.4-.7-.3-1.5-.4-2.4-.2-.5.2-1.1.2-1.7.5-.6.2-1.1.4-1.6.5-.3.2-.5.2-.8,0-.2-.2-.4-.3-.5-.5,0-.2-.1-.5,0-.8,0-.2.2-.5.5-.6,1.5-.7,2.9-1.3,4.1-1.8,1.2-.5,2.6-1.1,4.2-1.9l23.7-11.2h0Z"/>
  <path class="st0" d="M195.9,9c.2-1.3.2-2.3,0-3.1-.2-.8-.4-1.4-.8-1.8-.5-.5-1.1-.8-1.9-1.1-.8-.2-1.8-.5-3.1-.8-.3,0-.5-.2-.7-.5-.2-.2-.2-.5-.2-.8s.2-.5.4-.7c.2-.2.5-.3.8-.2.5,0,1.1.2,2,.3.9.2,2,.3,3.1.5,1.1.2,2.3.4,3.5.5,1.2.2,2.3.4,3.3.6,1,.2,1.8.4,2.4.6.7.2,1,.4,1.1.6l10.7,33.1s.2.2.3.2.3,0,.4-.2l19-29s.7-.2,1.9-.2c1.2,0,2.6.2,4.2.3,1.6.2,3.2.3,4.9.5s3,.3,4,.5c.3,0,.5.2.6.4,0,.2.2.5,0,.8,0,.2-.2.5-.3.7-.2.2-.4.3-.6.3-1.7,0-3.1,0-4,.2-1,0-1.7.4-2.2.9-.5.5-.9,1.4-1.1,2.5-.2,1.1-.5,2.7-.8,4.8l-3.3,24c-.2,1.5-.2,2.5-.2,3.4,0,.8.4,1.5.8,2,.5.5,1.1.9,2.1,1.2.9.3,2.1.7,3.5,1,.3,0,.5.2.6.5.2.2.2.5.2.8,0,.2-.2.5-.4.7-.2.2-.5.2-.8.2-2-.3-3.8-.6-5.6-1.1-1.8-.4-3.5-.8-5.3-1-1.8-.2-3.8-.5-5.8-.5s-3.8-.2-5.4-.5c-.3,0-.5-.2-.6-.4-.2-.2-.2-.5-.2-.8s.2-.5.3-.7c.2-.2.5-.3.7-.3,1.5,0,2.8,0,3.8,0,1,0,1.7-.3,2.3-.6.6-.3,1-.9,1.3-1.7.3-.8.5-1.9.7-3.3l3.3-24.1s-.2-.5-.5-.5c-.4,0-.7,0-.8.3l-13.6,20.6c-.9,1.4-1.9,3-2.8,4.7-1,1.7-1.9,3.4-2.8,5.1,0,.2-.2.2-.5.2h-.7c-.2,0-.5,0-.7-.2-.2,0-.3-.2-.4-.4l-11.8-35s-.2-.4-.6-.5c-.3,0-.5,0-.5.4l-3.3,24.2c-.2,1.5-.2,2.8,0,3.7.2.9.5,1.6,1,2.1.5.5,1.1.9,2,1.1.8.3,1.8.5,2.9.8.2,0,.4.2.5.5,0,.2.2.5,0,.8,0,.2-.2.5-.3.7-.2.2-.4.3-.7.2-1.1-.2-2.3-.4-3.5-.8-1.2-.4-2.8-.6-4.6-.9-1.8-.2-3.5-.4-5.1-.5-1.5,0-2.7,0-3.7-.2-.2,0-.5-.2-.5-.4-.2-.2-.2-.5-.2-.8s0-.5.3-.7c.2-.2.4-.3.7-.3h3.3c.9,0,1.6-.2,2.2-.6.6-.4,1.1-1,1.4-1.8.3-.8.6-2.1.8-3.6l3.8-27.1-.2-.2Z"/>
  <path class="st0" d="M265.3,49c-.6-.4-1.1-.6-1.4-.6s-.8.2-1.2.4l-7.1,4.6c-.5.4-.9.8-1.1,1.1-.3.5-.5.9-.4,1.4,0,.5.2,1,.6,1.4.4.5.8,1,1.2,1.4.5.5,1.1,1,1.7,1.4.3.2.5.5.4.7,0,.3,0,.5-.2.8-.2.2-.4.4-.6.5-.2.2-.5,0-.8-.2-1-.7-2-1.5-3.3-2.5-1.1-1-2.4-1.9-3.5-2.7-1.1-.7-2.1-1.3-3.2-1.8-1.1-.5-2.2-1.1-3.3-1.9-.2-.2-.3-.4-.3-.6s0-.5.2-.8c.2-.2.3-.4.5-.5.2-.2.5-.2.8,0l1,.5c.7.3,1.4.5,2,.8.6.2,1.3.2,2,.2.7,0,1.4-.3,2.2-.6.8-.3,1.7-.8,2.7-1.4l34.4-21.5s.8-.2,1.3.2c.6.4.9.8,1.1,1.4-.5,3-1.1,6.2-1.7,9.6-.6,3.4-1.2,6.9-1.8,10.4-.6,3.6-1.1,7.1-1.7,10.6-.6,3.5-1.1,6.8-1.6,9.9-.2,1.4-.3,2.5-.2,3.4,0,.9.3,1.7.5,2.3.3.6.6,1.1,1.1,1.6.5.5.9.9,1.4,1.4.2.2.3.5.3.7s-.2.5-.2.8c-.2.2-.3.4-.5.5-.2,0-.5,0-.6,0-1.3-.9-2.5-1.8-3.6-2.7-1.1-1-2.4-2-3.9-3-1.7-1.1-3.4-2.1-5-3-1.6-.8-3.1-1.7-4.5-2.7-.3-.2-.5-.5-.5-.8s0-.5.2-.8c.2-.2.3-.4.5-.5.2,0,.5,0,.8.2,1.5.8,2.7,1.3,3.5,1.4.8.2,1.6-.2,2.2-1.1.2-.2.3-.5.5-.9.2-.4.3-.9.5-1.6.2-.7.4-1.6.6-2.7.2-1.1.5-2.6.8-4.3,0-.6,0-1.1-.2-1.4-.2-.4-.8-.8-1.6-1.3l-10.8-7.2v-.2ZM277.3,54c.6.4,1,.5,1.4.5s.5-.3.6-.9l3.1-16.2s0-.5-.3-.6c-.2-.2-.5-.2-.7,0l-14,8.9c-.5.3-.8.6-.7.9,0,.2.3.5.8.8l9.9,6.6Z"/>
  <path class="st0" d="M317.5,114s-.5.2-.8.2c-1.4-.5-2.8-1-4.1-1.4-1.3-.5-2.6-1.2-3.9-2-1.3-.9-2.6-2-4.1-3.4-1.4-1.4-3-3.2-4.8-5.4-2.5-3.1-4.4-6.3-5.5-9.3-1.1-3.1-1.7-6-1.4-8.8.2-2.9,1-5.6,2.5-8.2,1.5-2.6,3.6-5.1,6.4-7.3,2.9-2.3,5.8-3.9,8.8-4.6,3-.8,6-.9,9-.3,2.9.6,5.8,1.8,8.6,3.6,2.8,1.8,5.3,4.2,7.6,7.1,1.4,1.8,2.6,3.8,3.5,5.7.9,2,1.6,4,2.1,5.9.3,1.1.6,1.9,1,2.5.4.6,1,.8,1.9.5.2,0,.4,0,.7,0,.2.2.5.4.6.6s.2.5.3.7c0,.2,0,.4-.2.5-1.6.7-3.1,1.7-4.6,3.1-1.5,1.4-3,2.8-4.5,4.3-.2.2-.4.2-.7,0-.3,0-.5-.2-.8-.5-.2-.2-.4-.5-.5-.8,0-.3,0-.5,0-.8,2.5-2.9,3.6-6.1,3.3-9.7-.3-3.6-1.9-7.2-4.8-10.7-1.8-2.2-3.8-3.8-5.9-4.6-2.2-.9-4.4-1.3-6.6-1.1-2.2.2-4.5.7-6.6,1.6-2.2,1-4.2,2.1-5.9,3.6-2.5,2-4.5,4-6,6.2s-2.6,4.4-3.2,6.6c-.5,2.3-.6,4.5,0,6.7.5,2.2,1.6,4.3,3.2,6.3,1.2,1.5,2.3,2.8,3.5,3.9,1.1,1.1,2.3,1.9,3.5,2.3,1.1.5,2.3.6,3.6.5,1.2-.2,2.4-.8,3.7-1.8,1-.8,1.7-1.5,2.2-2.1.5-.6.7-1.3.6-1.9,0-.7-.3-1.4-.8-2.2-.5-.8-1.1-1.8-2-3.1-.2-.3-.3-.5-.2-.8,0-.2.2-.5.4-.6.2-.2.5-.2.7-.3.2,0,.5,0,.6.3,1.1,1.4,2.1,2.8,3.2,4.2,1.1,1.4,2,2.8,2.9,3.9.5.5.8,1.1,1.3,1.5.5.5.8.9,1.3,1.4s.9,1.1,1.4,1.6c.5.5,1.1,1.2,1.7,2,.2.2.2.4.2.6,0,.2-.2.4-.4.6-.2.2-.4.2-.6.2s-.5,0-.7-.3c-.8-.8-1.4-1.4-1.9-1.7-.5-.3-1.1-.5-1.5-.5s-1,.2-1.4.5c-.5.3-1.1.8-1.7,1.3l-4.6,3.7-.2-.2Z"/>
  <path class="st0" d="M349,112.6c1.2-.6,2.1-1.3,2.9-1.9.8-.6,1.3-1.3,1.6-2,.3-.8.4-1.6.2-2.5-.2-1-.5-2.1-1.2-3.5-.2-.2-.2-.5,0-.8.2-.2.3-.5.5-.5.2-.2.5-.2.8-.2s.5.2.6.5c.8,1.4,1.6,3,2.4,4.9.8,1.8,1.8,3.6,2.6,5.1.5.9,1,1.8,1.4,2.5.5.8.9,1.5,1.4,2.3.5.8.9,1.5,1.4,2.3.5.8.9,1.6,1.4,2.5.2.2.2.5,0,.7-.2.2-.3.4-.5.5-.2,0-.5.2-.8.2s-.5-.2-.6-.4c-.8-1.3-1.6-2.3-2.3-3-.7-.7-1.4-1.1-2.2-1.3-.8-.2-1.6,0-2.5.2-.9.3-2,.8-3.4,1.5l-22.5,12.3c-1.3.7-2.2,1.3-2.8,1.9-.6.5-1,1.1-1.1,1.8-.2.7,0,1.4.2,2.4.2.9.7,2.1,1.3,3.4,0,.3,0,.5,0,.8-.2.3-.3.5-.5.6-.2.2-.5.2-.8.2s-.5-.2-.7-.5c-.9-1.8-1.8-3.4-2.5-5.1-.7-1.7-1.5-3.3-2.4-4.9-.9-1.7-1.9-3.3-3-5-1.1-1.7-2.1-3.2-2.8-4.7-.2-.2-.2-.5,0-.8.2-.2.3-.4.5-.5.2-.2.5-.2.8-.2s.5.2.7.4c.8,1.3,1.6,2.3,2.2,3,.6.7,1.2,1.2,1.8,1.4.6.2,1.4.2,2.1,0,.8-.2,1.8-.7,3-1.4l22.5-12.3h.2Z"/>
  <path class="st0" d="M336.7,167.8c-1.4-3.6-2-7-2.1-10.2,0-3.2.4-6.2,1.5-8.9,1.1-2.6,2.9-5.1,5.2-7.1,2.3-2,5.3-3.8,8.9-5.1,3.1-1.1,6.1-1.6,9.1-1.4,2.9.2,5.7,1,8.2,2.4,2.6,1.4,4.8,3.3,6.9,5.8,2,2.5,3.7,5.4,5,8.9,1.2,3.3,1.9,6.7,1.9,9.8s-.5,6.1-1.5,8.8c-1.1,2.6-2.6,5.1-4.8,7.1-2.1,2-4.7,3.6-7.7,4.8-4.9,1.8-9.4,2.3-13.5,1.3-4.1-1-7.6-2.9-10.6-5.8l-.3.4c-4.5,5.1-6.1,9.1-5,12,.3.8.6,1.5.9,2,.3.5.7.9,1.1,1.2.5.3.9.5,1.5.8.6.2,1.2.4,2,.5.3,0,.5.2.6.5.2.3.2.5.2.8s-.2.5-.4.8c-.2.2-.5.3-.8.3-.9,0-2-.2-3.2-.5-1.2-.2-2.4-.7-3.6-1.2-1.2-.5-2.3-1.3-3.3-2.3-1-1-1.8-2.1-2.3-3.6-.5-1.5-.6-3.1-.2-4.7.4-1.6,1.1-3.2,2-4.7,1-1.5,2-2.9,3.2-4.2,1.2-1.3,2.3-2.4,3.2-3.4-1-1.7-1.7-3.3-2.4-5l.3-.2ZM339.3,167.2c.5,1.3,1.1,2.5,1.9,3.6,1.9-2.2,3.2-4.1,4-5.6.8-1.5,1-3.1.4-4.6-.3-.8-.8-1.4-1.4-1.9-.6-.5-1.3-.9-1.9-1.2-.7-.3-1.3-.5-1.8-.5h-1.1c-.2,0-.4.5-.6,1.1-.2.7-.3,1.5-.4,2.5v3.3c0,1.1.4,2.3.8,3.4h.2ZM348.7,161.2c.7,1.7.8,3.7.6,6-.2,2.3-1.3,4.6-3.2,7.3,2.4,1.1,5.1,1.6,8.2,1.6s6-.6,9-1.7c2.3-.8,4.5-2,6.6-3.3,2.1-1.3,3.8-2.9,5.1-4.6,1.4-1.7,2.2-3.8,2.6-6,.4-2.3,0-4.7-.9-7.3-.9-2.5-2.3-4.5-4-5.8-1.7-1.4-3.7-2.3-5.9-2.9-2.2-.5-4.5-.6-7-.3-2.4.3-4.8.8-7.1,1.7-2.6,1-5.1,2.2-7.3,3.6-2.2,1.4-4,3.1-5.3,5.1.8,0,1.5.2,2.3.5.8.2,1.6.7,2.3,1.2.8.5,1.4,1.2,2.1,2.1.7.8,1.2,1.9,1.7,3.3l-.2-.2Z"/>
  <path class="st0" d="M372,236.1c-2.8.5-5.3.6-7.6.3s-4.4-1.1-6.1-2.3c-1.8-1.3-3.3-3-4.5-5.4-1.3-2.3-2.2-5.2-2.8-8.8-.6-3.4-.8-6.3-.7-9,.2-2.6.8-4.8,1.7-6.6,1-1.8,2.5-3.3,4.4-4.5,1.9-1.1,4.4-2,7.2-2.5l17.8-3.2c1.3-.2,2.4-.5,3.3-.8.9-.3,1.6-.8,2.1-1.4.5-.5.8-1.4,1-2.3.2-1,.2-2.2,0-3.7,0-.3,0-.5.2-.7.2-.2.5-.3.7-.4.2,0,.5,0,.8,0,.2,0,.4.3.5.6.3,1.5.5,3.3.8,5.3.2,2,.5,3.9.8,5.6.2,1,.4,2,.6,2.9.2.9.4,1.7.6,2.6.2.8.5,1.7.6,2.6.2.8.4,1.8.6,2.8,0,.3,0,.5-.2.7-.2.2-.4.2-.7.3-.2,0-.5,0-.8-.2-.2,0-.4-.3-.5-.5-.4-1.5-.8-2.6-1.2-3.6-.5-.8-1-1.5-1.7-1.9-.7-.4-1.4-.5-2.4-.5s-2.2.2-3.6.5l-17.4,3.1c-1.8.3-3.4.9-5,1.7-1.5.8-2.8,1.9-3.8,3.2-1,1.3-1.7,2.9-2.2,4.6s-.5,3.8,0,6c.8,4.7,2.6,8.1,5.4,10.1,2.7,2,6.5,2.6,11.5,1.7l10.8-2c.7-.2,1.5-.3,2.5-.5,1.1-.2,2-.4,3-.6,1-.2,2-.5,2.8-.8.9-.2,1.6-.5,2-.8.7-.4,1.2-.8,1.5-1.1.3-.3.5-.7.6-1.1,0-.5,0-.9,0-1.5,0-.6-.2-1.3-.2-2.2,0-.2,0-.5.2-.6.2-.2.5-.3.7-.3h.8c.2,0,.4.2.5.5.2,1.1.4,2.4.5,3.7,0,1.4.2,2.6.5,4,.2,1.3.5,2.5.9,3.7.4,1.2.7,2.6,1,4.2,0,.3,0,.5-.2.7-.2.2-.4.3-.7.4-.2,0-.5,0-.8,0-.2,0-.4-.3-.5-.6-.2-.8-.5-1.5-.5-2,0-.5-.3-.9-.5-1.2-.2-.3-.5-.5-1-.8-.4-.2-1-.4-1.8-.6-.5-.2-1.3-.2-2.2-.2-.9,0-1.9.2-2.9.2-1,.2-2,.3-3,.5-1,.2-1.9.4-2.6.5l-10.6,1.9-.2.2Z"/>
  <path class="st0" d="M400.3,281.3c0,.4,0,.8,0,1.1,0,.4-.4.5-1.1.5-.5,0-1,0-1.6,0h-1.8c-2,0-3.8.2-5.4.4-.1,0-.3,0-.5-.3-.2-.2-.2-.5-.2-.8v-.8c0-.3.2-.5.5-.5,1.7-.4,2.9-.8,3.9-1.1.9-.4,1.7-.9,2.1-1.5s.8-1.5.8-2.6c0-1.1.2-2.4.2-4.1l-.2-4.4c0-1.3,0-2.3-.2-3,0-.8-.2-1.4-.5-1.8-.3-.5-.8-.7-1.4-.8s-1.4-.2-2.6-.2l-11.3.4c-.6,0-1,.2-1.1.4-.2.2-.2.5-.2.8,0,2.3.2,4,.5,5.3.2,1.3.5,2.3,1.1,2.9.5.6,1.1,1.1,1.8,1.3.8.2,1.7.4,2.9.5.2,0,.5.2.6.5.2.2.2.5.2.8s0,.5-.2.8c-.2.2-.3.4-.6.4h-1.8c-.5,0-1.1,0-1.6,0-.5,0-1.1,0-1.7,0h-2c-1.3,0-2.5.2-3.5.4-1.1.1-2.3.3-3.8.4-.2,0-.4,0-.5-.4-.2-.2-.2-.5-.2-.8s0-.6.2-.8c.1-.2.3-.4.5-.5,1.2-.2,2.3-.4,3-.7.8-.3,1.4-.7,1.7-1.4.4-.7.6-1.7.8-2.9,0-1.3.2-3.1,0-5.4,0-.2,0-.5-.2-.8-.2-.2-.5-.4-1-.3l-8.4.3c-1.4,0-2.6.2-3.5.5-1,.2-1.7.6-2.3,1.1-.6.5-1.1,1-1.4,1.7-.4.7-.6,1.4-.8,2.3,0,.7-.2,1.4-.2,2.3v2.7c0,1.2.2,2.3.2,3.3.2,1.1.3,1.8.5,2.3.3,1,.7,1.8,1.1,2.5.4.7.8,1.3,1.4,1.7.6.5,1.3.8,2.1,1.1.8.3,2,.5,3.2.7.2,0,.5.2.5.5,0,.3.2.6.2,1s0,.7-.2.9c-.2.3-.3.4-.5.4-1.8-.1-3.5-.4-5.1-.5-1.6-.2-3.2-.2-4.8,0-.2,0-.3,0-.5-.3-.2-.2-.4-.7-.4-1.4l-.9-26.6c0-1.9-.2-3.7-.3-5.4-.2-1.8-.3-3.4-.5-4.8,0-.4,0-.7.2-.9.2-.2.5-.3.7-.4.3,0,.5,0,.8.2.2.2.4.5.5.9.2,1.1.4,2.2.7,3,.3.8.6,1.5,1.1,2,.5.5,1.1.9,1.7,1.1.7.2,1.6.4,2.6.3l24.9-.9c1,0,1.9,0,2.8-.2.9,0,1.7-.3,2.5-.5.8-.3,1.4-.7,2-1.2.5-.5.9-1.3,1.1-2.1,0-.5.2-1.1.2-1.7s0-1.1.2-1.7c0-.3,0-.5.3-.7.2-.2.5-.2.7-.2s.5,0,.8.2c.2.2.3.4.4.7v9.1l.9,26.3.3-.2Z"/>
  <path class="st0" d="M391.6,343.9l-15-10.6-14.7,11.1,5.4-17.6-15.1-10.6,18.4-.3,5.4-17.7,6,17.5,18.4-.3-14.6,11.1,5.9,17.4Z"/>
  <path class="st0" d="M42.5,343.9l-15.1-10.5-14.7,11.1,5.4-17.6-15.1-10.5,18.4-.3,5.4-17.7,6,17.4,18.4-.3-14.7,11.1,6,17.4Z"/>
</svg>