<?xml version="1.0" encoding="UTF-8"?>
<svg xmlns="http://www.w3.org/2000/svg" xmlns:xlink="http://www.w3.org/1999/xlink" viewBox="0 0 58.96 51.01">
  <defs>
    <style>
      .cls-1 {
        fill: none;
      }

      .cls-2 {
        mask: url(#mask);
      }

      .cls-3 {
        filter: url(#luminosity-invert);
      }

      .cls-4 {
        fill: #403b94;
      }

      .cls-5 {
        isolation: isolate;
      }

      .cls-6 {
        fill: #4c3f99;
      }

      .cls-7 {
        fill: #3e3795;
      }

      .cls-8 {
        fill: #d62a20;
        mix-blend-mode: darken;
      }

      .cls-9 {
        fill: #3f3994;
      }
    </style>
    <filter id="luminosity-invert" x="-26.02" y="-23.54" width="110.8" height="119.75" color-interpolation-filters="sRGB" filterUnits="userSpaceOnUse">
      <feColorMatrix result="cm" values="-1 0 0 0 1 0 -1 0 0 1 0 0 -1 0 1 0 0 0 1 0"/>
    </filter>
    <mask id="mask" x="-26.02" y="-23.54" width="110.8" height="119.75" maskUnits="userSpaceOnUse">
      <g class="cls-3">
        <g>
          <ellipse class="cls-1" cx="29.67" cy="39.02" rx="28.58" ry="39.33"/>
          <g>
            <path class="cls-7" d="M25.27,43.29l-.16-.22.3-.21c.3-.21.61-.41.93-.6l1.84-1.06,2.14-1.42,1.54-1.22c.27-.21.51-.47.71-.76l.03-.04c.23-.33.32-.75.26-1.15-.04-.24-.14-.47-.29-.66-.43-.52-.93-.94-1.5-1.24l-2.57-1.36.12-.25,2.4,1.12.06-.06c.11-.12.22-.25.33-.38.24-.29.49-.59.78-.83.2-.17.47-.22.72-.14l.03.02.58.38c.34.23.67.48.99.76l.52.46c.45.4.86.84,1.23,1.32l.02.03.09.21.89-.44h0s.41-.46.41-.46c-.03-.42-.11-.84-.22-1.24l-.09-.33c-.14-.51-.34-1.01-.58-1.48-.35-.7-.77-1.37-1.23-2-.4-.54-.86-1.03-1.38-1.44l-.61-.48c-.41-.33-.9-.56-1.41-.68-.46-.1-.92-.13-1.39-.07-.5.06-.97.2-1.42.43l-2.41,1.23s-.04.05-.04.07c0,.01,0,.05.03.07l.25.16-2.7,2.23v.04c.07,0,.14.05.16.11.02.07,0,.14-.05.19l-1.26,1.02,2.76-.06v.28s0,0,0,0l-1.04.02-.68.55c-.3.24-.52.59-.62.98-.06.25-.09.5-.07.75l.05.64c.06.82.5,1.56,1.17,1.97.26.16.54.27.84.33l.12.02c.44.09.9.02,1.29-.2l2.47-1.37.14.23c-.92.62-1.76,1.2-2.6,1.78-.84.58-1.68,1.16-2.6,1.78l-.15-.23c.92-.62,1.76-1.2,2.6-1.78.06-.04.11-.08.17-.12-.43.21-.91.27-1.37.17l-.12-.02c-.33-.07-.64-.19-.93-.37-.74-.46-1.23-1.28-1.3-2.19l-.05-.64c-.02-.28,0-.57.08-.84.12-.44.37-.84.72-1.12l.4-.33-1.76.04-.07-.18.07-.07,1.44-1.16s-.05-.07-.07-.11c-.04-.12,0-.25.09-.33l2.42-1.99c-.07-.07-.11-.17-.1-.27,0-.13.08-.24.19-.3l2.41-1.23c.48-.24.99-.4,1.52-.46.49-.06.99-.03,1.48.08.55.12,1.07.37,1.52.73l.61.48c.54.43,1.02.93,1.43,1.49.47.64.89,1.32,1.25,2.04.25.49.45,1,.6,1.53l.09.33c.12.44.2.89.23,1.35v.06s-.08.1-.08.1h.12c.22,0,.42.13.54.32l.42.72.24.51c.12.27.18.56.17.86-.02.34-.2.65-.48.82l-.07.04c-.21.13-.46.19-.7.19-.35-.01-.67-.16-.92-.41l-.34-.35s-.09-.1-.12-.15l-.21-.3c-.14-.19-.23-.41-.27-.64l-.04-.22c-.02-.12.01-.24.09-.33l-.06.03-.19-.47c-.35-.46-.75-.89-1.18-1.27l-.52-.46c-.3-.27-.63-.51-.96-.74l-.56-.37c-.15-.04-.32-.01-.44.09-.26.22-.51.51-.74.79-.11.14-.23.27-.34.39l-.1.11h.02c.6.33,1.13.76,1.57,1.31.19.24.31.51.36.8.07.47-.04.96-.31,1.35l-.03.04c-.22.31-.47.58-.76.81l-1.55,1.23-2.16,1.43-1.84,1.06c-.31.18-.62.37-.91.58l-.3.21ZM37.27,35.55l-.77.96s-.04.08-.04.12l.04.22c.03.19.11.37.22.52l.21.3s.06.08.1.12l.34.35c.2.2.46.32.73.33.19,0,.38-.05.55-.15l.07-.04c.2-.12.33-.35.35-.6.01-.25-.04-.5-.14-.73l-.23-.49-.41-.7c-.07-.11-.18-.18-.31-.19h-.7Z"/>
            <path class="cls-7" d="M29.62,37.1c.15-.1.29-.2.43-.31.02-.01.02-.04.01-.06,0-.02-.03-.03-.05-.04-.14,0-.29.03-.42.1-.04.02-.07.05-.11.07-.02.02-.02.06,0,.08.02.02.06.02.08,0,0,0,0,0,.01-.01-.01,0,0,0,0,0,0,0,.02-.01.03-.02.02-.01.04-.02.06-.03s.04-.02.06-.03c-.02,0,0,0,0,0,0,0,0,0,.01,0,0,0,.02,0,.03,0,.02,0,.04-.01.06-.02.01,0,.02,0,.03,0,0,0,.01,0,.02,0,0,0,0,0,0,0,0,0,0,0,0,0,.04,0,.08,0,.13,0l-.04-.1s-.07.05-.1.08c0,0,0,0-.01.01,0,0,0,0,0,0,0,0-.02.01-.03.02-.02.01-.03.03-.05.04-.07.05-.14.1-.21.14-.03.02-.04.05-.02.08.02.03.05.04.08.02h0Z"/>
            <path class="cls-7" d="M29.59,37.14c.19-.03.37-.13.5-.27.04-.04.07-.09.1-.13.03-.04-.02-.1-.06-.08-.19.05-.36.13-.52.24-.02.02-.04.04-.02.07.01.03.04.04.07.03.04-.01.08-.02.12-.03.03,0,.05-.04.04-.07s-.04-.05-.07-.04c-.05.01-.11.03-.16.04-.03,0-.05.04-.04.07,0,.03.04.05.07.04.05-.01.11-.03.16-.04l-.03-.11s-.08.02-.12.03l.04.1c.08-.05.16-.1.24-.14.01,0,.02,0,.03-.01,0,0,.02,0,0,0,0,0,.01,0,.02,0,.02,0,.04-.02.06-.02.04-.02.09-.03.14-.04l-.06-.08s-.01.02-.02.03c0,0,0,0,0,.01,0,0,0,0,0,0,0,0,0,.01,0,0,0,0,0,0,0,0,0,0,0,0-.01.01,0,0-.02.02-.02.03-.03.03-.06.06-.1.09,0,0,0,0-.01,0,.01,0,0,0,0,0,0,0-.02.01-.03.02-.02.01-.04.02-.06.04s-.04.02-.06.03c0,0,0,0-.01,0,0,0,0,0,0,0,0,0,0,0,0,0,0,0-.02,0-.03.01-.05.02-.1.03-.15.04-.03,0-.05.04-.04.07.01.03.04.05.07.04h0Z"/>
            <path class="cls-7" d="M30.14,36.65c-.06.12-.16.22-.26.31s-.21.16-.32.22c-.23.13-.47.23-.71.33-.14.06-.28.12-.41.18-.07.03,0,.13.06.1.48-.24,1.01-.39,1.43-.73.12-.1.24-.21.31-.36.03-.07-.07-.12-.1-.06h0Z"/>
            <path class="cls-7" d="M29.7,36.99c-.06.02-.12.04-.17.06,0,0-.01,0-.02.01,0,0-.01,0-.01.02,0,.01-.01.03,0,.04s.01.03.03.03h.01s.02,0,.03,0c.06-.02.12-.04.17-.06.01,0,.03-.01.03-.03s.01-.03,0-.04-.01-.03-.03-.03-.03-.01-.04,0h0Z"/>
            <path class="cls-7" d="M29.7,36.99s-.05.01-.07.02c-.02,0-.04.02-.05.03-.01,0-.03.02-.04.03,0,0,0,.01-.01.02,0,0,0,.01,0,.02,0,0,0,.02,0,.02,0,0,0,.01.01.02.01.01.03.02.04.02s.03,0,.04-.02c0,0,.02-.01.02-.02h-.01s.04-.02.06-.02h-.01s.04,0,.05-.01c0,0,.01,0,.02-.01,0,0,.01,0,.01-.02,0,0,0-.01,0-.02,0,0,0-.02,0-.02,0-.01-.01-.03-.03-.03h-.01s-.02,0-.03,0h0Z"/>
            <path class="cls-7" d="M28.41,37.67l.38-.31c.12-.1.24-.2.37-.29.06-.04.13-.08.2-.1s.15-.03.22-.06c.06-.03.12-.07.17-.11s.1-.11.17-.13c.07-.02.16,0,.23,0,.08,0,.15-.02.22-.06l-.07-.09c-.13.14-.27.26-.45.34l.08.08c.04-.08.09-.15.15-.2.03-.03.01-.08-.03-.1-.07-.02-.14-.02-.21,0s-.04.14.03.11c.05-.02.1-.02.15,0l-.03-.1c-.07.06-.13.14-.17.23-.03.05.03.1.08.08.18-.09.34-.21.47-.36.04-.05-.01-.12-.07-.09-.13.07-.27.03-.41.05-.07.01-.12.06-.17.11-.05.05-.11.1-.17.13s-.14.04-.21.06-.14.05-.21.09c-.13.08-.25.18-.37.28l-.44.35c-.06.05.02.13.08.08h0Z"/>
            <path class="cls-7" d="M26.14,38.67h.21s.07,0,.1,0c.01,0,.03,0,.04,0,0,0,.02,0,.02,0,0,0,.02,0,.02,0h0s0,0,0,0c0,0,0,0,.01,0,0,0,.01,0,.02,0,0,0,.01,0,0,0s0,0,0,0c0,0,.01,0,.02.01-.01,0,0,0,0,0,0,0,0,0,0,0,0,0,.01.01,0,.01,0,0,0-.01,0,0,0,0,0,0,0,0,0,0,0,.01,0,.02,0,0,0,0,0,0,0,0,0,0,0,.01,0,0,0,0,0,.01,0,0,0,.02,0,.02,0,0,0-.02,0,0,0,0,0,0,0,.01,0,0,0,.01,0,.02,0,0,0,0,0,0,0,.01,0,0,0,0,0,0,0,.04,0,.04,0,0,0,0,0,0,0,.01,0,0,0,0,0,0,0,.02-.01.02,0,0,0,.01-.01.02,0,0,0,0,0,0,0,0,0,0,0,0,0,.01-.02.02-.03.03,0,0-.01,0-.02.01.01,0,0,0,0,0,0,0,0,0-.01,0-.02.02-.04.05-.02.08.02.02.05.04.08.02.05-.04.1-.08.13-.14s.04-.13.02-.2-.07-.12-.13-.15-.14-.02-.21-.02h-.26s-.06.03-.06.06.03.06.06.06h0Z"/>
            <path class="cls-7" d="M26.78,38.9c.03-.09.01-.19-.05-.26s-.17-.1-.25-.06c-.06.02-.05.11.02.11.14,0,.27.01.4.04l-.03-.08s-.05.03-.07.01v.1c.11-.05.24-.1.36-.15.03-.01.05-.03.04-.06,0-.03-.03-.05-.06-.05-.09,0-.19.03-.26.08-.04.03-.07.06-.1.1-.02.03-.04.07-.07.09l.08.03c-.03-.13-.16-.17-.27-.18-.13-.02-.26-.03-.39-.03-.07,0-.07.11,0,.11.11,0,.23,0,.34.02.07,0,.19.02.21.1,0,.04.05.05.08.03.04-.02.07-.06.09-.1.02-.03.05-.07.08-.09.06-.05.13-.08.21-.07l-.02-.11-.38.15s-.06.08-.01.1c.08.05.18.02.23-.05.02-.03,0-.08-.03-.08-.14-.03-.29-.04-.43-.04l.02.11s.11,0,.14.04.04.1.02.15c-.01.03.01.06.04.07.03,0,.06-.01.07-.04h0Z"/>
            <path class="cls-7" d="M25.72,33c-.72.04-1.39.43-1.81,1.02l.1.06c.05-.09.13-.16.22-.22.09-.06.19-.13.29-.18.2-.12.4-.23.61-.31s.42-.15.64-.2.45-.04.65-.14c.05-.03.03-.11-.03-.11-.19,0-.38-.02-.57-.06-.07-.01-.1.1-.03.11.2.04.4.06.6.06l-.03-.11c-.16.08-.35.08-.53.11s-.36.07-.53.13c-.35.12-.67.29-.98.49-.16.1-.33.2-.42.37-.04.07.06.12.1.06.39-.56,1.03-.93,1.71-.96.07,0,.07-.12,0-.11h0Z"/>
            <path class="cls-7" d="M24.71,33.51c.26-.21.58-.34.9-.37s.71.1.98-.15c.05-.05-.01-.12-.07-.09-.11.05-.23,0-.33-.04-.12-.04-.23-.08-.36-.06-.07.01-.04.12.03.11.13-.02.25.05.37.09s.23.05.34,0l-.07-.09c-.13.12-.31.13-.48.12s-.34-.02-.51,0c-.33.05-.64.19-.89.4-.06.05.02.13.08.08h0Z"/>
            <path class="cls-7" d="M25.97,32.99c.09-.02.18-.07.24-.14.02-.03.02-.07-.01-.09-.09-.05-.19-.09-.29-.11s-.21.01-.31.03c-.22.03-.44.03-.65.03-.05,0-.1,0-.15,0s-.1,0-.15-.02c-.03-.01-.06-.04-.07-.07-.01-.04-.01-.09-.04-.13-.02-.03-.07-.06-.06-.1,0-.04.05-.08.08-.1.07-.07.14-.14.21-.21.16-.17.3-.35.44-.53.04-.06-.06-.12-.1-.06-.13.18-.27.35-.42.5-.07.08-.15.15-.22.22-.07.06-.15.15-.1.25.02.04.06.05.07.09.02.05.02.1.04.14.05.08.14.12.23.12.12.01.24,0,.35,0s.23,0,.34-.01c.13,0,.26-.03.38-.05s.24.03.35.09v-.09c-.06.06-.13.1-.2.12-.07.02-.04.13.03.11h0Z"/>
            <path class="cls-7" d="M25.1,31.62c.26-.23.52-.47.79-.7.13-.12.27-.23.42-.32.13-.09.27-.17.4-.26.52-.4.93-.94,1.46-1.34.3-.23.64-.4.98-.57.07-.03,0-.13-.06-.1-.3.15-.59.3-.86.49s-.5.41-.73.64c-.24.24-.49.48-.75.7s-.55.36-.8.57c-.31.26-.61.54-.92.81-.06.05.03.13.08.08h0Z"/>
            <path class="cls-7" d="M29.12,28.43c.66-.39,1.36-.8,2.15-.86.07,0,.07-.12,0-.11-.81.06-1.52.47-2.2.87-.06.04,0,.14.06.1h0Z"/>
            <path class="cls-7" d="M31.23,27.58c.42-.06.84-.02,1.24.12.2.07.39.17.59.26s.4.19.6.29c.07.03.12-.07.06-.1-.21-.1-.43-.21-.64-.31-.19-.09-.39-.19-.59-.26-.41-.15-.85-.18-1.28-.12-.07.01-.04.12.03.11h0Z"/>
            <path class="cls-7" d="M26.14,30.49c.25-.16.49-.35.7-.56l-.27-.21c-.26.36-.65.58-1.01.83-.41.28-.8.59-1.19.9-.12.09-.02.3.12.29.12,0,.24,0,.36-.01l-.15-.26c-.38.51-.86.93-1.41,1.26-.18.1-.05.35.13.31.33-.06,1.17-.07,1.02-.61-.05-.2-.32-.14-.34.05-.04.37.3.59.63.62.41.04.84-.01,1.25-.02.22,0,.22-.35,0-.34-.3,0-.59.01-.89.02-.22,0-.68.06-.64-.28l-.34.05c.02.07-.71.17-.78.18l.13.31c.6-.35,1.11-.82,1.53-1.38.08-.1-.03-.26-.15-.26s-.24,0-.36.01l.12.29c.41-.33.83-.65,1.26-.94.37-.24.73-.49.99-.85.12-.16-.14-.34-.27-.21-.19.19-.4.36-.63.51-.19.12-.01.42.17.3h0Z"/>
            <path class="cls-7" d="M24.24,32.97c.22,0,.22-.34,0-.34s-.22.34,0,.34h0Z"/>
            <path class="cls-7" d="M25.09,31.55l1.5-1.18c.22-.17.44-.35.64-.55s.37-.44.54-.66c.1-.14-.1-.33-.24-.24-.38.27-.74.57-1.09.88l.27.21c.17-.24.37-.45.6-.64.17-.14-.08-.38-.24-.24l-.43.37c-.15.12.05.39.21.27.3-.22.58-.47.84-.73.12-.12,0-.34-.17-.29l-.69.24c-.14.05-.18.31,0,.33.29.04.49-.15.73-.28.26-.14.53-.25.82-.34l-.17-.29c-.27.29-.56.56-.87.82-.17.14.07.38.24.24.3-.26.59-.53.87-.82.11-.12,0-.34-.17-.29-.23.07-.46.16-.69.27-.11.05-.22.11-.32.17-.08.05-.26.2-.36.19v.33l.69-.24-.17-.29c-.24.24-.5.47-.77.68l.21.27.43-.37-.24-.24c-.25.21-.46.45-.65.71-.12.16.13.33.27.21.33-.29.67-.57,1.02-.83l-.24-.24c-.17.23-.35.46-.55.66s-.41.36-.63.53l-1.45,1.14c-.17.14.07.38.24.24h0Z"/>
            <path class="cls-7" d="M28.45,28.72c.17-.14.34-.27.53-.39.16-.11.06-.36-.13-.31-.25.06-.49.17-.7.32-.16.11-.06.36.13.31.54-.13,1.04-.36,1.49-.68.15-.11.07-.37-.13-.31-.32.09-.63.21-.94.34-.18.08-.05.37.13.31.58-.18,1.16-.4,1.71-.66.18-.08.05-.37-.13-.31-.23.06-.46.13-.69.19l.13.31c.48-.26,1.14-.33,1.68-.35s1.1.15,1.57.44c.19.12.36-.18.17-.3-.52-.33-1.12-.51-1.74-.49s-1.32.1-1.85.39c-.17.09-.05.37.13.31.23-.06.46-.13.69-.19l-.13-.31c-.53.24-1.08.45-1.63.62l.13.31c.28-.12.56-.22.86-.31l-.13-.31c-.43.3-.9.52-1.4.64l.13.31c.19-.13.39-.23.62-.28l-.13-.31c-.21.14-.41.29-.59.45-.17.14.08.39.24.24h0Z"/>
            <path class="cls-7" d="M23.2,33.15c.4-.02.46.43.39.73-.1.4-.34.75-.36,1.18,0,.22.34.22.34,0,.02-.49.37-.89.39-1.38.02-.45-.28-.9-.76-.87-.22.01-.22.36,0,.34h0Z"/>
            <path class="cls-7" d="M23.73,33.1c0,.1,0,.2,0,.3,0,.04.02.09.05.12.03.03.08.06.12.05.05,0,.09-.02.14-.04.03-.01.05-.03.07-.05.05-.04.1-.07.15-.1s.1-.06.16-.09c.03-.01.06-.03.09-.04,0,0,.01,0,.02,0,.02,0-.03.01-.01,0,.02,0,.03-.01.05-.02l-.13-.31-.38.17c-.07.03-.15.06-.19.14-.03.04-.03.09-.04.14,0,.01,0,.03,0,.04,0,0,0,.03,0,0,0-.03,0,0,0,0-.03.12.08.26.21.21.16-.06.31-.12.46-.2l-.17-.3c-.1.06-.21.11-.3.18-.11.09-.2.19-.25.32-.02.04,0,.1.02.13s.06.07.1.08c.1.02.18-.03.21-.12,0-.02,0-.01,0,.01,0,0,0-.01,0-.02,0,0,0-.02.01-.03,0-.01.02-.02.02-.03v.02s0-.01,0-.02c.02-.02.03-.03.05-.05,0,0,.02-.02.03-.02.01,0,0,0-.02.01,0,0,.01,0,.02-.01.09-.06.19-.11.28-.16.08-.05.11-.16.06-.24s-.15-.11-.24-.06c-.07.03-.13.07-.2.1,0,0-.01,0-.02,0,.04-.02.01,0,0,0-.02,0-.03.01-.05.02-.04.01-.07.03-.11.04l.21.21s.01-.07.01-.11c0,0,0-.01,0-.02,0-.02,0-.01,0,.02,0,0,0-.01,0-.02v.03s-.03.03-.05.04c0,0,.01,0,.02,0,.01,0,.03-.01.04-.02l.08-.04.35-.16s.07-.07.08-.1,0-.08,0-.11c-.03-.07-.12-.13-.2-.1-.12.05-.24.1-.35.17-.05.03-.1.06-.15.1-.02.02-.05.03-.07.05,0,0-.03.01-.04.02.03-.01.03-.01.01,0-.02,0-.01,0,.02,0l.17.17c0-.1-.01-.2,0-.3,0-.09-.08-.18-.17-.17-.1,0-.16.08-.17.17h0Z"/>
            <path class="cls-7" d="M28.5,33.38c.3.08.59.17.89.24.24.06.52.09.68-.13s.04-.51-.03-.74c-.04-.14-.08-.28-.12-.42s-.13-.32-.14-.47l-.05.12h.02s-.08.02-.12.04c-.05-.02-.05-.01,0,.01.02.02.05.03.07.05.03.03.07.06.1.09.07.07.14.15.2.23.12.16.24.32.37.47.13.14.3.3.49.34.1.02.21,0,.29-.07.03-.03.06-.06.08-.09.01-.03.02-.05.03-.08,0-.05,0-.06,0-.03l-.15.09s.13.08.18.1c.07.03.14.05.21.04.15,0,.28-.11.33-.25.13-.33.06-.77-.02-1.11-.05-.22-.38-.12-.33.09.06.24.08.49.06.74-.01.12,0,.21-.14.15-.1-.05-.17-.1-.28-.11-.06,0-.12.04-.15.09,0,0-.04.12-.04.12-.01,0-.08-.05-.1-.06-.08-.05-.15-.12-.21-.19-.12-.13-.22-.28-.33-.42-.12-.16-.55-.74-.79-.47-.07.08-.05.17-.02.27.03.12.07.24.11.36.07.24.14.48.21.72.03.09.07.21-.05.25-.11.03-.27-.04-.37-.07l-.77-.21c-.21-.06-.3.27-.09.33h0Z"/>
            <path class="cls-7" d="M29.89,33.88c.3.01.54-.25.54-.54,0-.18-.09-.35-.14-.51-.06-.17-.12-.35-.18-.52l-.31.13c.16.37.36.73.68.98s.73.37,1.11.24l-.19-.25c-.18.24-.37.48-.55.71l.24-.06c-.29-.14-.58-.28-.86-.43l.03.27s.12-.04.16-.05c.08-.03.15-.07.19-.14.09-.14.05-.31-.08-.4-.14-.1-.32.09-.24.24.12.19.26.37.42.53.15.15.34-.04.27-.21-.06-.13-.12-.26-.19-.38l-.27.21c.09.1.2.18.32.24s.26-.01.26-.15c0-.09-.02-.16-.06-.24-.09-.17-.38-.06-.31.13.05.15.14.41.34.39.1,0,.18-.09.26-.14.08-.06.17-.12.25-.18.15-.11.07-.37-.13-.31-.26.08-.51.17-.76.28l.17.3,1.19-.87c.18-.13.03-.39-.17-.3-.24.11-.48.2-.74.27-.12.03-.25.06-.37.07-.06,0-.12.01-.18.01-.02,0-.05,0-.08,0-.02,0-.04,0-.05-.01-.03,0-.02,0,.02.02v.09c-.13.04-.16.06-.09.07.02,0,.04,0,.06.01.04,0,.07.01.11.02.08.02.16.03.23.05.19.04.31-.21.13-.31-.13-.08-.26-.16-.4-.24l-.17.3c.34.18.72.36,1.11.39.19.02.36-.05.49-.19.15-.16.28-.34.41-.51.06-.07.07-.17,0-.24-.06-.06-.19-.07-.24,0-.12.14-.23.29-.35.43-.1.12-.17.18-.34.15-.32-.05-.62-.2-.91-.34-.2-.1-.36.18-.17.3.13.08.26.16.4.24l.13-.31c-.13-.03-.25-.05-.38-.08-.12-.02-.24-.03-.31.08-.07.1-.05.23.03.32s.21.1.33.11c.25.02.51-.05.75-.11.26-.07.52-.17.76-.28l-.17-.3-1.19.87c-.18.13-.03.39.17.3.22-.1.45-.18.68-.25l-.13-.31c-.14.1-.27.21-.42.3l.09-.02h-.03s.06.02.09.03c.03.03.03.04.01,0-.01-.02-.02-.04-.03-.05-.02-.04-.03-.07-.05-.11l-.31.13s.02.03.02.07l.26-.15c-.1-.05-.18-.11-.25-.19-.13-.14-.37.04-.27.21.07.12.14.25.19.38l.27-.21c-.14-.14-.26-.29-.37-.46l-.24.24s-.05-.06-.03-.09h-.02s-.09.03-.11.03c-.08.02-.14.05-.2.11-.08.07-.06.22.03.27.28.15.57.29.86.43.09.04.17.02.24-.06.18-.24.37-.48.55-.71.09-.12-.06-.3-.19-.25-.7.24-1.17-.53-1.4-1.07-.08-.18-.38-.05-.31.13.09.24.17.49.26.73.03.09.08.19.04.29-.03.08-.1.12-.18.12-.22,0-.22.33,0,.34h0Z"/>
            <path class="cls-7" d="M31.65,33.3c.26-.27.29-.71.23-1.07-.03-.19-.12-.33-.26-.46-.17-.17-.32-.33-.44-.54l-.06.24c.08-.05.22,0,.32-.03s.16-.11.2-.2c.11-.24.07-.55.01-.79l-.29.17c.29.33.43.78.78,1.06.15.12.33.16.49.03.19-.14.2-.38.17-.6l-.34.05c.62,1.48,1.68,2.68,2.77,3.83.15.16.4-.08.24-.24-1.05-1.1-2.09-2.26-2.68-3.68-.07-.16-.36-.17-.34.05,0,.06.02.13.01.2-.02.16-.09.11-.18.05-.11-.08-.19-.22-.26-.34-.14-.22-.26-.44-.43-.64-.12-.13-.33,0-.29.17.03.11.11.51-.02.58-.04.02-.13,0-.17,0-.07,0-.12.03-.18.06-.08.05-.11.15-.06.24.08.13.16.26.26.38s.25.21.33.34c.15.23.12.75-.07.94-.16.16.09.4.24.24h0Z"/>
            <path class="cls-7" d="M34.05,33.36c-.17-.17-.38-.26-.59-.38-.17-.1-.35-.25-.37-.46l-.26.15c.19.11.37.24.53.39l.21-.27c-.21-.15-.39-.36-.54-.57s-.34-.45-.35-.72l-.32.09c.08.11.13.22.18.35.04.11.1.25.1.37,0,.11-.08.15-.18.17-.13.03-.25.06-.36.12-.14.08-.09.33.09.32.23-.02.46-.03.68-.05s.22-.33,0-.34c-.38-.02-.76.02-1.13.13l.19.25c.28-.37.62-.7.98-.99l-.29-.17c-.09.27-.22.52-.38.76l.31.04c-.05-.13-.13-.23-.27-.25s-.26.04-.33.16l.3.17c.1-.21.19-.43.26-.65.04-.13-.09-.24-.21-.21-.29.06-.39.36-.42.62l.29-.08c-.15-.16-.2-.4-.34-.57-.04-.05-.07-.09-.12-.13-.02-.01-.03-.03-.05-.04-.01-.01-.03-.02-.04-.03-.01-.02-.02-.02,0,0-.01.04.04-.04.05-.05.02-.03.03-.06.04-.1.03-.07.04-.15.05-.23l-.32.09c.2.3.45.55.75.76l-.03-.27c-.06.06-.14-.1-.17-.14-.06-.1-.12-.21-.21-.29-.08-.07-.21-.07-.27.03-.04.07-.05.14-.03.22.04.22.37.13.33-.09v.04c-.09.01-.18.02-.27.03.15.12.19.33.35.45s.38.12.52-.03c.08-.09.06-.21-.03-.27-.25-.17-.46-.39-.63-.64-.1-.15-.3-.08-.32.09-.02.15-.15.26-.13.42.02.15.14.21.24.31.18.19.23.47.41.66.08.09.27.05.29-.08s.03-.35.18-.38l-.21-.21c-.06.19-.14.38-.23.57-.09.2.18.36.3.17-.02.02-.04,0-.03.01.06.14.23.17.31.04.18-.26.31-.55.42-.84.06-.18-.17-.26-.29-.17-.39.31-.74.66-1.04,1.06-.09.12.06.29.19.25.34-.1.68-.14,1.03-.12v-.34c-.23.02-.46.03-.68.05l.09.32c.13-.08.3-.08.44-.15.15-.07.25-.2.27-.37s-.04-.32-.09-.48c-.06-.17-.13-.34-.23-.49-.09-.13-.32-.1-.32.09,0,.34.2.63.39.9s.4.5.66.7c.16.12.35-.14.21-.27-.18-.17-.38-.32-.6-.44-.11-.06-.27.01-.26.15.02.27.17.49.38.65s.48.25.67.43c.16.15.4-.09.24-.24h0Z"/>
            <path class="cls-7" d="M25.04,32.94c-.59.35-1.15.74-1.42,1.41-.29.73-.2,1.54,0,2.28.18.69.54,1.24,1.16,1.6.66.39,1.44.47,2.19.53.22.02.22-.33,0-.34-.66-.05-1.35-.12-1.95-.44s-.9-.8-1.07-1.44-.26-1.33-.04-1.97.75-1,1.3-1.33c.19-.11.02-.41-.17-.3h0Z"/>
            <path class="cls-7" d="M23.86,34.19s0-.05,0-.03c0,.01,0-.02,0-.02,0-.03.02-.05.02-.08.02-.07.03-.14,0-.21-.03-.12-.12-.19-.19-.27,0,0-.02-.03-.01-.01.01.02-.01-.02-.01-.02,0,.02,0,0,0,0,0,0-.01-.05,0-.03,0,.02,0-.02,0-.02,0-.01,0-.03,0-.04,0,.02,0,0,0,0,0-.01,0-.03.01-.04,0,0,.01-.03,0-.02,0,.01.01-.02.02-.03,0-.01.01-.02.02-.03.03-.05,0,0,.01-.02.03-.04.08-.08.12-.12.07-.06.06-.18,0-.24-.07-.07-.17-.06-.24,0-.2.17-.36.44-.26.71.03.07.06.12.11.18.02.02.04.04.05.06,0,0,.02.02.03.03,0,0,.02.03,0,0,0,0,.02.04.01.02,0-.03,0,.04,0,0,0,0,0,.03,0,0,0,.02,0,.04-.01.05-.02.07-.04.13-.03.2,0,.09.07.18.17.17.09,0,.18-.08.17-.17h0Z"/>
            <path class="cls-7" d="M23.73,33.27c-.08-.04-.15-.07-.23-.11-.04-.02-.07-.04-.11-.06-.03-.02-.07-.03-.1-.06l.03.03s0,0,0,0l.03.03h0s.01.02.02.04h0s0,.03,0,.04h0s0,.02,0,.04h0s-.01.02-.02.03h0s-.02.02-.03.03c0,0,0,0,.01-.01l-.03.03c.11-.08.22-.15.34-.2.04-.02.07-.07.08-.1.01-.04,0-.1-.02-.13s-.06-.07-.1-.08h-.05s-.06,0-.09.02c-.08.03-.15.07-.22.12-.04.02-.07.05-.1.07-.04.03-.07.05-.09.09-.03.06-.04.13,0,.19s.09.09.14.12c.04.02.08.04.12.06.08.04.16.08.25.12.04.02.09.03.13.02.04-.01.08-.04.1-.08.02-.04.03-.09.02-.13-.01-.04-.04-.08-.08-.1h0Z"/>
            <path class="cls-7" d="M23.04,32.99c-.09.03-.17.07-.26.11-.04.02-.08.04-.11.07-.04.04-.06.11-.04.16.04.1.14.13.24.12.05,0,.09-.02.12-.02,0,0,.01,0,.02,0,.03,0-.02,0,0,0,0,0,.01,0,.02,0-.02,0,0,0,0,0h0s0,0,0-.01c0,0,.01.02,0,0,0,0,0,.01,0,.02,0-.02,0,0,0,.01,0,.05,0,.1.03.14.04.07.12.1.19.12.03,0,.05,0,.08.02s-.02-.01,0,0c0,0,.01,0,.02,0,.02.01,0,0,0,0,0,0,.02.02.02.02,0,0,.02.02,0,0,0,0,0,.01.01.02,0,.01.02.03.02.04,0-.02,0,0,0,0,0,0,0,.02,0,.03,0,.02.01.04.01.06,0-.02,0,.02,0,.02,0,.01,0,.03,0,.04,0,.02,0,.04,0,.07,0,.05,0,.1-.02.14-.01.11-.02.21,0,.32,0,.06.09.1.14.08.06-.02.09-.08.08-.14,0,.01,0-.01,0-.02,0-.01,0-.02,0-.03,0-.02,0-.04,0-.05,0-.04,0-.09.01-.13,0-.08.02-.16.02-.24,0-.16-.06-.32-.19-.42-.05-.04-.12-.05-.18-.06-.01,0-.03,0-.04,0,0,0-.02-.01,0,0,0,0-.01,0-.01,0,.01,0,.01,0,0,0h0s0,0,0,0c0,.02,0-.02,0-.02,0,.02,0,0,0-.01,0-.09-.03-.17-.11-.22-.07-.05-.16-.04-.24-.03,0,0-.02,0-.03,0,0,0-.04,0-.02,0,0,0-.02,0-.03,0,0,0-.02,0-.03,0h0s0,0,0,0c.01,0,.01,0,0,0,0,0,0,0,0,0,.02.03.03.05.01.08v.02s-.02,0-.01,0c.01,0,.02-.01.03-.02.08-.04.16-.07.24-.11.06-.02.1-.08.08-.14-.02-.05-.08-.1-.14-.08h0Z"/>
            <path class="cls-7" d="M23.22,33.39s0,.02.01.03c0,0,0,0,0,0,0,0,0,0,0,.01,0,0,.01.02.02.03,0,0,0,0,0,0,0,0,0,0,0,0s0,0,.01,0c.01,0,.02.02.03.03,0,0,.02,0,.02.01,0,0,.02,0,.03.01l.06-.21s-.04,0-.05,0h.03s-.04,0-.06,0l-.03.23s.03,0,.04,0c.02,0,.03,0,.04,0,.01,0,.03-.01.04-.02.01-.01.02-.02.02-.04,0-.01.01-.03,0-.04v-.03s-.02-.04-.03-.05l-.02-.02s-.04-.02-.06-.02c-.01,0-.03,0-.04,0-.02,0-.03,0-.04,0-.01,0-.03.01-.04.02l-.02.02s-.01.03-.01.04c0,.01,0,.02,0,.03,0,.02,0,.03.01.04l.02.02s.03.02.05.03c.02,0,.04,0,.06.01.03,0,.06,0,.09,0h.03s.03-.01.04-.02c0,0,.02-.01.02-.02.01-.01.02-.02.02-.04v-.03s0-.02,0-.03c0-.01-.01-.03-.02-.04,0-.01-.02-.02-.03-.03-.02-.01-.04-.02-.06-.04l.02.02s-.02-.02-.03-.03l.02.02s-.01-.01-.01-.02v.03s.01,0,0,0c0-.01-.01-.03-.02-.04,0-.01-.02-.02-.03-.03-.01,0-.03-.01-.04-.01-.02,0-.03,0-.05,0h-.03s-.03.04-.04.05v.03s-.02.04-.01.06h0Z"/>
            <path class="cls-7" d="M24.17,31.94s0-.02,0-.02v.03s0-.07,0-.11v.03s.01-.07.02-.1v.03s.02-.07.05-.1l-.02.02s.06-.07.1-.1l-.02.02c.07-.05.14-.09.22-.12l-.17-.13s0,.02,0,.02v-.03s-.02.05-.04.08c-.02.03-.04.05-.06.08l.02-.02c-.07.1-.15.19-.23.28-.02.02-.03.05-.03.08,0,.03.01.06.03.08s.05.03.08.03.06-.01.08-.03c.07-.07.13-.15.19-.23.04-.04.07-.09.11-.14s.07-.09.08-.14c0-.05,0-.09-.04-.12-.02-.01-.03-.02-.05-.02-.01,0-.02,0-.03,0-.02,0-.03,0-.04.01-.1.04-.2.1-.28.17s-.15.18-.17.29c-.02.08-.02.15,0,.23,0,.03.03.06.05.07.02.01.06.02.09.01s.05-.03.07-.05c.02-.03.02-.06.01-.09h0Z"/>
            <path class="cls-7" d="M23.96,32.35s0,0,0,0l-.02.02s.05-.05.07-.07c.03-.03.06-.06.08-.09.04-.06.06-.13.09-.2v.03s.02-.07.04-.1l-.02.02s.02-.03.04-.04l-.02.02s.01,0,.02-.01c.02-.01.04-.04.05-.07s0-.06-.01-.09-.04-.05-.07-.05-.06,0-.09.01c-.06.04-.1.09-.13.15-.03.06-.05.12-.07.17v-.03s-.02.06-.04.09l.02-.02s-.04.04-.06.06c-.03.02-.05.05-.08.08-.02.02-.02.06-.01.09s.03.06.05.07c.03.01.06.02.09.01h.03s.03-.04.04-.05h0Z"/>
            <path class="cls-7" d="M26.71,29.65h0s0,.02,0,.03c0,0,0-.02,0-.02v.03s0-.02,0-.03l-.02.02s.05-.05.08-.08c.03-.04.06-.08.08-.12s.04-.09.05-.14.02-.1.02-.15v-.03s-.01-.03-.02-.04c-.01-.02-.04-.04-.06-.04-.02,0-.04,0-.06,0-.02,0-.06.03-.07.05-.01.03-.02.06-.03.09,0,.02,0,.04-.01.06,0,.04-.01.09-.03.13v-.03s-.01.05-.03.07l.02-.02s-.07.08-.11.11l.19.11s0-.01,0-.02v.03s.02-.06.04-.09l-.02.02s.05-.07.07-.1c.03-.05.04-.1.05-.16,0-.04,0-.08,0-.12v-.13s-.02-.06-.04-.08c-.02-.02-.05-.03-.08-.03s-.06.01-.08.03-.04.05-.03.08v.14s.01.09,0,.13v-.03s0,.04-.01.06v-.03s-.02.06-.05.09l.02-.02c-.04.05-.08.11-.1.17,0,.02,0,.05,0,.07s.03.04.05.05c.05.02.1.02.14-.02.07-.06.13-.12.17-.21.01-.03.02-.05.03-.08,0-.02,0-.04.01-.06,0-.04.01-.09.03-.13v.03s0,0,0,0l-.21-.06s0,.03,0,.05v-.03c0,.06-.02.12-.04.18v-.03s-.02.06-.04.09l.02-.02s-.05.05-.07.07c-.02.02-.03.04-.04.06-.02.03-.02.06-.03.1,0,.03.02.06.03.08.02.02.05.03.08.03s.06-.01.08-.03l.02-.02s.02-.04.02-.06h0Z"/>
            <path class="cls-7" d="M37.25,36.69c.05.04.1.09.15.14.02.02.05.05.07.08.01.01.02.03.03.04,0,0,0,.01.02.02,0,0-.02-.02,0,0,0,0,0,0,0,.01.08.11.15.23.21.36,0,0,0,.02,0,0,0,0,0,0,0,.01,0,0,0,.02.01.03,0,.02.01.04.02.05.01.04.03.08.04.12.02.06.08.1.14.08s.1-.08.08-.14c-.08-.29-.23-.56-.44-.79-.05-.06-.11-.11-.18-.17-.02-.02-.05-.03-.08-.03-.03,0-.06.01-.08.03-.04.04-.05.12,0,.16h0Z"/>
            <path class="cls-7" d="M37.82,36.4c.06.05.11.1.15.16,0,0,0,0,0,0,0,0,0,0,0,0,0,0,.01.02.02.02.01.02.02.03.03.05.02.03.04.06.06.09s.04.07.05.1c0,0,0,.02.01.03,0,0,0,0,0,.01,0,.01,0-.02,0,0,0,.02.01.04.02.05.03.07.05.15.07.22.02.08.04.17.05.26,0,.06.09.1.14.08.06-.02.09-.08.08-.14-.05-.31-.15-.63-.34-.88-.06-.07-.12-.14-.19-.2-.05-.04-.12-.05-.16,0-.04.04-.05.12,0,.16h0Z"/>
            <path class="cls-7" d="M36.19,36.2c0,.06,0,.12,0,.18,0,.02,0,.03,0,.04,0,.01.01.03.02.04.01.01.02.02.04.02.01,0,.03.01.04,0h.03s.04-.02.05-.03l.02-.02s.02-.04.02-.06c0-.06,0-.12,0-.18,0-.02,0-.03,0-.04,0-.01-.01-.03-.02-.04-.01-.01-.02-.02-.04-.02-.01,0-.03-.01-.04,0h-.03s-.04.02-.05.03l-.02.02s-.02.04-.02.06h0Z"/>
            <path class="cls-7" d="M36.02,35.86c.07.09.16.16.26.2.06.03.13.04.2.05.06,0,.12,0,.19,0,.07-.01.14-.04.2-.07.05-.03.07-.11.04-.16-.03-.05-.1-.07-.16-.04-.01,0-.03.01-.04.02h.03s-.09.02-.14.03h.03s-.1,0-.14,0h.03s-.09-.01-.14-.03h.03s-.09-.03-.13-.06l.02.02s-.08-.07-.11-.11c-.02-.02-.06-.03-.08-.03-.03,0-.06.01-.08.03s-.03.05-.03.08v.03s.02.04.03.05h0Z"/>
            <path class="cls-7" d="M36.64,36.15c.18-.11.35-.25.5-.39.04-.04.09-.08.13-.12s.04-.12,0-.16c-.05-.04-.11-.04-.16,0-.12.11-.25.23-.38.33l.02-.02c-.07.06-.15.11-.23.16-.05.03-.07.1-.04.16s.1.07.16.04h0Z"/>
            <path class="cls-7" d="M37.43,35.56c.13-.06.23-.18.3-.3.08-.15.11-.31.12-.48,0-.09,0-.19,0-.28,0-.06-.05-.12-.11-.11-.06,0-.12.05-.11.11,0,.08.01.15.01.23,0,.04,0,.08,0,.12,0,0,0,.02,0,.03,0,0,0,.01,0,.01,0,0,0-.02,0,0,0,.02,0,.04-.01.06,0,.03-.02.07-.03.1,0,.02-.01.03-.02.04,0,0,0,0,0,.01,0,0,0-.02,0-.01,0,0,0,.02-.01.02-.01.03-.03.06-.05.08,0,.01-.02.02-.02.04-.01.02.01-.02,0,0,0,0-.01.01-.02.02-.02.03-.05.05-.07.07,0,0,.02-.01,0,0,0,0,0,0-.01,0,0,0-.02.01-.02.02-.01,0-.03.02-.05.02-.05.03-.07.11-.04.16.04.06.1.07.16.04h0Z"/>
            <path class="cls-7" d="M37.41,35.57c.05-.01.1-.02.16-.03h-.03c.14-.01.28-.02.42-.02.06,0,.12-.05.11-.11,0-.06-.05-.11-.11-.11-.2,0-.41.01-.61.05-.03,0-.06.03-.07.05-.01.02-.02.06-.01.09s.03.05.05.07c.03.02.06.02.09.01h0Z"/>
            <path class="cls-7" d="M24.45,43.37c.08.57-.01,1.16-.24,1.68-.1.24-.24.47-.39.68-.07.11-.15.21-.24.31-.06.07-.18.26-.28.28h.09c-.1-.04-.18-.23-.23-.33-.07-.12-.13-.24-.18-.36-.12-.25-.21-.52-.31-.78s-.19-.55-.25-.84c-.05-.27-.12-.61.04-.85.12-.19.34-.34.37-.58.03-.2-.11-.37-.29-.44-.05-.02-.1-.02-.15-.04-.08-.02-.06-.02-.08-.12-.03-.15-.04-.29-.05-.44-.01-.3.02-.6.1-.88.04-.13.06-.3.23-.29s.33.05.49.08c.33.08.64.19.94.34.13.07.25-.13.12-.2-.41-.2-.84-.35-1.29-.42-.16-.02-.35-.08-.5.03s-.19.32-.23.48c-.1.43-.11.88-.04,1.31.03.19.05.3.25.33.09.02.21.04.26.13.07.13-.07.27-.15.37-.11.12-.21.25-.26.4-.07.21-.04.44-.01.65.07.46.23.91.39,1.35.15.39.32.79.56,1.14.09.13.18.25.34.15.17-.11.31-.33.43-.48.6-.77.92-1.73.78-2.71-.02-.15-.24-.08-.22.06h0Z"/>
            <path class="cls-7" d="M24.3,41.3c.01-.26,0-.57-.2-.76-.1-.1-.24-.13-.38-.17s-.28-.08-.42-.11l-.06.22c.51.11,1.12.28,1.56-.09l-.16-.16c-.32.38-.5.85-.52,1.34h.23c-.02-.18-.04-.36-.05-.54,0-.08-.02-.16,0-.23,0-.03.01-.05.03-.08.01-.02.02-.03.04-.03l-.14-.14c-.01.06-.02.12-.03.17s.01.11.07.14c.05.02.11,0,.14-.05.04-.08.09-.14.16-.2l-.18-.14-.21.33c-.07.11.09.23.18.14.07-.07.15-.13.24-.17.04-.02.09-.03.13-.04.05-.01.11-.02.16-.05.1-.06.15-.2.21-.3.06-.11.12-.22.19-.32s-.09-.24-.18-.14c-.15.16-.29.33-.44.49-.04.05-.05.12,0,.16.04.04.12.05.16,0,.15-.16.29-.33.44-.49l-.18-.14c-.06.11-.12.21-.18.32-.03.05-.06.1-.09.15-.02.03-.03.07-.07.08-.1.03-.2.05-.29.1s-.18.11-.26.19l.18.14.21-.33c.07-.11-.09-.23-.18-.14-.07.07-.14.16-.19.25l.21.09c.01-.06.02-.12.03-.17.01-.08-.05-.17-.14-.14-.2.06-.25.28-.24.47.02.21.04.42.06.63,0,.06.05.11.11.11s.11-.05.11-.11c.02-.43.18-.85.46-1.18.1-.11-.05-.26-.16-.16-.17.14-.38.16-.59.15-.25-.01-.5-.07-.75-.12-.06-.01-.12.02-.14.08-.02.06.02.13.08.14.13.03.25.06.38.1.1.03.23.05.31.11.17.14.15.41.14.61,0,.06.05.11.11.11.06,0,.11-.05.11-.11h0Z"/>
            <path class="cls-7" d="M22.68,42.22c-.17-.19-.25-.46-.26-.71-.01-.31.07-.61.18-.89.02-.06-.02-.13-.08-.14-.06-.02-.12.02-.14.08-.12.31-.21.65-.18.98.02.31.12.61.33.84.04.05.12.04.16,0,.05-.05.04-.12,0-.16h0Z"/>
            <path class="cls-7" d="M22.5,40.8c.02-.13.09-.24.19-.31l-.14-.18c-.13.16-.23.34-.29.53l.22.06c.03-.12.1-.21.21-.28.12-.07.27-.09.42-.07.17.01.35.06.52.11.14.04.25.11.33.22s.14.26.14.4.23.15.23,0c-.01-.35-.22-.68-.55-.82-.1-.04-.2-.06-.3-.08s-.21-.04-.31-.06c-.19-.02-.39,0-.56.08s-.31.24-.35.43c-.03.14.18.2.22.06.05-.16.12-.31.23-.43.04-.04.05-.1,0-.15-.03-.04-.1-.06-.15-.03-.15.1-.26.26-.3.45-.01.06.02.12.08.14.06.02.13-.02.14-.08h0Z"/>
            <path class="cls-7" d="M22.51,40.37l1.09.05c.08,0,.16,0,.23.01.04,0,.12.02.16.04.06.03.09.06.12.11s.04.14.05.21c0,.06.09.1.14.08.07-.02.09-.08.08-.14-.02-.13-.06-.27-.15-.37-.09-.09-.21-.13-.33-.15-.14-.02-.28-.02-.42-.03l-.45-.02-.52-.02c-.06,0-.11.05-.11.11,0,.06.05.11.11.11h0Z"/>
            <path class="cls-7" d="M24.08,40.55c.1.02.2.04.3.04.05,0,.11,0,.16-.01s.1-.03.15-.05c.02-.01.05-.04.05-.07,0-.03,0-.06-.01-.09s-.04-.05-.07-.05c-.03,0-.06,0-.09.01,0,0-.01,0-.02,0h.03s-.09.02-.13.02h.03c-.08,0-.16,0-.24,0h.03s-.09-.01-.14-.02c-.03,0-.06,0-.09.01-.02.01-.05.04-.05.07,0,.03,0,.06.01.09.02.02.04.05.07.05h0Z"/>
            <path class="cls-7" d="M25.42,42.86l-.4.21s-.07.03-.09.06c-.04.04-.04.09-.04.15,0,.08,0,.15,0,.23s.07.12.15.11c.06-.01.11-.05.15-.09.03-.03.07-.06.1-.09.07-.06.13-.13.19-.19.13-.13.25-.26.39-.37.02-.02.04-.03.06-.05-.02.02,0,0,.01-.01.01,0,.02-.02.03-.02.04-.03.08-.06.13-.08.05-.03.07-.1.04-.16s-.1-.07-.16-.04c-.32.18-.56.47-.81.72-.04.03-.07.07-.11.1-.02.02-.04.04-.06.05,0,0,0,0-.01.01,0,0,.01,0,0,0,0,0-.01,0-.01,0h.01s-.01,0-.02,0l.15.11c0-.07,0-.14,0-.21,0-.02,0-.03,0-.05,0-.02,0,0,0,0l-.02.03s-.02.01,0,0c.03-.01.06-.03.09-.05l.36-.19c.05-.03.07-.11.04-.16-.03-.05-.1-.07-.16-.04h0Z"/>
            <path class="cls-7" d="M30.04,36.82c.13-.04.26-.11.35-.21l-.18-.14s0,0,0,.01c.01-.02.02-.02,0-.01,0,0,0,0,0,0,0,0,0,0,0,0,0,0,.02-.01.01-.01,0,0-.01,0-.02.01,0,0-.02.01,0,0s0,0,0,0c-.01,0-.02,0-.03,0-.06.01-.11.03-.17.05-.12.05-.23.11-.34.19-.06.04-.12.08-.18.12-.02.02-.04.04-.05.07,0,.03,0,.06.01.09.03.05.1.08.16.04.1-.08.21-.15.32-.21.03-.02.05-.03.08-.04.01,0,.03-.01.04-.02,0,0,.01,0,.02,0,.01,0-.01,0-.01,0,0,0,.01,0,.02,0,.06-.02.11-.04.17-.05.08-.02.15-.06.19-.13.03-.05.02-.11-.03-.15-.04-.03-.11-.03-.15,0-.02.02-.04.04-.07.06,0,0-.02.01,0,0,0,0-.01,0-.02.01-.01,0-.02.02-.04.02-.02.01-.05.03-.07.04-.02,0,.03-.01,0,0,0,0-.01,0-.02,0-.01,0-.03,0-.04.01-.06.02-.1.08-.08.14s.08.1.14.08h0Z"/>
            <path class="cls-7" d="M31.6,27.05c-.26-.53-.41-1.12-.43-1.72,0-.06-.05-.11-.11-.11-.06,0-.12.05-.11.11.02.64.18,1.26.46,1.83.03.06.11.07.16.04.06-.03.07-.1.04-.16h0Z"/>
            <path class="cls-7" d="M36.54,24.05c.45.18.73.62.87,1.07.18.57.13,1.18.07,1.77,0,.07-.01.13-.02.2-.02.1-.04.12-.14.12-.15,0-.31.02-.46.02-.32,0-.64.01-.96,0-.63-.01-1.26-.05-1.88-.12-.58-.07-1.22-.23-1.75.09-.13.08-.01.27.12.2.26-.16.55-.18.84-.15.32.02.63.08.94.11.69.07,1.37.11,2.06.11.34,0,.69,0,1.03-.03.11,0,.24,0,.33-.08.1-.09.1-.24.11-.37.07-.63.12-1.29-.06-1.91-.16-.54-.5-1.03-1.03-1.25-.14-.06-.2.17-.06.22h0Z"/>
            <path class="cls-7" d="M31.11,25.41c.36-.26.73-.51,1.12-.74.35-.22.72-.49,1.15-.53s.83-.12,1.25-.18.87-.11,1.3.01c.14.04.2-.18.06-.22-.42-.12-.86-.09-1.29-.03-.46.07-.9.16-1.37.2-.43.04-.8.3-1.16.52-.4.24-.79.5-1.17.77-.12.08,0,.28.12.2h0Z"/>
            <path class="cls-7" d="M36.91,20.42c.11-.36.37-.66.71-.81.16-.07.41-.15.57-.04s.22.34.27.52c.23.86.16,1.81-.21,2.61-.22.47-.53.89-.83,1.3-.09.12.11.23.2.12.31-.43.63-.86.85-1.34s.33-.96.35-1.46-.03-1.01-.19-1.47c-.07-.19-.16-.39-.35-.49-.2-.11-.45-.07-.65,0-.45.17-.79.55-.93,1-.04.14.18.2.22.06h0Z"/>
            <path class="cls-7" d="M32.49,23.99c-.17-.65-.26-1.31-.28-1.98,0-.34,0-.68.03-1.02.03-.31.06-.62.16-.92s.26-.57.53-.74c.12-.08.28-.16.43-.11.14.05.26.18.36.28.39.41.61.96.72,1.52.15.76.1,1.54.04,2.3-.01.15.22.15.23,0,.09-1.33.16-2.89-.81-3.95-.21-.23-.47-.46-.8-.37-.3.08-.57.31-.73.57-.18.28-.26.62-.3.94-.05.36-.08.72-.09,1.08-.02.83.08,1.66.28,2.46.04.14.26.08.22-.06h0Z"/>
            <path class="cls-7" d="M34.41,20.16c.1-.23.24-.44.4-.63s.36-.36.58-.47c.24-.13.51-.13.77-.08.12.03.23.07.31.15.07.07.13.17.16.27.11.3.07.62.02.92,0,.06.01.12.08.14.05.01.13-.02.14-.08.04-.31.09-.64,0-.95-.07-.27-.24-.51-.5-.62-.14-.06-.31-.08-.46-.09s-.32,0-.46.06c-.27.1-.51.28-.72.48-.23.22-.42.49-.55.78-.02.06-.02.12.04.16.05.03.13.02.16-.04h0Z"/>
            <path class="cls-7" d="M31.84,24.16c-.58-.46-.92-1.13-1.1-1.83-.09-.35-.16-.72-.17-1.09s.09-.73.48-.83.93.1.93.57c0,.15.23.15.23,0,0-.47-.4-.77-.84-.82s-.82.16-.96.58-.05.86.02,1.27.2.83.39,1.21c.2.42.49.81.86,1.1.11.09.28-.07.16-.16h0Z"/>
            <path class="cls-7" d="M31.07,25.23c-.51-.5-1-1.02-1.37-1.63-.18-.3-.33-.63-.43-.97-.05-.19-.09-.39-.09-.59,0-.16.02-.35.12-.48.12-.15.36-.16.53-.14.2.02.39.1.56.22.12.09.23-.11.12-.2-.31-.22-.75-.33-1.12-.2-.4.14-.46.6-.43.97.07.82.52,1.57,1.03,2.2.28.35.6.68.92.99.11.1.27-.06.16-.16h0Z"/>
            <path class="cls-7" d="M33.13,19.88c-.53.92-.69,2.07-.27,3.07.11.26.26.51.44.73.1.11.26-.05.16-.16-.84-.99-.75-2.44-.14-3.52.07-.13-.12-.24-.2-.12h0Z"/>
            <path class="cls-7" d="M35.51,19.91c.06.6.12,1.2.13,1.8,0,.55-.04,1.11-.27,1.62-.06.13.14.25.2.12.24-.52.3-1.1.3-1.67,0-.63-.06-1.25-.13-1.87-.02-.15-.24-.15-.23,0h0Z"/>
            <path class="cls-7" d="M36.95,20.91c-.33.6-.5,1.27-.51,1.95,0,.15.23.15.23,0,0-.64.17-1.28.47-1.84.07-.13-.13-.25-.2-.12h0Z"/>
            <path class="cls-7" d="M37.51,21.55c-.21.58-.42,1.17-.41,1.79,0,.15.23.15.23,0,0-.6.2-1.17.4-1.73.02-.06-.02-.13-.08-.14-.06-.02-.12.02-.14.08h0Z"/>
            <path class="cls-7" d="M33.62,26.8c-.31-.06-.64-.12-.9-.31-.23-.17-.36-.44-.38-.73s.05-.6.24-.82c.1-.11.23-.21.38-.23s.27.06.36.17c.11.13.18.3.24.46.07.21.13.42.17.64l.22-.06c-.08-.35-.15-.72-.16-1.08,0-.11,0-.26.07-.34.1-.11.27,0,.35.08.11.11.18.24.26.37.09.14.18.29.26.44.17.3.31.61.4.95.03.12.23.1.23-.03,0-.32-.1-.62-.19-.93-.08-.28-.2-.61-.15-.91.05-.26.28-.38.53-.38.22,0,.51.15.66-.09.03-.05.01-.13-.04-.16-.07-.03-.14-.07-.21-.1-.13-.06-.25.13-.12.2.07.03.14.07.21.1l-.04-.16c-.05.08-.23,0-.3,0-.13-.02-.26-.02-.38.01-.26.06-.47.26-.52.53-.06.31.03.64.12.94.09.32.2.63.21.96l.23-.03c-.08-.31-.2-.6-.35-.88s-.3-.54-.48-.79c-.15-.21-.4-.47-.69-.37-.24.09-.28.37-.27.59.01.38.08.77.17,1.14.03.15.25.08.22-.06-.04-.23-.1-.45-.18-.67-.06-.17-.14-.34-.25-.49-.1-.14-.25-.25-.42-.27-.19-.03-.37.03-.52.14-.57.42-.63,1.35-.18,1.88.29.33.74.43,1.16.51.14.03.21-.19.06-.22h0Z"/>
            <path class="cls-7" d="M35.48,24.76l.1.99c.03.25.08.53.02.79-.03.11-.08.21-.17.27-.1.07-.23.08-.35.09-.32.02-.65.02-.97.01-.37,0-.75-.03-1.12-.07-.06,0-.11.06-.11.11,0,.07.05.11.11.11.69.07,1.4.1,2.09.05.28-.02.57-.1.7-.38.12-.25.09-.54.06-.8l-.12-1.18c0-.06-.05-.11-.11-.11-.06,0-.12.05-.11.11h0Z"/>
            <path class="cls-7" d="M35.67,24.69h0s.01.04.02.06l-.06.06s.02.01.03.02c.01,0,.03.02.04.03.02.02.04.03.06.05.05.05.09.1.12.15.07.12.12.25.16.38.1.33.17.67.22,1.01.03.15.04.32.14.44.09.11.24.14.38.12.3-.06.42-.38.41-.66,0-.19-.07-.37-.13-.55s-.11-.36-.08-.54l-.21.03c.08.12.17.26.31.32.12.05.28.04.38-.05.12-.11.11-.29.09-.44-.02-.17-.08-.34-.17-.48-.07-.12-.23-.04-.21.09.05.27.12.62-.11.84l.16.16c.19-.21.27-.51.24-.79-.04-.3-.18-.58-.38-.8-.1-.11-.26.05-.16.16.29.33.48.89.14,1.27-.1.11.05.26.16.16.29-.27.24-.71.17-1.06l-.21.09c.06.1.11.21.13.33.01.05.02.1.02.15,0,.05.01.11-.02.15-.03.04-.1.03-.14.02-.09-.04-.15-.14-.2-.22s-.19-.08-.21.03c-.07.36.11.68.18,1.03.03.14.03.29-.04.42-.05.09-.15.17-.26.14-.13-.03-.14-.21-.16-.32-.03-.18-.06-.37-.1-.55-.07-.31-.13-.64-.29-.92-.08-.14-.18-.27-.31-.36-.08-.05-.17-.09-.26-.04s-.1.18-.02.25c.11.1.27-.06.16-.16h0Z"/>
            <path class="cls-7" d="M36.92,25.62l.18.37c.04.08.15.07.2,0,.1-.16.16-.34.23-.52l-.23-.03c.02.33.04.66.06.99,0,.06.05.11.11.11s.11-.05.11-.11c0-.28-.02-.56-.06-.83,0-.06-.08-.09-.13-.08-.06,0-.1.05-.1.11,0,.47,0,.94,0,1.41,0,.06.05.11.11.11s.12-.05.11-.11c0-.47,0-.94,0-1.41l-.23.03c.04.26.05.52.05.77h.23c-.02-.33-.04-.66-.06-.99,0-.13-.18-.15-.23-.03-.06.16-.11.32-.2.46h.2l-.18-.37c-.03-.06-.11-.07-.16-.04-.06.03-.07.1-.04.16h0Z"/>
            <path class="cls-7" d="M36.81,27.41c.04.75-.2,1.52-.68,2.1-.13.16-.28.31-.44.43-.05.04-.08.1-.04.16.03.05.11.08.16.04.64-.49,1.07-1.24,1.19-2.03.04-.23.05-.47.04-.7,0-.15-.24-.15-.23,0h0Z"/>
            <path class="cls-7" d="M35.9,27.79c-.17.1-.24.29-.28.47-.01.05-.02.09-.03.14,0,.02,0,.04,0,.06,0,.02.02.04.04.06.04.03.09.03.13,0,.1-.05.2-.13.27-.22.08-.1.14-.21.17-.34,0-.03.01-.06,0-.09-.01-.04-.04-.07-.07-.09-.04-.02-.08-.02-.12-.03-.06,0-.12,0-.18.02s-.11.04-.16.08c-.06.04-.1.09-.14.14-.03.05-.06.1-.08.16-.01.06-.02.13,0,.19.01.04.03.07.06.1s.07.05.11.06.09,0,.13,0c.04-.01.07-.03.1-.05.06-.04.11-.09.15-.15s.09-.11.14-.17c.02-.03.04-.05.06-.08.02-.03.05-.07.06-.1.01-.06,0-.12-.04-.16-.03-.03-.07-.05-.11-.06-.12-.03-.25,0-.36.07-.11.07-.19.17-.24.29,0,.02-.02.05-.02.07,0,.03,0,.06.01.09.01.02.04.05.07.05.03,0,.06,0,.09-.01.02-.02.05-.04.05-.07,0-.03.01-.06.03-.09v.03s.02-.07.05-.1l-.02.02s.05-.06.09-.08l-.02.02s.06-.04.1-.06h-.03s.07-.01.1-.02h-.03s.06,0,.09,0h-.03s.03,0,.04,0h-.03s.02,0,.02,0l-.02-.02s0,0,.01.01l-.02-.02s0,0,0,.01v-.03s0,0,0,.01v-.03s0,.01,0,.02v-.03s0,.01,0,.02v-.03s-.03.06-.05.09c-.02.03-.04.06-.07.09l.02-.02s-.07.09-.11.13c-.04.04-.07.08-.11.11l.02-.02s-.04.03-.06.04h.03s-.03,0-.04,0h.03s-.02,0-.03,0h.03s-.02,0-.03,0h.03s-.02,0-.02,0l.02.02s-.01-.01-.02-.02l.02.02s-.01-.02-.02-.03v.03s0-.03,0-.04v.03s0-.04,0-.07v.03s0-.05.02-.08v.03s.02-.07.05-.1l-.02.02s.05-.06.08-.08l-.02.02s.07-.04.1-.06h-.03s.07-.01.11-.02h-.03s.07,0,.1,0h-.03s.02,0,.03,0h-.03s0,0,0,0l-.02-.02s0,0,0,0l-.02-.02h0s0-.01-.01-.02c0,0,0,0,0,0v-.03s0,0,0,.01v-.03s-.02.08-.03.11v-.03c-.02.06-.05.12-.09.18l.02-.02c-.04.05-.09.1-.14.14l.02-.02s-.07.05-.11.07l.17.13c.02-.11.04-.22.08-.33v.03s.03-.09.06-.12l-.02.02s.04-.05.07-.07l-.02.02s.02-.02.03-.02c.02-.02.04-.04.05-.07s0-.06-.01-.09c-.03-.05-.1-.07-.16-.04h0Z"/>
            <path class="cls-7" d="M32.85,26.71c-.18-.01-.38-.02-.53-.14s-.2-.3-.23-.48c-.07-.35-.18-.94.18-1.17l-.25-.19c-.12.42-.23.87-.14,1.31.04.19.11.37.23.52.05.06.1.12.17.17.09.07.19.08.05.14-.15.07-.43.04-.57-.04-.13-.07-.16-.42-.19-.57-.03-.11-.05-.22-.08-.33s-.08-.25-.08-.37c0-.09,0-.12.08-.19.04-.04.1-.07.14-.11.1-.07.19-.14.29-.21l-.24-.24c-.39.73-.12,1.55.35,2.17l.1-.25c-.32.08-.44-.47-.48-.68-.02-.13-.04-.27-.04-.4,0-.2.11-.28.25-.4.23-.2.48-.37.75-.53.14-.08.28-.16.42-.22.08-.03.12-.07.2-.02.06.04.09.14.12.2l.27-.21c-.12-.15-.28-.25-.47-.29-.22-.05-.3.25-.09.33.14.05.23.15.3.27.07.12.29.11.31-.04.03-.22.02-.43-.05-.64l-.17.22.64-.05-.09-.32c-.24.11-.49.17-.75.18l.09.32c.59-.32,1.3-.14,1.92-.36l-.09-.33c-.56.23-.76.85-.49,1.38l.27-.21c-.22-.23-.43-.47-.62-.73l-.06.24s.1,0,.12.05c.05.14.29.18.33,0l.03-.15c.05-.22-.29-.31-.33-.09l-.03.15h.33c-.1-.26-.36-.39-.62-.26-.08.04-.11.16-.06.24.2.28.43.55.67.8.14.14.36-.04.27-.21-.16-.31-.06-.73.28-.87.2-.08.12-.41-.09-.33-.65.23-1.38.06-2,.4-.15.08-.08.33.09.32.33,0,.63-.09.92-.22.15-.07.08-.33-.09-.32l-.64.05c-.1,0-.2.1-.17.22.05.15.07.3.05.46l.31-.04c-.12-.21-.29-.34-.51-.43l-.09.33c.14.03.23.09.32.2.13.16.35-.04.27-.21s-.19-.34-.38-.39c-.2-.05-.42.09-.59.18-.43.22-.86.5-1.2.84-.31.31-.22.86-.1,1.25s.41.78.84.67c.1-.02.17-.16.1-.25-.39-.52-.68-1.2-.35-1.82.07-.14-.09-.34-.24-.24-.13.1-.27.2-.4.3-.09.07-.21.13-.26.23-.11.22.04.59.09.81.04.17.08.34.12.52.03.12.05.26.11.37.11.2.42.24.62.26.23.02.48-.02.64-.2s.07-.39-.1-.52c-.54-.43-.38-1.12-.22-1.7.04-.14-.13-.28-.25-.19-.51.34-.43,1.03-.33,1.56.05.24.14.49.34.65.21.17.49.2.76.22.22.02.22-.33,0-.34h0Z"/>
            <path class="cls-7" d="M35.62,25c.12.39.19.79.21,1.19,0,.1,0,.19,0,.29,0,.05,0,.11,0,.16,0,.03,0,.1,0,.12-.03.04-.13.06-.18.08-.1.03-.19.05-.29.06-.22.02-.22.36,0,.34.45-.03.79-.4.83-.84.02-.14-.2-.24-.29-.12-.13.16-.24.33-.34.52l.31.13c.07-.35.17-.7.28-1.05l-.31.04c.12.19.13.42.16.63.03.23.09.45.24.63l.08-.29c-.2.04-.41.06-.62.05v.34l.83-.05c.27-.02.55-.05.82-.01l-.05-.34c-.13.03-.25.04-.38.03-.19-.02-.23.29-.05.34.13.03.26.03.39,0,.09-.02.14-.12.12-.21-.07-.3-.17-.66-.04-.96l-.31-.04c.03.18.04.37.04.55,0,.22.34.22.34,0s-.02-.43-.05-.64c-.02-.14-.26-.17-.31-.04-.17.4-.1.82,0,1.23l.12-.21c-.07.02-.14.02-.21,0l-.05.34c.16.01.31,0,.47-.04.2-.05.14-.32-.05-.34-.27-.03-.55,0-.82.01l-.83.05c-.22.01-.22.34,0,.34.24,0,.47-.01.71-.06.14-.03.15-.2.08-.29-.13-.15-.14-.37-.17-.55-.03-.22-.06-.45-.19-.64-.08-.13-.27-.1-.31.04-.11.34-.21.69-.28,1.05-.04.18.22.31.31.13.08-.16.18-.31.29-.45l-.29-.12c-.03.25-.24.48-.49.5v.34c.22-.02.49-.07.67-.2s.15-.43.15-.64c0-.5-.08-1.01-.23-1.49-.06-.21-.4-.12-.33.09h0Z"/>
            <path class="cls-7" d="M35.2,27.3c.22,0,.22-.34,0-.34s-.22.34,0,.34h0Z"/>
            <path class="cls-7" d="M34.94,27.31c.22,0,.22-.34,0-.34s-.22.34,0,.34h0Z"/>
            <path class="cls-7" d="M34.72,27.31c.22,0,.22-.34,0-.34s-.22.34,0,.34h0Z"/>
            <path class="cls-7" d="M33.66,27.17c.22,0,.22-.34,0-.34s-.22.34,0,.34h0Z"/>
            <path class="cls-7" d="M31.3,25.03c-.21.02-.37-.05-.48-.23-.09-.16-.16-.33-.27-.48-.23-.31-.53-.54-.78-.83-.28-.31-.42-.69-.48-1.1-.02-.18-.08-.44.04-.59.12-.16.36-.16.54-.11.22.06.36.31.47.5.13.21.24.43.32.66.05.14.27.08.22-.06-.09-.24-.19-.46-.32-.68-.06-.11-.13-.21-.21-.31s-.15-.2-.26-.26c-.19-.12-.48-.15-.7-.07s-.35.28-.36.51.03.5.08.73.14.45.26.65c.24.37.6.64.88.97.08.09.15.19.2.29.06.11.11.24.18.34.15.23.38.33.65.3.15-.01.15-.24,0-.23h0Z"/>
            <path class="cls-7" d="M30.47,24.53c-.13-.15-.27-.3-.41-.44-.04-.04-.08-.08-.12-.12-.02-.02-.05-.03-.08-.03-.03,0-.06.01-.08.03s-.03.05-.03.08.01.06.03.08c.15.14.29.28.42.43.04.04.08.09.11.13.02.02.05.03.08.03s.06-.01.08-.03.03-.05.03-.08-.01-.06-.03-.08h0Z"/>
            <path class="cls-7" d="M30.4,24.41s0-.02,0-.02c0-.02,0-.04,0-.05,0,0,0-.02,0-.02,0-.02,0-.04,0-.05,0,0,0-.02,0-.02,0-.02-.01-.03-.02-.05,0,0,0-.01-.01-.02,0-.01-.02-.03-.03-.04-.01-.01-.03-.02-.04-.03,0,0-.01,0-.02-.01-.01,0-.03-.01-.04-.01-.02,0-.03,0-.05,0-.01,0-.03.01-.04.02-.01,0-.02.02-.03.03v.03s-.02.04-.01.06v.03s.04.03.05.04c0,0,.02,0,.02.01l-.02-.02s.02.02.03.03l-.02-.02s.02.03.02.04v-.03s0,.03,0,.05v-.03s0,.03,0,.05v-.03s0,.02,0,.02c0,.02,0,.03,0,.05,0,.02,0,.03.01.04,0,.01.02.02.03.03.01.01.02.02.04.02h.03s.04,0,.06-.01l.02-.02s.02-.03.03-.05h0Z"/>
            <path class="cls-7" d="M29.37,21.55c.1,0,.2,0,.3.01.01,0,.03,0,.04,0,0,0,.05,0,.02,0,.02,0,.04,0,.07.01.04,0,.09.02.13.03.02,0,.04.01.06.02,0,0,.01,0,.02,0-.01,0-.02,0,0,0,0,0,.02,0,.03.01.04.02.07.04.11.06,0,0,.02.01.03.02-.02-.02,0,0,0,0,.01.01.03.03.04.04.03.03.06.07.1.1.07.07.19.02.2-.08,0-.06-.02-.13-.05-.18s-.1-.08-.16-.04c-.05.03-.08.1-.04.16,0,0,0,.01.01.02,0,.01,0,.01,0,0,0,0,0,0,0,.01,0,0,0,.03,0,.01s0,.02,0,.02l.2-.08c-.05-.05-.09-.11-.15-.15s-.12-.09-.19-.12c-.15-.07-.31-.1-.47-.11-.09,0-.18,0-.27-.01-.06,0-.12.05-.11.11s.05.11.11.11h0Z"/>
            <path class="cls-7" d="M32.21,21.55c.01-.26-.04-.54-.22-.75s-.45-.3-.71-.27c-.15.02-.28.08-.38.19-.09.1-.17.22-.23.34-.12.28-.14.58-.13.88,0,.33.03.66.16.96.03.06.11.07.16.04.06-.03.07-.1.04-.16-.1-.22-.11-.47-.12-.71-.01-.25-.02-.51.04-.76.03-.11.08-.22.14-.32.06-.08.13-.18.22-.22.18-.08.44-.01.58.12.18.16.22.42.21.65,0,.15.22.15.23,0h0Z"/>
            <path class="cls-7" d="M32,20.6c-.12-.08-.25-.14-.38-.19s-.3-.08-.44-.05-.26.13-.35.23c-.09.1-.17.2-.23.32-.08.14-.12.29-.14.44h.23s0-.06,0-.09c0,0,0-.01,0-.02,0-.02,0,.01,0,0,0-.02,0-.03,0-.05.01-.06.03-.12.05-.17.01-.03.02-.06.03-.08,0-.01.01-.03.02-.04,0,0,0-.01,0-.02,0,0,0,0,0,0h0c.02-.06.05-.11.08-.16.02-.03.02-.03.04-.05.02-.02.03-.04.05-.05,0,0,.03-.02.01,0,0,0,.02-.01.03-.02.02-.01.04-.03.06-.04,0,0,.03-.02.02-.01s.02,0,.02,0c.02,0,.04-.01.06-.02s.04,0,.07-.01c-.02,0,0,0,.01,0,.01,0,.03,0,.04,0,.03,0,.05,0,.08,0,.01,0,.03,0,.04,0,0,0,0,0,.01,0-.03,0,0,0,0,0,.05,0,.1.02.15.04.06.02.13-.02.14-.08.01-.07-.02-.12-.08-.14-.21-.08-.45-.08-.65.01-.1.04-.19.11-.25.19-.09.11-.14.24-.19.36-.06.15-.11.3-.1.46,0,.06.05.12.11.11s.11-.05.11-.11c0,.02,0-.02,0-.03,0-.01,0-.03,0-.04,0-.03.01-.06.02-.09,0-.03.02-.05.03-.08,0,0,0-.02,0,0,0,0,0-.01,0-.02,0-.02.01-.03.02-.05.03-.05.05-.1.09-.14,0-.01.02-.02.03-.04,0,0,0-.01.01-.02,0,0,.01-.01,0,0,0,0,0,0,0-.01,0,0,0,0,.01-.01.01-.01.02-.03.03-.04.04-.04.08-.09.12-.13,0,0,.01-.01.02-.02,0,0,.01-.01,0,0,0,0,0,0,.01,0,0,0,.01,0,.02-.01.01,0,.02-.01.03-.02,0,0,.02,0,0,0,0,0,.02,0,.03,0,.01,0,.03,0,.04,0,0,0-.02,0,0,0,0,0,.02,0,.03,0,.01,0,.03,0,.04,0,0,0,.01,0,.02,0,0,0,.04,0,.02,0,.06,0,.12.02.17.04.03,0,.06.02.1.03,0,0,.01,0,.02,0,0,0,.02.01.01,0,.01,0,.03.01.04.02.07.03.13.07.19.11.05.03.13.01.16-.04.03-.06.01-.12-.04-.16h0Z"/>
            <path class="cls-7" d="M30.82,23.03c.15,0,.15-.23,0-.23s-.15.23,0,.23h0Z"/>
            <path class="cls-7" d="M30.82,23.01c.15,0,.15-.23,0-.23s-.15.23,0,.23h0Z"/>
            <path class="cls-7" d="M34.75,22.87c-.02-.62-.11-1.24-.28-1.83-.08-.3-.18-.6-.3-.88-.1-.24-.23-.47-.45-.61s-.5-.14-.72.03-.36.41-.47.64c-.27.53-.37,1.13-.42,1.72-.05.7-.1,1.47.17,2.13.05.14.28.08.22-.06-.21-.54-.21-1.13-.18-1.69s.08-1.1.26-1.63c.08-.24.19-.47.34-.68.14-.2.32-.41.58-.31.24.09.37.33.46.55.1.25.19.51.26.77.17.6.27,1.23.29,1.85,0,.15.23.15.23,0h0Z"/>
            <path class="cls-7" d="M32.39,20.9v-.19s0-.03,0-.04c0-.01-.01-.03-.02-.04-.01-.01-.02-.02-.04-.02-.01,0-.03-.01-.04,0h-.03s-.04.02-.05.03l-.02.02s-.02.04-.02.06v.19s0,.03,0,.04c0,.01.01.03.02.04.01.01.02.02.04.02.01,0,.03.01.04,0h.03s.04-.02.05-.03l.02-.02s.02-.04.02-.06h0Z"/>
            <path class="cls-7" d="M32.37,20.98c.01-.53.21-1.05.57-1.44l-.16-.16c-.25.28-.43.61-.54.97-.04.12.15.2.21.09.1-.18.19-.37.32-.52s.3-.28.48-.4c.09-.06.06-.22-.06-.21-.13,0-.26.03-.38.07l.13.17c.07-.14.25-.11.37-.09l.03-.23c-.05,0-.1,0-.15-.02l.07.17c.03-.07.13-.06.19-.04.09.03.16.09.21.16l.1-.17c-.15,0-.3-.01-.46-.02l.03.23c.31-.08.55.22.69.44.18.27.29.58.34.9,0,.06.09.1.14.08.07-.02.09-.08.08-.14-.06-.36-.19-.72-.4-1.02s-.52-.59-.91-.49c-.13.03-.1.22.03.23.15,0,.3.01.46.02.09,0,.14-.1.1-.17-.09-.14-.22-.24-.38-.28s-.34,0-.42.15c-.03.07,0,.14.07.17.07.02.14.03.21.03.06,0,.11-.04.11-.1,0-.05-.03-.12-.08-.13-.13-.02-.26-.04-.38,0-.1.03-.2.1-.25.2-.04.08.03.21.13.17s.21-.06.32-.07l-.06-.21c-.19.13-.38.26-.52.44s-.25.37-.36.57l.21.09c.1-.32.26-.62.49-.87.1-.11-.06-.27-.16-.16-.4.43-.63,1.01-.64,1.6,0,.15.23.15.23,0h0Z"/>
            <path class="cls-7" d="M34.53,20.57c-.05-.25.05-.5.19-.7.07-.1.16-.19.26-.28s.19-.17.3-.24c.21-.14.49-.14.73-.1.22.03.44.14.57.33.15.24.13.54.11.81,0,.06.06.11.11.11.07,0,.11-.05.11-.11.02-.29.03-.6-.11-.86-.13-.25-.38-.42-.65-.48-.15-.04-.3-.05-.46-.04s-.32.03-.46.1c-.13.07-.24.17-.35.26s-.22.2-.31.31c-.22.27-.34.61-.28.95.01.06.08.1.14.08.06-.02.09-.08.08-.14h0Z"/>
            <path class="cls-7" d="M36.63,19.16c-.4-.19-.85-.41-1.29-.25-.06.02-.1.08-.08.14.02.06.08.1.14.08.05-.02.1-.03.15-.04.01,0,.01,0,0,0,0,0,.01,0,.02,0,.01,0,.02,0,.03,0,.03,0,.05,0,.08,0s.05,0,.08,0c.01,0,.02,0,.03,0,.01,0,.01,0,0,0,0,0,.01,0,.02,0,.05,0,.1.02.14.03s.1.03.14.05c.02,0,.05.02.07.03,0,0,.01,0,.02,0,.01,0,.01,0,0,0,0,0,0,0,0,0,0,0,.01,0,.02,0,.1.04.19.09.29.13.05.03.13.02.16-.04.03-.05.02-.13-.04-.16h0Z"/>
            <path class="cls-7" d="M36.84,20.49c.22-.28.48-.59.83-.7.2-.06.39.01.51.18s.13.39.14.59c.03.41.08.88-.03,1.28-.11.37-.37.67-.57,1-.22.37-.38.79-.39,1.22,0,.15.23.15.23,0,.01-.45.2-.87.43-1.24s.49-.69.55-1.12c.07-.46.03-.96-.03-1.42-.03-.21-.09-.4-.24-.55-.14-.14-.33-.22-.53-.2-.46.05-.81.45-1.08.79-.09.11.07.28.16.16h0Z"/>
            <path class="cls-7" d="M37.69,23.95c.07-.28.14-.56.28-.81.12-.23.3-.42.44-.64.08-.13.15-.26.19-.41.04-.13-.14-.2-.21-.09-.28.43-.55.87-.7,1.36-.02.05.01.11.07.14.06.02.11,0,.14-.05.17-.22.3-.47.41-.73.02-.06-.03-.13-.08-.14-.07-.02-.12.02-.14.08-.1.24-.23.47-.39.67l.21.09c.14-.48.41-.9.67-1.31l-.21-.09c-.07.25-.23.45-.38.65-.08.1-.15.21-.21.32-.07.13-.13.27-.18.41-.05.16-.1.32-.14.48-.04.14.18.2.22.06h0Z"/>
            <path class="cls-7" d="M38.69,21.39c0-.25,0-.51,0-.76,0-.06-.05-.12-.11-.11s-.12.05-.11.11c0,.25,0,.51,0,.76,0,.06.05.12.11.11s.11-.05.11-.11h0Z"/>
            <path class="cls-7" d="M38.52,19.96c0-.13-.08-.24-.16-.33s-.18-.17-.3-.2c-.07-.01-.14-.01-.21,0-.03,0-.06.01-.08.03-.02.02-.03.05-.03.08s.01.06.03.08.05.04.08.03c.05,0,.11,0,.16,0h-.03s.06,0,.09.02h-.03s.05.01.07.03l-.02-.02c.06.04.11.1.15.16l-.02-.02s.04.06.06.1v-.03s0,.04,0,.07v-.03s0,.02,0,.03c0,.03.01.06.03.08.02.02.05.03.08.03.06,0,.12-.05.11-.11h0Z"/>
            <path class="cls-7" d="M37.87,35.39c.05-.06.08-.13.1-.21.01-.08.01-.16,0-.25-.03-.15-.09-.29-.15-.42-.01-.03-.02-.05-.05-.07-.02-.01-.06-.02-.09-.01s-.05.03-.07.05-.02.06-.01.09c.06.15.13.29.15.45v-.03s0,.09,0,.14v-.03s0,.07-.02.1v-.03s0,.03,0,.04c0,0,0,.01,0,.02,0,0-.02.03,0,0-.02.02-.03.05-.03.08,0,.03.01.06.03.08s.05.03.08.03c.03,0,.06-.01.08-.03h0Z"/>
            <path class="cls-7" d="M35.13,34.71c.1.1.19.21.29.3s.21.16.31.26c.05.05.1.09.15.14.04.04.09.1.11.13.04.06.06.1.08.16.02.06.05.12.08.18.08.12.2.21.34.25.06.02.13-.02.14-.08s-.02-.12-.08-.14c-.01,0-.03,0-.04-.01.02,0,0,0-.01,0-.01,0-.02-.01-.03-.02,0,0-.01,0-.02-.01,0,0-.02-.02-.01,0s0,0,0,0c0,0,0,0-.01-.01-.01,0-.02-.02-.03-.03,0,0-.02-.02-.02-.03-.01-.01,0,.01,0,0,0,0-.01-.01-.02-.02-.03-.05-.04-.08-.07-.14-.03-.06-.05-.13-.09-.18-.08-.11-.17-.21-.27-.3s-.21-.17-.3-.25c-.12-.1-.22-.22-.33-.33-.04-.04-.12-.04-.16,0s-.04.12,0,.16h0Z"/>
            <path class="cls-7" d="M37.89,38.68c.09.04.18.06.28.05.09-.01.17-.04.25-.09.06-.04.12-.09.18-.14.01-.01.03-.02.04-.03,0,0,0,0,.01,0,0,0,0,0,0,0,0,0,.01-.01.02-.02.03-.02.06-.04.09-.05,0,0,0,0,.01,0,.01,0,0,0,0,0,.01,0,.02,0,.03-.01.01,0,.02,0,.03,0,0,0,0,0,.01,0,0,0,.03,0,.01,0-.01,0,0,0,0,0,0,0,.01,0,.02,0,.01,0,.03,0,.04,0,.03,0,.05,0,.08,0,.06,0,.12-.05.11-.11s-.05-.12-.11-.11c-.09,0-.19,0-.27.03-.07.02-.13.06-.19.11s-.12.1-.18.14c-.02.01.02-.01,0,0,0,0-.01,0-.02.01-.01.01-.03.02-.04.03-.01,0-.03.02-.04.02,0,0-.03.01-.01,0,.02,0,0,0,0,0,0,0-.01,0-.02,0-.01,0-.02,0-.03,0,0,0,0,0-.01,0,0,0-.02,0,0,0s0,0,0,0c0,0-.01,0-.02,0-.01,0-.02,0-.04,0,0,0,0,0-.01,0,0,0-.02,0,0,0s0,0,0,0c0,0-.01,0-.02,0-.01,0-.02,0-.03,0,0,0-.04-.02-.01,0-.03-.01-.06-.02-.09-.01-.03,0-.06.03-.07.05-.03.05-.02.13.04.16h0Z"/>
            <path class="cls-7" d="M38.72,38.4s.09-.02.13-.03c.05-.02.09-.04.14-.07.09-.06.16-.14.21-.23.03-.05.05-.11.07-.17,0-.03,0-.06-.01-.09-.01-.02-.04-.05-.07-.05-.03,0-.06,0-.09.01s-.04.04-.05.07c0,.02-.01.05-.02.07v-.03s-.04.09-.07.14l.02-.02s-.07.08-.11.11l.02-.02s-.08.05-.13.07h.03s-.08.02-.13.02c-.03,0-.06.03-.07.05-.01.02-.02.06-.01.09s.03.05.05.07h.03s.04.02.06.01h0Z"/>
            <path class="cls-7" d="M38.39,38.39c-.05.02-.11.04-.16.04h.03c-.06,0-.11,0-.17,0h.03s-.07,0-.1,0c-.04,0-.07.01-.11.02h.03s-.06,0-.09,0h.03s-.02,0-.03,0c-.03,0-.06,0-.09.01-.02.01-.05.04-.05.07,0,.03,0,.06.01.09.02.02.04.05.07.05.04,0,.08.01.12.01s.08-.01.12-.02h-.03s.04,0,.06,0h-.03c.07,0,.14.01.22,0s.14-.02.21-.05c.03-.01.05-.02.07-.05.01-.02.02-.06.01-.09s-.03-.05-.05-.07-.06-.02-.09-.01h0Z"/>
            <path class="cls-7" d="M32.82,20.62c-.06.26-.11.53-.11.8s.09.51.14.76.06.51.13.76.17.47.3.68c.08.12.28,0,.2-.12-.12-.2-.22-.41-.28-.63-.07-.24-.08-.49-.13-.74s-.14-.47-.14-.71.05-.51.1-.76c.03-.14-.19-.21-.22-.06h0Z"/>
            <path class="cls-7" d="M35.57,23.42c.09-.22.07-.43.07-.66s.01-.44.03-.66.06-.44.09-.66c.03-.24.06-.47.08-.71,0-.06-.06-.11-.11-.11-.07,0-.11.05-.11.11-.03.23-.05.45-.08.68s-.07.44-.09.66-.03.44-.03.66c0,.11.01.21,0,.32s-.03.21-.07.31c-.02.06.02.13.08.14.07.02.12-.02.14-.08h0Z"/>
            <path class="cls-7" d="M35.86,21.87c0-.33,0-.66,0-.99,0-.17,0-.33-.04-.49s-.07-.31-.11-.47c-.04-.14-.26-.08-.22.06.04.15.08.3.11.46s.03.31.03.46c0,.32,0,.65,0,.97,0,.15.23.15.23,0h0Z"/>
            <path class="cls-7" d="M35.57,20.56s0,.02,0,.04c0,0,0,.04,0,.02,0,.02,0,.04,0,.06,0,.05,0,.09,0,.14,0,.02,0,.05,0,.07,0,0,0,.01,0,.02,0-.01,0-.01,0,0,0,.01,0,.02,0,.03,0,.05-.02.1-.02.14-.03.2-.04.4-.05.6,0,.06.05.12.11.11.06,0,.11-.05.11-.11,0-.1,0-.2.01-.31,0-.05,0-.1.01-.15,0-.01,0-.02,0-.03,0,.02,0,0,0-.01,0-.03,0-.05.01-.08.03-.21.07-.41.02-.62-.01-.06-.08-.1-.14-.08-.06.02-.09.08-.08.14h0Z"/>
            <path class="cls-7" d="M35.74,21.49s-.04-.12-.04-.16c0-.06,0-.12,0-.18s0-.12,0-.18,0-.12,0-.18c0-.25.01-.5.02-.76,0-.06-.05-.12-.11-.11-.06,0-.11.05-.11.11-.01.26-.02.51-.02.77,0,.06,0,.13,0,.19,0,.06,0,.12,0,.18,0,.06-.01.12,0,.19s.03.13.04.19c.02.06.08.1.14.08s.1-.08.08-.14h0Z"/>
            <path class="cls-7" d="M35.49,21.1c-.02.37-.03.73-.02,1.1,0,.06.05.12.11.11s.12-.05.11-.11c0-.37,0-.73.02-1.1,0-.06-.06-.12-.11-.11-.07,0-.11.05-.11.11h0Z"/>
            <path class="cls-7" d="M23.06,32.79c-.08.03-.16.06-.22.11-.04.03-.08.06-.12.1s-.07.08-.1.12c-.02.03-.03.05-.03.09,0,.03,0,.06,0,.09,0,.03.02.06.04.08.02.02.04.04.06.06.05.03.12.04.18.02l.05-.02s.06-.05.08-.08c0,0,0-.01.01-.02l-.04.05s.07-.08.11-.11l-.05.04s.09-.06.13-.08l-.05.02s.03-.01.04-.01c.06-.02.11-.05.14-.11.02-.03.03-.05.03-.09,0-.03,0-.06,0-.09-.02-.06-.05-.11-.11-.14s-.12-.04-.18-.02h0Z"/>
            <path class="cls-7" d="M24.94,32.73c-.05-.01-.1-.02-.16-.04-.03,0-.01,0,0,0-.01,0-.02,0-.03-.02,0,0-.05-.03-.02-.01.02.01,0,0-.01-.01-.02-.02-.02-.03,0,0,0-.01-.01-.02-.02-.03.01.02,0,.02,0,0,0,0-.01-.06,0-.03,0,.03,0-.01,0-.02,0-.02,0-.03,0-.05,0-.03,0-.06,0-.09,0-.06,0-.12.01-.17,0,0,0-.06,0-.03,0,.03,0-.02,0-.02,0-.03.01-.06.02-.09s.01-.06.02-.09c0-.01,0-.03.01-.04,0,0,.02-.04,0-.02-.01.03,0-.02.01-.03,0-.01.01-.02.02-.03,0-.01.02-.03.03-.04,0,0,.03-.04,0,0,.08-.09.1-.23,0-.32-.08-.08-.24-.1-.32,0-.22.27-.26.6-.28.94,0,.18.03.37.16.51.11.12.27.17.42.2.12.02.25-.03.28-.16.03-.11-.03-.26-.16-.28h0Z"/>
            <path class="cls-7" d="M25.03,31.05c-.19.2-.36.43-.49.68s-.28.58-.23.88.35.43.63.46c.31.03.63.03.94.03.12,0,.23-.11.23-.23s-.1-.23-.23-.23c-.28,0-.55,0-.83-.03-.03,0-.05,0-.08,0,0,0-.07,0-.03,0-.04,0-.09-.02-.13-.03.04.01-.02,0-.02-.01-.02-.01-.02-.02,0,0l-.02-.02s-.01-.03,0,0c-.01-.03-.01-.04-.01-.06-.01-.18.11-.41.2-.58.11-.2.23-.37.39-.54.09-.09.09-.24,0-.32s-.24-.09-.32,0h0Z"/>
            <g>
              <path class="cls-7" d="M23.75,34.47l-1.3-.05h-.11c-.38-.04-.75-.15-1.09-.34l-.2-.11c-.06-.03-.12-.07-.17-.1l-.47-.31c-.32-.21-.64-.4-.97-.59l-.28-.16h0c-.53-.2-1.09-.32-1.65-.36h-.05s-5.75-.13-5.75-.13c-.24,0-.47.06-.67.19-.15.1-.25.27-.25.46,0,.13.06.25.16.32h0c.19.12.4.19.62.19l4.82.17.19.17-.14.21-5.08-.07c-.09,0-.19.02-.27.08-.17.11-.28.3-.28.51v.11c0,.18.09.35.25.43.15.07.31.11.47.12l4.89.04.15.17-.18.18-4.86-.04c-.17,0-.33.04-.47.13-.12.07-.2.21-.2.36v.34c0,.11.05.21.15.26.14.06.29.1.44.1l4.79.04c.09,0,.17.04.23.11.05.06.05.14,0,.2-.03.04-.08.06-.13.06l-4.99-.02c-.1,0-.2.03-.28.1-.12.1-.2.25-.2.41v.12c0,.16.07.31.2.39h0c.17.11.36.17.55.18l5.86.2h.26c.4-.03.79-.08,1.18-.17l.58-.14.35-.1c.39-.11.77-.28,1.12-.49.19-.12.41-.2.63-.25.18-.03.35-.05.53-.05h1.97c-.36-.93-.43-1.87-.32-2.86Z"/>
              <path class="cls-7" d="M17.46,38.58l-5.86-.2c-.2,0-.4-.07-.58-.19-.14-.09-.22-.26-.22-.43v-.12c0-.18.08-.34.22-.44.09-.07.2-.11.3-.11h0l4.99.02s.07-.02.09-.04c.03-.04.03-.1,0-.14-.05-.06-.12-.1-.19-.1l-4.79-.04c-.16,0-.31-.04-.46-.1-.11-.05-.18-.17-.18-.3v-.34c.01-.17.1-.32.23-.4.15-.09.32-.13.49-.13h0l4.84.04.13-.14-.11-.12-4.87-.04c-.17,0-.34-.04-.49-.12-.17-.09-.28-.27-.27-.47v-.11c0-.22.12-.43.3-.54.09-.06.2-.08.29-.08l5.05.07.1-.15-.15-.13-4.8-.17c-.23,0-.45-.08-.64-.2-.12-.07-.19-.21-.18-.35,0-.21.11-.39.27-.5.2-.13.43-.2.67-.2,0,0,.02,0,.03,0l5.8.13c.57.04,1.13.16,1.66.36l.29.16c.33.19.66.39.98.59l.47.31c.06.04.11.07.17.1l.2.11c.34.18.7.29,1.08.33h.11s1.34.06,1.34.06v.05c-.12,1.06-.02,1.97.31,2.85l.02.06h-2.04c-.18-.01-.35,0-.52.04-.22.04-.42.12-.61.24-.35.22-.74.39-1.13.5l-.35.1-.58.14c-.39.09-.79.15-1.18.16h-.26ZM11.33,37.18c-.09,0-.18.03-.25.09-.11.09-.18.23-.18.37v.12c0,.14.06.28.18.36.16.11.34.16.53.17l5.86.2h.25c.39-.03.78-.08,1.17-.17l.58-.14.34-.1c.39-.11.76-.28,1.11-.49.2-.12.42-.21.64-.25.18-.03.36-.05.54-.05h1.9c-.32-.85-.41-1.74-.31-2.77l-1.36-.06c-.39-.03-.76-.15-1.11-.34l-.2-.11c-.06-.03-.12-.07-.18-.11l-.47-.31c-.31-.2-.64-.4-.97-.59l-.28-.16c-.52-.19-1.07-.31-1.63-.35h-.05s-5.75-.13-5.75-.13c-.23,0-.45.06-.65.19-.14.09-.22.25-.23.42,0,.11.05.22.14.28.18.11.39.18.6.19l4.84.17.24.2-.17.26h-.03s-5.08-.07-5.08-.07c-.09,0-.17.02-.24.07-.16.1-.25.28-.26.47v.11c0,.16.08.32.22.39.14.07.29.11.45.11l4.91.04.19.21-.22.23h-.02l-4.86-.04h0c-.15,0-.31.04-.44.12-.11.06-.18.19-.18.32v.34c0,.09.04.18.12.22.13.06.27.09.42.09l4.79.04c.1,0,.2.05.26.13.06.07.06.18,0,.26-.04.05-.1.08-.16.08l-4.99-.02h0Z"/>
            </g>
            <g>
              <path class="cls-7" d="M48.25,37.06h0c-.06-.43-.16-.85-.31-1.26v-.02c-.17-.46-.42-.87-.74-1.23l-.12-.13s-.06-.07-.1-.1h0c-.26-.21-.58-.31-.9-.29l-3.14.23-2.28.26-1.47.16-.75.07c-.25.02-.49.03-.74.04,0,.06,0,.12,0,.18.03.08.05.16.08.24.37.09.64.35.83.69.34.37.55.87.53,1.38,0,.04.02.08.02.12h.64c.67,0,1.34.05,2.01.13l.21.03c.51.06,1.01.16,1.51.28l.91.22.28.07c.27.07.55.13.83.17l.12.02c.37.05.75.08,1.13.08.29,0,.57-.08.83-.21h0c.18-.1.33-.24.45-.41h0c.14-.21.2-.47.16-.72ZM43.66,35.13c-.02.1-.11.16-.2.17-.15.08-.31.12-.48.13-.13.01-.26,0-.39-.02-.14-.02-.28-.05-.4-.07-.1-.02-.16-.13-.16-.23,0-.09.07-.21.16-.23.32-.05.64-.12.97-.12.02,0,.03,0,.05,0,.07,0,.14,0,.2.02.03,0,.06.02.09.05,0,0,0,0,.01,0,0,0,0,0,0,0,.12.03.18.17.16.29ZM47.58,36.85c-.22.22-.49,0-.66-.17-.02-.02-.04-.04-.07-.07-.4-.3-.84-.52-1.31-.68-.56-.18-1.13-.3-1.69-.49-.15-.05-.19-.21-.13-.35.15-.36.49-.45.83-.44.38-.06.78-.02,1.14.03.56.09,1.13.29,1.56.68.19.18.35.41.42.67.06.23.1.61-.08.8Z"/>
              <path class="cls-7" d="M46.72,38.46c-.35,0-.71-.03-1.06-.08l-.12-.02c-.28-.04-.56-.1-.83-.17l-.28-.07-.91-.22c-.49-.12-1-.21-1.5-.28l-.21-.03c-.66-.08-1.34-.13-2-.13h-.68s0-.04,0-.04c0-.04-.02-.08-.02-.12.02-.49-.17-.98-.52-1.36-.2-.37-.47-.59-.81-.67h-.03s0-.03,0-.03c-.02-.08-.05-.16-.07-.24h0s0-.02,0-.02c0-.06,0-.12,0-.18v-.04s.05,0,.05,0c.26,0,.5-.02.73-.04l.75-.07,3.75-.42,3.14-.23c.33-.03.67.08.93.3.04.03.07.06.1.1l.12.13c.32.36.57.78.74,1.24v.02c.15.41.26.83.31,1.27h0c.04.27-.03.53-.17.75-.12.18-.28.33-.47.43-.26.14-.56.22-.85.22-.03,0-.05,0-.08,0ZM39.2,37.37h.61c.67,0,1.35.05,2.01.13l.21.03c.51.06,1.02.16,1.51.28l.91.22.28.07c.27.07.55.13.82.17l.12.02c.37.05.75.08,1.12.07.28,0,.56-.07.81-.21.17-.09.32-.23.43-.4.13-.2.19-.45.16-.69h0c-.06-.43-.16-.85-.3-1.25v-.02c-.17-.45-.41-.86-.73-1.21l-.12-.13s-.06-.06-.09-.09c-.25-.2-.56-.3-.87-.28l-3.14.23-3.75.42-.76.07c-.22.02-.45.03-.7.04,0,.04,0,.08,0,.13.02.07.04.14.07.21.34.09.63.34.83.7.36.39.56.91.54,1.41,0,.02.01.05.02.07ZM47.37,36.99c-.21,0-.41-.19-.49-.27-.01-.01-.03-.03-.04-.04l-.02-.02c-.39-.29-.83-.51-1.29-.66-.28-.09-.57-.17-.85-.25-.28-.07-.56-.15-.84-.24-.07-.02-.13-.08-.16-.15-.01-.03-.02-.06-.02-.09-.04.04-.1.07-.16.08-.14.08-.31.12-.5.13-.13.01-.27,0-.4-.02-.14-.02-.28-.05-.4-.07-.12-.03-.19-.16-.2-.27,0-.11.08-.26.2-.28.08-.01.16-.03.24-.04.24-.04.49-.08.74-.09.02,0,.04,0,.06,0,.07,0,.13,0,.2.02.04,0,.07.02.1.05h0c.1.03.17.11.19.21.15-.27.44-.4.83-.39.31-.05.69-.04,1.14.03.67.11,1.2.34,1.59.69.21.2.36.44.43.7.07.27.09.65-.09.84h0c-.08.08-.16.11-.24.11ZM44.5,34.71c-.38,0-.62.14-.74.42-.03.06-.03.13,0,.19.02.05.06.08.11.1.27.09.56.17.83.24.28.08.57.15.86.25.48.16.92.39,1.33.68l.03.03s.03.03.04.04c.27.26.46.31.6.17h0c.17-.17.12-.55.07-.75-.06-.24-.21-.47-.41-.65-.37-.34-.89-.57-1.54-.67-.44-.07-.81-.08-1.12-.03-.02,0-.03,0-.05,0ZM43.15,34.8c-.24,0-.49.04-.72.08-.08.01-.16.03-.24.04-.06,0-.13.1-.12.18,0,.08.05.17.13.19.13.03.26.05.4.07.13.03.25.03.38.02.18,0,.33-.05.47-.13h.02c.07-.01.14-.05.16-.14h0c.02-.09-.02-.21-.12-.24h0l-.03-.02s-.04-.03-.06-.04c-.06-.01-.13-.02-.2-.02-.02,0-.04,0-.05,0Z"/>
            </g>
            <g>
              <path class="cls-7" d="M36.58,37.4c-.27-.37-.43-.79-.3-1.3-.01-.03-.03-.05-.04-.08-.16-.42-.53-.95-.93-1.23h-3.38s-.4-.03-.4-.03c.47.25.93.72,1.17,1.14.27.48.27.98.15,1.48l3.73.02Z"/>
              <path class="cls-7" d="M36.67,37.45h-.09s-3.79-.02-3.79-.02v-.06c.15-.57.1-1.03-.13-1.44-.25-.44-.71-.89-1.15-1.12l-.18-.09.6.02h3.39s.01.02.01.02c.42.29.79.85.95,1.25,0,.03.02.05.04.07v.02s0,.02,0,.02c-.11.43-.01.83.3,1.26l.05.07ZM32.9,37.34l3.59.02c-.28-.42-.36-.82-.26-1.25-.01-.02-.02-.05-.03-.07-.15-.39-.5-.92-.9-1.2h-3.37s-.22-.02-.22-.02c.4.26.8.67,1.03,1.06.23.41.29.89.17,1.45Z"/>
            </g>
          </g>
          <path class="cls-9" d="M24.43,43.31c.07,1.03-.34,2.06-1.15,2.71-.05.04-.11.08-.11.16s.06.14.13.15c.08.02.14-.03.2-.08.06-.06.13-.11.19-.17.11-.1-.05-.26-.16-.16-.04.04-.08.07-.13.11-.03.02-.06.07-.1.08h.06,0s.03.02.04.04v-.02s0,.04,0,.06v-.02s0,.04-.01.06c.02-.03.07-.05.1-.07.04-.04.08-.07.12-.11.07-.07.15-.14.21-.22.14-.16.26-.32.37-.5.22-.38.37-.8.44-1.23.04-.26.05-.52.03-.78,0-.15-.24-.15-.23,0h0Z"/>
          <path class="cls-4" d="M23.47,45.98c-.16-.03-.21-.19-.27-.32-.07-.14-.14-.28-.2-.42-.14-.3-.24-.61-.34-.93-.09-.3-.22-.62-.19-.93.01-.15.1-.27.18-.39s.15-.27.19-.42-.18-.2-.22-.06c-.05.16-.13.3-.22.44s-.15.29-.16.46c-.02.35.12.7.22,1.03.11.34.23.68.38,1.01.07.16.15.32.23.48.07.14.17.25.33.28.14.02.21-.2.06-.22h0Z"/>
          <path class="cls-9" d="M23.73,45.58s-.05.06-.08.08c-.01.01-.03.03-.04.03,0,0,.02-.02,0,0,0,0,0,0,0,0,0,0-.02.01-.03.02-.02.01-.03.02-.05.03,0,0-.02,0-.02.01,0,0,0,0-.01,0,0,0,.02,0,0,0,0,0-.02,0-.03,0-.01,0,0,0,0,0,0,0,0,0-.01,0,0,0-.02,0-.03,0-.01,0,0,0,0,0,0,0-.01,0-.02,0-.02,0-.04-.01-.06-.02-.01,0,0,0,0,0,0,0-.01,0-.02,0,0,0-.02,0-.03-.01-.03-.02-.06-.03-.1-.05-.01,0-.03-.02-.04-.03,0,0-.01,0,0,0,.01.01,0,0,0,0,0,0-.01-.01-.02-.02,0,0-.01-.01-.02-.02,0,0,0-.01,0-.01,0,0,.01.02,0,0,0-.02-.02-.03-.03-.05-.02-.03-.03-.07-.05-.1-.02-.04-.04-.08-.08-.11-.04-.05-.12-.04-.16,0-.04.05-.04.11,0,.16,0,0,0,0,0,.01-.01,0-.01-.02,0,0,0,0,0,.01.01.02,0,.02.02.03.03.05.02.03.03.07.05.1.04.08.11.14.19.19.03.02.07.04.1.05.05.02.09.04.14.06.06.01.11.02.17,0,.05,0,.09-.03.13-.06.08-.05.16-.12.23-.19.04-.05.05-.12,0-.16-.04-.04-.12-.05-.16,0h0Z"/>
          <path class="cls-9" d="M23.86,45.38s-.08.09-.13.13c-.01.01-.02.02-.03.03,0,0-.04.03-.02.02-.02.02-.05.04-.08.05,0,0-.03.02-.02,0-.01,0-.03,0-.04.01s-.03,0-.04,0c-.02,0,0,0,0,0,0,0-.02,0-.02,0-.01,0-.03,0-.04,0,0,0-.01,0-.02,0,0,0-.02,0,0,0,.01,0,0,0,0,0,0,0-.01,0-.02,0-.02,0-.03,0-.05-.01,0,0-.03-.01-.02,0,.01,0,0,0,0,0,0,0-.01,0-.02,0-.03-.01-.05-.03-.07-.05.02.01-.01-.01-.02-.01,0,0-.02-.02-.03-.03-.01-.01-.02-.02-.03-.03,0,0-.02-.02,0-.01,0,0-.01-.02-.01-.02-.08-.11-.14-.24-.2-.36-.08-.14-.16-.28-.23-.43-.03-.05-.11-.07-.16-.04s-.07.1-.04.16c.07.14.15.27.22.41.07.13.14.27.22.39s.19.21.33.26c.12.05.26.05.38,0,.15-.06.27-.18.38-.3.04-.04.05-.12,0-.16-.04-.04-.12-.05-.16,0h0Z"/>
          <path class="cls-9" d="M23.87,45.71c.15-.14.21-.34.28-.52.08-.21.16-.41.23-.62.14-.42.25-.85.27-1.29,0-.15-.22-.15-.23,0-.02.41-.13.82-.26,1.21-.06.19-.14.39-.21.58-.06.17-.12.35-.25.48-.11.1.06.27.16.16h0Z"/>
          <path class="cls-6" d="M24.55,43.41c.15,0,.15-.23,0-.23s-.15.23,0,.23h0Z"/>
          <path class="cls-6" d="M24.55,43.4c.15,0,.15-.23,0-.23s-.15.23,0,.23h0Z"/>
          <path class="cls-6" d="M24.44,43.26s0,.04,0,.07c0,.01,0,.02.01.03,0,.01.01.02.02.03.01.01.02.02.04.02.01,0,.03.01.04,0,.02,0,.03,0,.04,0,.01,0,.03-.01.04-.02l.02-.02s.02-.04.02-.06v-.03s-.02-.04-.03-.05h0s.01.01.02.02c0,0,0,0,0,0v.03s.01,0,.01,0v.03s0,0,0,0v.03s0,0,0,0c0-.02,0-.03,0-.05,0-.02,0-.03-.01-.04,0-.01-.02-.02-.03-.03-.01-.01-.02-.02-.04-.02h-.03s-.04,0-.06.01l-.02.02s-.02.03-.03.05h0Z"/>
          <path class="cls-4" d="M22.4,42.29l.15.09s.04.02.06.04c0,0,0,0,.01,0,0,0,0-.01,0,0,0,0,.02.02,0,0,0-.01,0,0,0,0,0,0,0,0,0,.01,0,0,0-.02,0,0,0,0,0,.02,0,.03,0,0,0,.02,0,0,0-.01,0,0,0,.01,0,.01,0,.02,0,.04s0,.02,0,.04c0,.01,0,0,0,0,0,0,0,.01,0,.02,0,.02-.01.05-.02.07,0,0,0,.02-.01.03,0-.02,0,.01,0,.02-.01.02-.02.04-.04.07-.03.04-.05.08-.08.12-.06.08-.12.15-.17.23-.06.1-.1.21-.12.33,0,.06.06.12.11.11.07,0,.11-.05.11-.11,0,0,0-.02,0,0,0,0,0,0,0-.01,0-.01,0-.02,0-.03s0-.02.01-.03c0,0,0,0,0-.01,0,0,.01-.03,0-.01,0,.01,0-.02.01-.02,0-.01.01-.02.02-.03.01-.02.03-.04.04-.07.05-.08.12-.16.18-.24.13-.18.24-.43.13-.64-.03-.06-.09-.1-.14-.14s-.12-.07-.18-.1c-.05-.03-.13-.01-.16.04s-.01.13.04.16h0Z"/>
          <path class="cls-4" d="M22.81,42.28s-.06-.07-.09-.1c.01.01,0,0,0,0,0,0-.01-.02-.02-.02-.01-.02-.03-.04-.04-.05-.05-.07-.09-.15-.12-.23,0,0,0-.02-.01-.03,0,.02,0,0,0-.01,0-.02-.02-.04-.02-.06-.02-.04-.03-.08-.04-.13s-.02-.08-.03-.13c0-.02,0-.04-.01-.07,0,0,0-.01,0-.02,0,0,0-.02,0,0s0,0,0,0c0,0,0-.01,0-.02-.01-.1-.01-.2,0-.3,0-.06-.06-.12-.11-.11-.07,0-.11.05-.11.11-.02.38.07.76.27,1.08.06.09.13.18.2.26.04.04.12.04.16,0,.04-.05.04-.12,0-.16h0Z"/>
          <path class="cls-7" d="M25.13,43.35c0-.07-.02-.15,0-.22.02-.1.09-.13.17-.16.17-.08.34-.15.51-.23s.31-.17.45-.28.28-.23.43-.34c.57-.39,1.25-.56,1.84-.91.18-.1.34-.23.51-.34.19-.12.38-.23.58-.34.13-.07.01-.27-.12-.2-.36.19-.68.43-1.02.64-.31.19-.64.33-.97.47s-.67.29-.97.5c-.16.11-.3.24-.45.36s-.31.2-.48.28c-.1.05-.21.1-.31.14-.09.04-.19.07-.26.13-.15.12-.15.32-.13.49.02.14.25.15.23,0h0Z"/>
          <path class="cls-6" d="M26.23,38.57c.15,0,.15-.23,0-.23s-.15.23,0,.23h0Z"/>
          <path class="cls-9" d="M26.23,38.57c.42.04.85-.02,1.23-.18.06-.02.1-.08.08-.14-.02-.05-.08-.1-.14-.08-.19.08-.39.13-.59.16-.03,0,.01,0-.01,0-.01,0-.03,0-.04,0-.02,0-.05,0-.07,0-.05,0-.1,0-.15,0-.1,0-.21,0-.31-.01-.06,0-.12.06-.11.11,0,.07.05.11.11.11h0Z"/>
          <path class="cls-9" d="M29.92,36.81c.08-.03.16-.07.23-.11.03-.02.06-.04.1-.06.02-.02.04-.03.07-.05,0,0,0,0,.01,0,.01,0,0,0,0,0,0,0,.02-.01.03-.02h-.03s0,0,.01,0h-.03s.01,0,.02,0h-.03s0,0,0,0h-.03s-.01-.02,0-.02c0,0,0,0-.01-.01,0,0,0,0,0,0v-.03s0,.02,0,.02v-.03s0,.01,0,.02v-.03s0,.02,0,.03v-.03s0,.01,0,.02c0,0-.02.02,0,0s0,0,0,0c0,0-.01.01-.02.02-.02.02-.04.04-.06.06s-.05.04-.07.06c-.01,0-.02.02-.03.03,0,0,.02-.02,0,0,0,0,0,0,0,0,0,0-.01.01-.02.02-.1.07-.2.13-.3.19-.06.03-.12.07-.18.1-.05.03-.07.11-.04.16.03.05.1.07.16.04.19-.1.38-.21.56-.35.04-.03.08-.07.12-.11s.09-.08.11-.13c.04-.08.03-.17-.03-.23-.03-.03-.08-.05-.12-.05-.05,0-.09.03-.13.06,0,0-.01,0-.02.01,0,0-.03.02,0,0-.01,0-.03.02-.04.03-.02.02-.05.03-.07.05-.05.03-.11.06-.17.09h.03s-.02,0-.04,0c-.03.01-.05.03-.07.05-.01.02-.02.06-.01.09.02.05.08.1.14.08h0Z"/>
          <path class="cls-4" d="M26.06,32.96c.08.05.17.07.27.07s.18-.02.26-.05l-.13-.17s0,0,0,0l.02-.02s-.03.03-.04.04l.02-.02s-.03.02-.05.03h.03s-.04,0-.06,0h.03s-.02,0-.02,0c-.03,0-.06.01-.08.03-.02.02-.03.05-.03.08s.01.06.03.08.05.03.08.03c.06,0,.11-.02.16-.04s.09-.07.12-.11v-.03s.01-.02.02-.03c0-.03,0-.05-.02-.07-.01-.02-.03-.03-.05-.04-.02,0-.05-.01-.07,0-.05.02-.11.04-.17.04h.03s-.09,0-.13,0h.03s-.07,0-.1-.02h.03s-.03,0-.04,0c-.03-.01-.06-.02-.09-.01-.03,0-.06.03-.07.05-.01.03-.02.06-.01.09s.03.05.05.07h0Z"/>
          <path class="cls-7" d="M26.53,32.77c-.06,0-.12,0-.18,0,.02,0-.01,0-.02,0-.02,0-.03,0-.05-.01-.01,0-.02,0-.03-.01,0,0,0,0,0,0,0,0-.01,0-.02-.01-.11-.05-.21-.09-.33-.11-.24-.03-.47,0-.7.05-.06.01-.1.09-.08.14.02.06.08.09.14.08.05,0,.11-.02.16-.03.02,0,.03,0,.05,0,0,0,.04,0,.02,0,.03,0,.05,0,.08,0,.05,0,.11,0,.16,0,.03,0,.05,0,.08,0,.02,0,.03,0,.05,0-.02,0,.02,0,.02,0,.05,0,.1.02.15.04,0,0,.01,0,.02,0,0,0,0,0,0,0,.01,0,.03.01.04.02.03.01.06.03.08.04.12.05.24.05.36.05.06,0,.12-.05.11-.11,0-.06-.05-.12-.11-.11h0Z"/>
          <path class="cls-4" d="M32.45,31.12s0,0,0,.01v-.03s0,.04,0,.07v-.03s0,.05-.01.07v-.03s0,.04-.02.06l.02-.02s-.03.03-.04.04l.02-.02s-.03.02-.05.03h.03s-.03,0-.05,0h.03s-.04,0-.07,0h.03s-.07-.01-.1-.02h.03c-.06-.01-.11-.05-.16-.08l.02.02s-.08-.07-.12-.1c-.04-.04-.12-.04-.16,0s-.04.12,0,.16c.05.06.11.11.18.15s.13.08.2.1c.09.02.18.02.26-.02.06-.03.11-.09.15-.14.04-.08.05-.17.04-.25,0-.03-.03-.06-.05-.07-.02-.01-.06-.02-.09-.01s-.05.03-.07.05c-.02.03-.02.06-.01.09h0Z"/>
          <path class="cls-4" d="M32.21,31.24c-.08-.11-.17-.21-.27-.29-.03-.03-.07-.05-.11-.08-.01,0-.03-.01-.04-.01-.02,0-.03,0-.05,0-.03,0-.06.03-.07.05-.01.03-.02.06-.01.09v.03s.04.03.05.04c.02.02.05.03.07.05l-.02-.02c.09.07.17.15.23.23l-.02-.02s.02.03.03.04c0,.01.02.02.03.03.01.01.02.02.04.02.02,0,.03,0,.05,0,.02,0,.03,0,.04-.01.02-.02.05-.04.05-.07s0-.06-.01-.09h0Z"/>
          <path class="cls-7" d="M4.52,37.55c-.18,0-.33,0-.46.01-.13.02-.23.06-.31.12-.08.06-.15.15-.2.27-.05.12-.08.28-.11.48,0,.04-.02.07-.05.09-.03.02-.07.03-.1.02-.03,0-.07-.01-.09-.03-.03-.02-.04-.05-.04-.09.01-.21.03-.44.06-.71.03-.27.05-.51.06-.75,0-.14.01-.26.01-.38,0-.12,0-.24,0-.35s0-.23,0-.35c0-.12,0-.24.01-.38,0-.04.02-.07.05-.08.03-.01.06-.02.1-.01.03,0,.07.02.1.04.03.02.04.05.04.08,0,.2.02.37.05.49s.08.22.16.29c.07.07.17.12.3.14.12.03.28.04.48.05l2.98.15c.18,0,.34,0,.46,0,.12-.01.23-.04.31-.09.09-.05.15-.12.2-.2.05-.09.1-.2.14-.33.02-.09.04-.19.05-.3.01-.11.02-.23.03-.35,0-.16,0-.3,0-.44,0-.14-.02-.24-.04-.31-.03-.13-.07-.25-.11-.34-.04-.1-.1-.18-.17-.25s-.16-.13-.27-.17c-.11-.05-.25-.09-.42-.12-.03,0-.06-.03-.07-.07s-.01-.08-.01-.13c0-.05.01-.09.03-.12.02-.03.04-.05.07-.04.24.04.46.08.67.12.21.04.42.06.64.06.02,0,.04.02.07.04.03.03.04.09.04.19l-.18,3.53c-.01.25-.02.5-.02.73,0,.23,0,.46,0,.69,0,.05-.02.08-.05.1s-.06.03-.1.03c-.03,0-.07-.01-.1-.04-.03-.02-.05-.06-.05-.1-.01-.2-.03-.37-.05-.49-.02-.12-.05-.22-.11-.29s-.13-.12-.23-.14c-.1-.03-.25-.05-.44-.06l-3.35-.17h0Z"/>
          <path class="cls-7" d="M4.38,27.55c0-.05.02-.1.04-.15.02-.05.07-.06.14-.03.06.02.13.04.21.06.08.01.16.03.24.04.25.04.49.08.71.1.02,0,.04.02.05.05,0,.03.01.07,0,.11s-.01.08-.03.11c-.02.03-.04.05-.08.05-.23,0-.41.02-.54.04s-.24.07-.32.14c-.08.07-.14.17-.18.3-.04.13-.08.31-.13.54l-.1.58c-.03.17-.05.3-.06.4-.01.1,0,.18.02.25.03.06.08.11.15.15s.18.06.32.09l1.48.26c.08.01.13,0,.16-.02.03-.03.04-.06.05-.09.05-.29.08-.53.09-.7,0-.17-.01-.31-.05-.41-.04-.1-.11-.17-.2-.21-.09-.05-.21-.09-.36-.14-.03-.01-.05-.04-.07-.07s-.01-.07,0-.11c0-.04.02-.07.04-.1.02-.03.05-.04.08-.03.09.02.17.03.24.05.07.02.14.04.21.06s.14.04.22.06c.07.02.16.04.26.06.17.03.32.05.47.05.14,0,.31.02.51.06.03,0,.05.02.05.06s0,.07,0,.11c0,.04-.02.07-.04.1-.02.03-.05.04-.08.04-.17,0-.3,0-.41,0-.11.01-.19.05-.26.13-.07.08-.13.2-.18.36s-.1.4-.15.69c0,.03,0,.07.01.1.01.04.05.06.11.07l1.11.2c.18.03.34.04.47.04.13,0,.24-.03.34-.07.09-.04.17-.1.23-.18.06-.07.12-.17.16-.28.03-.09.06-.18.09-.3.03-.11.05-.23.07-.35.03-.15.05-.3.06-.43.01-.14.01-.24,0-.32-.02-.13-.04-.25-.07-.35-.03-.1-.07-.19-.14-.27s-.14-.15-.25-.21c-.1-.06-.24-.12-.4-.17-.03-.01-.05-.04-.06-.08s0-.08,0-.13.02-.08.05-.12c.02-.03.05-.04.08-.03.23.07.45.14.65.2.2.06.41.11.62.14.02,0,.04.02.07.05s.03.09.01.19l-.61,3.48c-.04.24-.08.48-.11.72-.03.24-.06.45-.08.63,0,.05-.03.09-.06.11s-.06.03-.1.03c-.04,0-.07-.02-.1-.05-.03-.03-.04-.08-.03-.13.01-.16,0-.29,0-.41-.01-.11-.04-.21-.09-.29-.05-.08-.11-.15-.2-.2s-.2-.09-.34-.11l-3.25-.57c-.12-.02-.25-.04-.37-.05-.12-.01-.23,0-.34,0-.11.01-.2.05-.29.1-.08.05-.15.14-.2.25-.03.07-.06.14-.08.21-.02.07-.05.15-.06.22,0,.04-.03.06-.06.08-.03.01-.06.02-.1.01s-.06-.02-.09-.05-.03-.06-.03-.09c.04-.22.08-.41.12-.58.04-.17.08-.37.12-.6l.61-3.44Z"/>
          <path class="cls-7" d="M6.55,20.21c.11-.27.24-.51.39-.72s.32-.4.5-.59c.05-.06.1-.11.15-.16.05-.05.08-.09.1-.14.04-.1.01-.18-.08-.25-.02-.01-.03-.04-.02-.08s.01-.07.03-.1c.02-.03.03-.06.05-.08.02-.02.04-.02.06,0,.08.06.16.11.24.15.09.04.18.09.27.12.15.06.3.11.46.14.16.04.32.07.49.11.02,0,.03.03.04.06,0,.03,0,.07-.02.11-.01.04-.03.08-.06.11-.02.03-.05.05-.08.04-.54-.04-.99.07-1.35.31s-.64.63-.85,1.14c-.16.4-.21.76-.17,1.07s.16.6.33.85c.18.25.39.46.65.63.26.17.53.31.8.42.3.12.61.2.93.25s.64.04.94-.03c.3-.07.58-.2.84-.4.26-.2.46-.49.61-.86.12-.29.2-.56.24-.8.05-.25.04-.47-.02-.68-.08-.25-.2-.48-.37-.68-.17-.2-.38-.38-.63-.53-.03-.02-.05-.05-.05-.09,0-.04.02-.07.04-.11.02-.03.05-.06.08-.08.03-.02.06-.02.08-.01.1.06.2.11.3.16.1.05.2.09.31.13.18.07.37.14.56.2.19.06.4.12.61.2.03.01.05.03.06.06,0,.03,0,.06,0,.1-.01.03-.03.06-.05.09s-.05.04-.08.03c-.05,0-.11,0-.16,0-.06.01-.11.04-.16.07s-.09.09-.11.15c-.02.06-.03.14-.03.23.01.16.01.31.01.45,0,.14-.02.28-.04.42-.02.14-.06.28-.1.42s-.1.3-.16.46c-.43,1.07-.97,1.77-1.65,2.09s-1.45.32-2.33-.03c-.47-.19-.85-.43-1.14-.74-.29-.31-.51-.65-.64-1.03-.13-.38-.18-.8-.15-1.24.03-.44.14-.9.33-1.36Z"/>
          <path class="cls-7" d="M13.24,13.85c.04-.06.07-.12.07-.16,0-.04-.03-.08-.08-.12l-.97-.65c-.15-.1-.28-.17-.4-.22-.12-.05-.23-.07-.33-.06-.1,0-.21.05-.31.13-.1.08-.21.19-.34.35-.02.03-.05.05-.09.05s-.07-.01-.1-.03c-.03-.02-.05-.04-.06-.08-.01-.03,0-.06.01-.1.12-.17.25-.36.42-.58.16-.21.31-.41.44-.61.08-.11.15-.22.21-.32.06-.1.12-.2.18-.3.06-.1.12-.2.18-.3.06-.1.13-.21.2-.32.02-.03.05-.05.08-.04s.06.01.09.04c.03.02.05.05.06.08s.01.06,0,.09c-.1.17-.17.32-.21.44-.04.12-.04.23-.02.33.03.1.09.19.18.27s.22.18.38.29l2.79,1.87c.16.11.29.18.39.21.1.04.2.04.28.02.09-.02.18-.08.27-.17s.2-.21.32-.36c.03-.03.06-.04.09-.05.04,0,.07,0,.1.02.03.02.05.05.06.08s0,.07-.02.11c-.14.22-.29.42-.44.6-.15.18-.29.37-.42.57-.14.2-.27.42-.4.65s-.25.44-.37.61c-.02.03-.05.05-.08.05-.03,0-.07,0-.09-.03-.03-.02-.05-.04-.06-.08s-.01-.07,0-.1c.1-.18.17-.32.22-.44.05-.11.06-.22.05-.31-.01-.09-.06-.17-.13-.25s-.19-.17-.35-.27l-1.18-.79c-.12-.08-.22-.07-.3.05l-1.62,2.42c-.08.12-.07.21.02.27l1.22.82c.16.11.29.18.39.21.1.04.2.04.28.02.09-.02.18-.08.27-.17.09-.09.2-.21.32-.36.03-.03.06-.05.09-.05.04,0,.07,0,.1.02.03.02.05.05.06.08s0,.07-.02.11c-.14.22-.29.41-.44.6-.15.18-.29.37-.42.57-.14.2-.27.42-.4.65s-.25.44-.37.61c-.02.03-.05.05-.08.05-.03,0-.07,0-.09-.03-.03-.02-.05-.04-.06-.08-.01-.03-.01-.07,0-.1.1-.18.17-.32.22-.44s.06-.22.05-.31-.06-.17-.13-.25c-.08-.08-.19-.17-.35-.27l-2.79-1.87c-.15-.1-.28-.17-.4-.22-.12-.05-.23-.07-.33-.06s-.21.05-.31.13c-.1.08-.21.19-.34.35-.02.03-.05.05-.09.05-.04,0-.07-.01-.1-.03-.03-.02-.05-.04-.06-.08-.01-.03,0-.06.01-.1.12-.17.25-.36.42-.58.16-.21.31-.41.44-.61.08-.11.15-.22.21-.32.06-.1.12-.2.18-.3.06-.1.12-.2.18-.3.06-.1.13-.21.2-.32.02-.03.05-.05.08-.04.03,0,.06.01.09.04s.05.05.06.08.01.06,0,.09c-.1.17-.17.32-.21.44-.04.12-.04.23-.02.33.03.1.09.19.18.27.09.09.22.18.38.29l.97.65c.09.06.18.04.26-.08l1.62-2.41Z"/>
          <path class="cls-7" d="M17.04,6.26s.08-.06.12-.09c.04-.02.09,0,.13.07.03.06.07.11.13.17s.11.12.16.18c.17.19.33.37.5.52.01.02.02.04,0,.07-.01.03-.03.06-.06.09s-.06.05-.09.06-.07.01-.09-.01c-.18-.14-.33-.24-.45-.3-.12-.06-.23-.1-.33-.09s-.21.05-.33.12c-.12.08-.26.19-.44.34l-.44.38c-.13.11-.23.2-.3.27-.07.07-.12.14-.14.21s-.01.14.03.21c.04.07.1.16.2.27l.99,1.13c.05.06.1.09.14.08.04,0,.07-.02.09-.04.22-.2.39-.36.51-.49.11-.13.19-.25.21-.35.03-.1.02-.2-.02-.29-.04-.09-.11-.2-.19-.33-.02-.03-.02-.06,0-.1.01-.03.03-.06.06-.09s.06-.04.1-.05c.04,0,.07,0,.09.03.06.07.11.13.15.19.04.06.08.12.13.17s.09.12.13.18c.05.06.1.13.17.21.11.13.22.24.33.33.11.09.23.21.36.36.02.02.02.05,0,.08-.02.03-.04.06-.07.08-.03.02-.06.04-.1.05-.03.01-.06,0-.09-.02-.12-.11-.23-.2-.32-.26-.09-.06-.19-.08-.29-.06-.1.02-.22.07-.37.17-.14.1-.33.25-.55.44-.02.02-.04.05-.05.09-.01.04,0,.08.05.13l.74.85c.12.14.23.25.34.32s.21.13.31.15c.1.02.2.03.29,0,.1-.02.19-.06.3-.12.08-.05.17-.1.26-.17.09-.07.18-.14.28-.22.12-.1.22-.2.32-.3.1-.1.16-.18.2-.24.07-.12.13-.22.17-.32.04-.1.06-.19.06-.29s-.02-.2-.06-.32c-.04-.11-.11-.24-.2-.39-.02-.03-.02-.06,0-.1s.05-.07.08-.1c.03-.03.07-.05.11-.06.04-.01.06,0,.08.02.13.2.26.39.38.56.12.17.25.34.4.5.01.01.02.04.02.08,0,.04-.04.09-.11.16l-2.66,2.32c-.19.16-.36.33-.54.49s-.32.31-.46.45c-.04.03-.08.05-.11.05-.04,0-.07-.02-.1-.04-.03-.02-.04-.06-.05-.1,0-.04.02-.08.06-.12.11-.12.19-.22.25-.32.06-.1.1-.19.12-.28s0-.18-.03-.28-.1-.19-.19-.3l-2.17-2.48c-.08-.09-.17-.18-.25-.27-.09-.08-.18-.15-.27-.21-.09-.06-.19-.09-.29-.1-.1-.01-.2.01-.31.07-.07.03-.13.07-.2.12-.07.04-.13.09-.19.13-.03.03-.06.03-.09.03-.03,0-.06-.03-.08-.05-.02-.03-.04-.06-.04-.09,0-.03,0-.06.04-.09.17-.14.32-.27.46-.38.14-.11.3-.24.47-.39l2.63-2.3Z"/>
          <path class="cls-7" d="M23.05,3.03s.09-.04.14-.05c.05-.01.08.02.11.1.05.16.13.33.23.53.1.19.19.37.28.53,0,.02,0,.04-.02.07-.02.03-.05.05-.08.07-.03.02-.07.03-.11.03-.04,0-.07,0-.08-.03-.14-.18-.25-.32-.35-.41-.09-.09-.19-.15-.29-.18s-.22-.02-.35.03c-.13.04-.3.11-.51.2l-.53.25c-.15.07-.27.13-.36.18-.09.05-.15.1-.19.16s-.05.13-.03.21c.02.08.06.19.12.31l.64,1.36c.03.07.07.11.11.11.04,0,.07,0,.1-.01.27-.13.48-.24.62-.33.15-.09.25-.19.3-.28.05-.09.07-.19.06-.29-.02-.1-.05-.22-.09-.37,0-.03,0-.07.02-.09.02-.03.05-.05.09-.07.04-.02.07-.02.11-.02.04,0,.06.02.08.05.04.08.07.16.1.22.02.07.05.13.07.2.02.07.05.14.08.21s.06.16.11.25c.07.15.15.29.23.41.08.12.16.27.24.45.01.03,0,.05-.02.08-.02.03-.05.05-.09.06s-.07.02-.11.02c-.04,0-.06-.01-.08-.04-.09-.14-.17-.25-.24-.33s-.16-.13-.26-.14c-.1-.01-.24.01-.4.07-.16.06-.38.15-.65.27-.03.01-.05.04-.08.07-.02.03-.02.08,0,.13l.62,1.3c.08.18.17.31.25.4.08.09.18.15.28.17.11.02.23.01.37-.02.14-.04.31-.09.51-.17.04-.02.08-.02.11,0,.03.02.06.05.07.08.01.03.02.06,0,.1,0,.04-.03.06-.07.08-.32.15-.59.27-.83.35-.24.09-.46.18-.67.28-.22.11-.44.22-.65.34-.21.12-.41.23-.62.33-.04.02-.07.02-.1,0-.03-.02-.05-.04-.07-.07-.02-.03-.02-.06-.02-.1s.03-.07.06-.09c.16-.09.28-.18.38-.25.09-.08.16-.16.19-.24.03-.08.04-.18.01-.28-.02-.1-.07-.23-.14-.39l-1.38-2.91c-.05-.11-.11-.22-.17-.33-.06-.1-.13-.2-.2-.28-.07-.08-.16-.14-.25-.18s-.2-.05-.32-.02c-.07.02-.15.03-.22.06-.08.02-.15.05-.21.07-.04.02-.07.02-.1,0-.03-.02-.05-.04-.07-.07-.01-.03-.02-.06-.01-.1,0-.03.03-.06.06-.08.2-.09.38-.17.54-.24s.35-.15.56-.25l3.16-1.49Z"/>
          <path class="cls-7" d="M29.1,2.83c.02-.17.03-.3.01-.4-.02-.1-.05-.18-.11-.24-.06-.06-.14-.11-.25-.15-.11-.03-.24-.07-.41-.1-.04,0-.07-.03-.09-.06s-.02-.07-.02-.1c0-.03.02-.06.05-.09.03-.02.06-.04.1-.03.06,0,.14.02.26.04.12.02.26.04.4.06.15.02.3.05.46.07.16.02.3.05.43.08s.23.05.32.08.13.05.14.08l1.4,4.32s.02.03.04.03c.02,0,.04,0,.05-.02l2.48-3.78s.09-.03.25-.02.34.02.55.04.42.04.64.07.39.04.52.06c.04,0,.06.02.08.05.01.03.02.06.01.1,0,.03-.02.06-.04.09-.02.03-.05.04-.08.04-.22,0-.4.01-.52.02-.13.01-.22.05-.29.12-.07.07-.12.18-.15.32s-.07.35-.11.63l-.43,3.13c-.03.19-.03.33-.02.44.01.11.05.2.11.26.06.07.15.12.27.16.12.04.27.09.46.13.04.01.07.03.08.07.02.03.03.07.02.1,0,.03-.02.06-.05.09-.03.03-.06.03-.11.03-.26-.04-.5-.08-.73-.14-.23-.05-.46-.1-.69-.13-.24-.03-.5-.06-.76-.07-.26-.01-.5-.03-.71-.06-.04,0-.07-.02-.08-.05-.02-.03-.02-.06-.02-.1,0-.03.02-.07.04-.09.02-.03.06-.04.09-.04.2.01.36.01.49,0s.22-.04.3-.08.13-.12.17-.22c.04-.1.07-.25.09-.43l.43-3.15s-.02-.06-.07-.07c-.05,0-.09,0-.1.04l-1.78,2.69c-.12.18-.25.39-.37.61-.13.22-.25.45-.37.67,0,.02-.03.03-.06.03-.03,0-.06,0-.09,0-.03,0-.06-.01-.09-.03-.03-.01-.04-.03-.05-.05l-1.54-4.57s-.03-.05-.08-.06c-.04-.01-.06,0-.07.05l-.43,3.16c-.03.2-.03.36,0,.48s.07.21.13.28c.07.07.15.12.26.15.11.04.23.07.38.11.03.01.05.03.07.06.01.03.02.06.01.1,0,.03-.02.06-.04.09-.02.03-.05.04-.09.03-.14-.02-.3-.05-.46-.1s-.37-.08-.6-.12c-.24-.03-.46-.05-.66-.06s-.35-.01-.48-.03c-.03,0-.06-.02-.07-.05-.02-.03-.02-.06-.02-.1,0-.03.01-.06.04-.09.02-.03.05-.04.09-.04.17,0,.31,0,.43,0,.12,0,.21-.03.29-.08.08-.05.14-.13.18-.23.04-.11.08-.27.11-.47l.49-3.54Z"/>
          <path class="cls-7" d="M38.21,8.11c-.08-.05-.14-.08-.18-.08-.05,0-.1.02-.16.05l-.93.6c-.07.05-.12.1-.15.14-.04.06-.06.12-.05.19,0,.06.03.13.08.19s.1.13.16.19c.07.06.14.13.22.19.04.03.06.06.05.09,0,.04-.01.07-.03.1-.02.03-.05.05-.08.07-.03.02-.07.01-.11-.02-.13-.09-.27-.2-.43-.33-.15-.13-.31-.25-.46-.35-.14-.09-.28-.17-.42-.24s-.29-.15-.44-.25c-.03-.02-.04-.05-.04-.08s0-.07.02-.1c.02-.03.04-.05.07-.07.03-.02.07-.02.11,0l.13.07c.09.04.18.07.26.1.08.02.17.03.26.02.09,0,.19-.04.29-.08.11-.04.23-.11.36-.19l4.54-2.83s.1-.02.17.03c.08.05.12.11.14.18-.07.39-.14.82-.22,1.27-.08.45-.16.91-.24,1.37-.08.47-.15.93-.23,1.39-.08.46-.14.9-.21,1.31-.03.18-.04.33-.02.45.01.12.04.22.07.3.04.08.08.15.14.21.06.06.12.12.18.18.03.03.04.06.04.09,0,.04-.02.07-.03.1-.02.03-.04.05-.07.06-.03.01-.06.01-.08,0-.17-.12-.33-.24-.48-.36-.15-.13-.32-.26-.52-.39-.23-.15-.45-.28-.66-.4-.21-.11-.41-.23-.59-.36-.04-.03-.06-.06-.06-.1,0-.04,0-.07.03-.11.02-.03.04-.05.07-.06.03-.01.07,0,.11.02.2.1.35.17.46.19.11.02.21-.03.29-.15.02-.03.04-.07.06-.12.02-.05.04-.12.06-.21.02-.09.05-.21.08-.36.03-.15.06-.34.1-.57.01-.08,0-.14-.03-.19s-.1-.11-.21-.17l-1.42-.95ZM39.79,8.77c.08.05.13.07.18.07.04,0,.07-.04.08-.12l.41-2.14s0-.06-.04-.08c-.03-.02-.06-.02-.09,0l-1.85,1.17c-.07.04-.1.08-.09.12,0,.03.04.07.1.11l1.3.87Z"/>
          <path class="cls-7" d="M45.18,16.68s-.07.03-.1.02c-.19-.06-.37-.13-.54-.19-.17-.07-.34-.16-.51-.27-.17-.12-.35-.27-.54-.45-.19-.19-.4-.42-.63-.71-.33-.41-.58-.83-.73-1.23-.15-.41-.22-.8-.19-1.17.02-.38.13-.74.33-1.08.2-.35.48-.67.85-.96.38-.3.77-.51,1.17-.61.4-.1.8-.12,1.19-.04s.77.24,1.14.48c.37.24.7.56,1.01.94.19.24.35.5.47.76.12.27.21.53.28.78.04.14.08.25.13.33.05.08.13.1.25.06.03-.01.05,0,.09.01.03.02.06.05.08.08.02.03.03.06.04.09s0,.05-.02.06c-.21.09-.41.23-.61.41-.2.18-.4.37-.6.57-.02.02-.05.02-.09.01-.04-.01-.07-.03-.1-.06-.03-.03-.05-.06-.06-.1-.01-.04,0-.07.01-.1.33-.38.48-.81.44-1.28-.04-.47-.25-.95-.63-1.42-.24-.29-.5-.5-.78-.61-.29-.12-.58-.17-.87-.15s-.59.09-.87.21c-.29.13-.55.28-.78.47-.33.26-.59.53-.8.82-.21.29-.35.58-.42.87-.07.3-.08.59-.01.88.06.29.21.57.43.84.16.2.31.37.47.51.15.14.31.25.46.31.15.06.31.08.47.06.16-.02.32-.1.49-.24.13-.11.23-.2.29-.28.06-.08.09-.17.08-.25,0-.09-.04-.19-.1-.29-.06-.11-.15-.24-.26-.41-.03-.04-.04-.07-.03-.1.01-.03.03-.06.05-.08.03-.02.06-.03.09-.04.03,0,.06.01.08.04.14.18.28.37.43.56s.27.37.39.52c.06.07.11.14.17.2.06.06.11.12.17.19.06.07.12.14.19.21.07.07.14.16.22.26.02.03.03.05.02.08,0,.03-.03.05-.05.08-.02.02-.05.03-.08.03-.03,0-.06-.01-.09-.04-.1-.1-.18-.18-.25-.22-.07-.04-.14-.06-.2-.06-.06,0-.13.03-.19.07-.06.04-.14.1-.22.17l-.61.49Z"/>
          <path class="cls-7" d="M49.35,16.52c.16-.08.28-.17.38-.25.1-.08.17-.17.21-.26.04-.1.05-.21.03-.33-.02-.13-.07-.28-.16-.46-.02-.03-.02-.07,0-.1.02-.03.04-.06.07-.07.03-.02.06-.02.1-.02.03,0,.06.02.08.06.1.18.21.39.32.64.11.24.23.47.34.67.07.12.13.23.19.33.06.1.12.2.18.3.06.1.12.2.18.3s.12.21.19.33c.02.03.02.07,0,.09-.02.03-.04.05-.07.06-.03.01-.07.02-.1.02-.04,0-.06-.02-.08-.05-.11-.17-.21-.3-.3-.39-.09-.09-.19-.15-.29-.17-.1-.02-.21,0-.33.03-.12.04-.26.11-.44.2l-2.95,1.61c-.17.09-.29.17-.37.25-.08.07-.13.15-.15.24-.02.09,0,.19.03.31s.09.27.17.45c.01.04.01.07,0,.11-.02.04-.04.06-.07.08-.03.02-.06.02-.1.02-.04,0-.06-.03-.09-.07-.12-.23-.23-.45-.33-.67-.09-.22-.2-.43-.31-.64-.12-.22-.25-.43-.4-.65-.15-.22-.27-.42-.37-.61-.02-.03-.02-.07,0-.1s.04-.05.07-.07c.03-.02.06-.02.1-.02.04,0,.07.02.09.05.11.17.21.3.29.39.08.09.16.16.24.19.08.03.18.03.28,0,.1-.03.24-.09.4-.18l2.95-1.61Z"/>
          <path class="cls-7" d="M47.69,23.78c-.18-.47-.27-.93-.28-1.35s.05-.82.2-1.17.38-.67.69-.94c.31-.27.7-.5,1.18-.67.41-.15.81-.21,1.2-.18.39.03.76.13,1.09.32.34.18.64.44.91.77.27.33.49.72.66,1.18.16.44.25.88.25,1.3,0,.42-.06.81-.2,1.16s-.35.67-.63.94c-.28.27-.62.48-1.02.63-.65.24-1.25.3-1.79.17-.54-.13-1.01-.38-1.4-.77l-.04.05c-.59.67-.81,1.2-.66,1.59.04.11.08.2.12.26.04.06.09.12.15.16.06.04.12.07.2.1.08.02.16.05.26.07.04,0,.07.03.08.06.02.04.02.07.02.11,0,.04-.02.07-.05.1-.03.03-.06.04-.1.04-.12-.01-.26-.03-.42-.07-.16-.03-.32-.09-.48-.16-.16-.07-.3-.17-.44-.3-.13-.13-.24-.28-.31-.47-.07-.2-.08-.41-.03-.62s.14-.42.27-.62.26-.39.42-.56c.16-.17.3-.32.43-.45-.13-.22-.23-.44-.32-.66ZM48.04,23.69c.06.17.15.33.25.47.25-.29.42-.54.53-.74s.13-.41.05-.61c-.04-.1-.1-.19-.18-.25-.08-.07-.17-.12-.25-.16-.09-.04-.17-.06-.24-.07-.08,0-.12,0-.15,0-.03,0-.05.06-.08.15-.03.09-.04.2-.05.33,0,.13,0,.27,0,.43.01.15.05.3.1.45ZM49.28,22.9c.09.23.11.49.08.79-.03.3-.17.61-.42.96.32.14.68.21,1.08.21.4,0,.79-.08,1.19-.23.31-.11.6-.26.88-.43.28-.17.5-.38.68-.61.18-.23.29-.5.35-.79.05-.3.01-.62-.12-.97-.12-.33-.3-.59-.53-.77-.23-.19-.49-.31-.78-.38-.29-.07-.6-.08-.92-.04s-.64.11-.94.22c-.35.13-.67.29-.96.47-.29.18-.53.41-.7.67.1,0,.2.02.31.06.11.03.21.09.31.16s.19.16.28.28c.09.11.16.25.23.43Z"/>
          <path class="cls-7" d="M52.3,32.77c-.37.07-.7.08-1.01.04-.31-.04-.58-.14-.81-.31-.24-.17-.44-.4-.6-.71-.17-.31-.29-.69-.37-1.16-.08-.45-.11-.84-.09-1.19.02-.34.1-.64.23-.88.13-.24.33-.44.58-.59.25-.15.58-.26.96-.33l2.36-.42c.17-.03.32-.07.44-.11.12-.04.21-.11.28-.18s.11-.18.13-.31c.02-.13.02-.29,0-.49,0-.04,0-.07.03-.09.03-.02.06-.04.09-.05.03,0,.07,0,.1.01.03.01.05.04.06.08.04.2.07.44.1.7.03.27.06.51.1.74.02.13.05.26.08.38s.05.23.08.34c.03.11.06.22.08.34.03.11.05.24.08.37,0,.04,0,.07-.03.09s-.05.03-.09.04c-.03,0-.07,0-.1-.02-.03-.01-.05-.04-.06-.07-.05-.2-.1-.35-.16-.47-.06-.11-.13-.2-.22-.25-.09-.05-.19-.07-.32-.07-.13,0-.29.02-.48.06l-2.3.41c-.24.04-.45.12-.66.23-.2.11-.37.25-.5.42-.13.17-.23.38-.29.61-.06.23-.06.5,0,.79.11.62.35,1.07.71,1.34.36.27.86.35,1.52.23l1.43-.26c.09-.02.2-.04.33-.06.14-.02.27-.05.4-.08.13-.03.26-.06.37-.1.12-.03.21-.07.27-.11.09-.05.16-.1.2-.14s.07-.09.08-.15c.01-.06.01-.12,0-.2-.01-.08-.02-.17-.03-.29,0-.03,0-.06.03-.08.03-.02.06-.04.09-.04.03,0,.07,0,.1,0,.03,0,.05.03.06.07.03.15.05.32.06.49.01.18.03.35.07.53.03.17.07.33.12.49.05.16.09.35.13.55,0,.04,0,.07-.03.09s-.05.04-.09.05c-.03,0-.07,0-.1-.01-.03-.01-.05-.04-.06-.08-.03-.11-.06-.2-.07-.27-.01-.07-.04-.12-.07-.16-.03-.04-.07-.07-.13-.1-.05-.03-.13-.05-.24-.08-.07-.02-.17-.03-.29-.02-.12,0-.25.02-.38.03-.13.02-.27.04-.4.07-.13.03-.25.05-.35.07l-1.4.25Z"/>
          <path class="cls-7" d="M56.1,38.79c0,.05,0,.1-.01.15,0,.05-.05.07-.14.06-.06-.01-.13-.01-.21-.01-.08,0-.16,0-.24,0-.26,0-.5.03-.72.05-.02,0-.04-.01-.06-.04-.02-.03-.02-.06-.03-.1,0-.04,0-.08,0-.11.01-.04.03-.06.07-.07.22-.05.39-.1.52-.15.12-.05.22-.12.28-.2.06-.08.1-.2.11-.34.01-.14.02-.32.02-.55l-.02-.58c0-.17-.01-.3-.02-.4,0-.1-.03-.18-.07-.24s-.1-.09-.18-.11c-.08-.02-.19-.02-.34-.02l-1.5.05c-.08,0-.13.02-.15.05-.02.03-.03.07-.03.1.01.3.03.53.06.7.03.17.07.3.14.38s.14.14.24.17.22.05.38.06c.03,0,.06.02.08.06.02.03.03.07.03.11s0,.07-.02.11c-.02.03-.04.05-.08.05-.09,0-.17,0-.24,0-.07,0-.14,0-.21-.01-.07,0-.15,0-.22-.01-.08,0-.17,0-.27,0-.17,0-.33.02-.47.05-.14.02-.31.04-.51.05-.03,0-.05-.01-.07-.05-.02-.03-.02-.07-.02-.11,0-.04,0-.08.02-.11s.04-.05.07-.06c.16-.03.3-.05.4-.09s.18-.09.23-.18c.05-.09.08-.22.1-.39.01-.17.02-.41,0-.71,0-.03-.01-.06-.03-.1-.02-.03-.06-.05-.13-.04l-1.12.04c-.18,0-.34.03-.47.06-.13.03-.23.08-.31.14-.08.06-.14.13-.19.22-.05.09-.08.19-.1.31-.01.09-.02.19-.03.31,0,.11,0,.23,0,.36,0,.16.02.3.03.44.02.14.04.24.06.31.04.13.09.24.14.33.05.09.11.17.19.23s.17.11.28.15c.11.04.26.07.43.09.03,0,.06.03.07.07s.02.08.02.13,0,.09-.02.12c-.02.04-.04.05-.07.05-.24-.02-.47-.05-.68-.06-.21-.02-.42-.02-.64,0-.02,0-.04-.01-.07-.04s-.05-.09-.05-.18l-.12-3.53c0-.25-.02-.49-.04-.72-.02-.24-.04-.45-.06-.64,0-.05,0-.09.03-.12.02-.03.06-.04.09-.05.04,0,.07,0,.1.03.03.02.05.07.06.12.02.15.05.29.09.4.04.11.08.2.15.27.06.07.14.12.23.15.09.03.21.05.35.04l3.3-.12c.13,0,.25-.01.37-.03.12-.01.23-.04.33-.07.1-.04.19-.09.26-.16.07-.07.12-.17.14-.28.01-.07.03-.15.03-.23s.01-.15.02-.22c0-.04.01-.07.04-.09.03-.02.06-.03.09-.03.03,0,.07,0,.1.03.03.02.04.05.05.09,0,.22,0,.42,0,.59,0,.18,0,.38,0,.61l.12,3.49Z"/>
          <polygon class="cls-7" points="54.99 46.99 53.01 45.59 51.07 47.05 51.78 44.73 49.79 43.34 52.22 43.3 52.93 40.97 53.72 43.27 56.14 43.23 54.2 44.69 54.99 46.99"/>
          <polygon class="cls-7" points="8.85 46.99 6.86 45.59 4.92 47.05 5.63 44.73 3.64 43.34 6.07 43.3 6.78 40.97 7.57 43.27 10 43.23 8.06 44.69 8.85 46.99"/>
        </g>
      </g>
    </mask>
  </defs>
  <g class="cls-5">
    <g id="Layer_1" data-name="Layer 1">
      <g class="cls-2">
        <rect class="cls-8" x="-26.02" y="-23.54" width="110.8" height="119.75"/>
      </g>
    </g>
  </g>
</svg>